<svg width="119" height="102" viewBox="0 0 119 102" fill="none" xmlns="http://www.w3.org/2000/svg">
<path d="M17.9312 13.9214C28.6616 4.60118 40.7438 0.218152 54.1777 0.77231C67.6201 1.16996 78.8218 6.19692 87.7826 15.8532L118.226 48.6597L88.8453 74.1793L79.3975 68.9705C79.4569 69.366 79.5504 69.8811 79.6778 70.5156C79.8053 71.1502 79.8559 72.4478 79.8296 74.4083C79.8033 76.3689 79.5769 78.2796 79.1505 80.1405C78.8093 81.9274 77.9657 84.0017 76.6196 86.3632C75.2736 88.7248 73.5361 90.8302 71.407 92.6794C64.5088 98.671 57.1692 101.618 49.388 101.52C41.6154 101.265 34.9719 98.1669 29.4576 92.2246C23.7135 86.0347 21.6305 78.9007 23.2086 70.8225C24.7867 62.7444 30.7707 54.1931 41.1605 45.1688L51.38 36.2924C51.2268 36.1273 50.9119 35.9537 50.4352 35.7715C50.0437 35.5154 49.2478 35.2378 48.0475 34.9388C46.7707 34.5573 45.4809 34.4106 44.1784 34.4986C42.961 34.5126 41.356 34.9378 39.3636 35.7741C37.3711 36.6103 35.4381 37.8421 33.5645 39.4695C31.691 41.0968 30.1577 43.1738 28.9649 45.7004C27.8572 48.1531 27.2179 50.1989 27.047 51.8379L26.6629 54.4073L0.295573 47.1257C0.321297 46.6562 0.398181 45.9932 0.526216 45.1367C0.577661 44.1977 0.918887 42.4108 1.5499 39.776C2.18092 37.1411 3.05026 34.5974 4.15795 32.1447C5.27422 29.5356 7.05893 26.5694 9.51207 23.2462C11.8886 19.8405 14.695 16.7322 17.9312 13.9214ZM64.5228 62.8858C66.3112 61.3325 66.9973 59.1714 66.5813 56.4027C66.1738 53.4774 64.3617 50.2816 61.145 46.8153C57.8236 49.7001 55.8815 52.5794 55.3185 55.4533C54.764 58.1707 55.4059 60.5198 57.244 62.5005C58.0865 63.4084 59.2739 63.9421 60.8062 64.1017C62.3471 64.1048 63.586 63.6995 64.5228 62.8858Z" fill="white"/>
</svg>
