<svg width="99" height="91" viewBox="0 0 99 91" fill="none" xmlns="http://www.w3.org/2000/svg">
<path d="M30.3181 2.10546C43.4399 -1.2429 55.4841 0.0360026 66.4508 5.94218C77.4945 11.7225 84.5993 20.4188 87.7651 32.0309L98.5207 71.4824L62.5919 80.6506L57.0324 72.5154C56.9053 72.8663 56.7532 73.3297 56.576 73.9057C56.3989 74.4817 55.8614 75.5742 54.9634 77.1833C54.0655 78.7925 53.0228 80.2793 51.8354 81.6438C50.7521 82.9818 49.1212 84.3534 46.9424 85.7586C44.7636 87.1638 42.3724 88.1986 39.7689 88.8629C31.3334 91.0154 23.8898 90.4733 17.4381 87.2366C11.0634 83.874 6.902 78.6198 4.95381 71.4738C2.92445 64.0302 4.37311 57.2913 9.29984 51.2572C14.2266 45.2231 23.0426 40.585 35.7478 37.3429L48.2448 34.154C48.1907 33.9555 48.0054 33.6843 47.6889 33.3405C47.4765 32.9701 46.9361 32.418 46.0678 31.6842C45.1723 30.8511 44.1613 30.2068 43.0346 29.7512C42.0121 29.2691 40.4823 28.9694 38.4454 28.8523C36.4085 28.7351 34.2445 28.9689 31.9534 29.5535C29.6623 30.1381 27.4544 31.2323 25.3297 32.836C23.3092 34.4131 21.8614 35.8441 20.9865 37.1289L19.5178 39.096L0.760513 22.3863C0.991763 22.0088 1.35214 21.4922 1.8417 20.8365C2.3042 20.0816 3.38748 18.7436 5.0915 16.8226C6.79551 14.9017 8.65777 13.1526 10.6783 11.5755C12.7759 9.87256 15.5911 8.14574 19.1237 6.39507C22.6293 4.54515 26.3607 3.11529 30.3181 2.10546ZM47.334 61.4556C49.521 60.8975 51.0593 59.3904 51.9491 56.9341C52.9159 54.352 52.8312 50.9767 51.6947 46.8083C47.6332 47.8447 44.7254 49.4359 42.9714 51.5819C41.2944 53.6022 40.7806 55.8033 41.43 58.1852C41.7277 59.277 42.4804 60.1995 43.6882 60.9528C44.9732 61.5803 46.1885 61.7479 47.334 61.4556Z" fill="white"/>
</svg>
