<svg width="94" height="92" viewBox="0 0 94 92" fill="none" xmlns="http://www.w3.org/2000/svg">
<path d="M48.3891 36.9215C45.6958 38.6982 44.0595 41.3964 43.4802 45.016C42.901 48.6356 43.6087 51.7394 45.6036 54.3274C47.7275 56.8258 50.8619 58.3854 55.007 59.0063C57.4716 59.3755 60.0215 59.2124 62.6565 58.517C65.4035 57.8383 67.4784 57.059 68.8811 56.179L71.1531 54.8842L83.8686 82.9514C83.4814 83.2204 82.8446 83.6156 81.9581 84.1369C81.1837 84.675 79.4365 85.5578 76.7163 86.7855C74.1251 87.9235 71.383 88.9299 68.4898 89.8047C65.6137 90.573 61.9145 91.109 57.392 91.4127C52.9816 91.7331 48.4798 91.5494 43.8866 90.8613C29.7709 88.747 18.6419 82.665 10.4995 72.6155C2.48607 62.4763 -0.523951 51.1788 1.4694 38.7232C3.46274 26.2675 9.85464 16.4329 20.6451 9.21935C31.5646 1.91612 44.0821 -0.678302 58.1978 1.43608C65.3676 2.51006 71.902 4.68796 77.8008 7.96978C83.8286 11.1619 88.008 14.0772 90.3389 16.7155L93.8353 20.6731L72.942 43.706C69.1424 38.7765 64.4418 35.8921 58.8404 35.0531C54.6953 34.4322 51.2116 35.055 48.3891 36.9215Z" fill="white"/>
</svg>
