<svg width="1372" height="1565" viewBox="0 0 1372 1565" fill="none" xmlns="http://www.w3.org/2000/svg">
<path d="M860.463 278.098L837.463 76.5977L804.463 8.09766H737.963L704.463 55.5977L728.963 180.098L756.963 301.098M860.463 278.098L756.963 301.098M860.463 278.098L893.963 318.598M756.963 301.098L684.963 318.598" stroke="white" stroke-width="2"/>
<circle cx="705.463" cy="56.5977" r="8" fill="#D9D9D9"/>
<path d="M255.463 118.598L335.963 69.5977H420.463" stroke="white" stroke-width="2"/>
<circle cx="837.463" cy="77.5977" r="8" fill="#D9D9D9"/>
<line x1="103.734" y1="278.913" x2="256.734" y2="115.913" stroke="white" stroke-width="2"/>
<path d="M1132.96 213.098L1166.96 188.598L1144.46 140.598L1107.46 151.598L1099.46 193.598L1132.96 213.098ZM1132.96 213.098L1226.46 312.598L1362.96 375.098L1253.46 428.098L1166.96 460.598" stroke="white" stroke-width="2"/>
<circle cx="1108.46" cy="148.598" r="8" fill="#D9D9D9"/>
<circle cx="1168.46" cy="185.598" r="8" fill="#D9D9D9"/>
<circle cx="1099.46" cy="193.598" r="8" fill="#D9D9D9"/>
<circle cx="1133.46" cy="209.598" r="8" fill="#D9D9D9"/>
<circle cx="104.463" cy="271.598" r="8" fill="#D9D9D9"/>
<circle cx="857.463" cy="276.598" r="8" fill="#D9D9D9"/>
<circle cx="756.463" cy="300.598" r="8" fill="#D9D9D9"/>
<circle cx="1223.46" cy="310.598" r="8" fill="#D9D9D9"/>
<circle cx="685.463" cy="318.598" r="8" fill="#D9D9D9"/>
<circle cx="894.463" cy="318.598" r="8" fill="#D9D9D9"/>
<path d="M488.462 314.098L470.962 473.098M470.962 473.098L371.462 658.098M470.962 473.098L530.462 597.098" stroke="white" stroke-width="2"/>
<circle cx="1363.46" cy="374.598" r="8" fill="#D9D9D9"/>
<path d="M46.4634 399.598L8.46338 420.598L36.4634 497.098L77.4634 513.598M77.4634 513.598L122.463 483.598L176.463 497.098L98.9634 694.598L77.4634 776.098L36.4634 668.598L77.4634 513.598Z" stroke="white" stroke-width="2"/>
<circle cx="477.462" cy="413.598" r="8" fill="#D9D9D9"/>
<circle cx="8.46338" cy="422.598" r="8" fill="#D9D9D9"/>
<circle cx="47" cy="400" r="8" fill="#D9D9D9"/>
<circle cx="1250.46" cy="427.598" r="8" fill="#D9D9D9"/>
<circle cx="1168.46" cy="460.598" r="8" fill="#D9D9D9"/>
<circle cx="469.462" cy="474.598" r="8" fill="#D9D9D9"/>
<circle cx="124.463" cy="482.598" r="8" fill="#D9D9D9"/>
<circle cx="39.4634" cy="494.598" r="8" fill="#D9D9D9"/>
<circle cx="176.463" cy="498.598" r="8" fill="#D9D9D9"/>
<circle cx="76.4634" cy="512.598" r="8" fill="#D9D9D9"/>
<path d="M704.463 818.598L723.963 746.598L690.963 610.598M690.963 610.598L856.463 547.098L999.463 707.598M690.963 610.598L999.463 707.598M999.463 707.598L956.463 842.098L987.463 880.098" stroke="white" stroke-width="2"/>
<circle cx="533.463" cy="595.598" r="8" fill="#D9D9D9"/>
<path d="M1259.96 595.598L1293.96 613.598M1293.96 613.598L1228.96 693.098L1212.96 792.098L1228.96 842.598L1245.46 888.098L1158.96 943.598L1124.46 868.098M1293.96 613.598L1324.96 693.098" stroke="white" stroke-width="2"/>
<circle cx="692.463" cy="608.598" r="8" fill="#D9D9D9"/>
<circle cx="1291.46" cy="611.598" r="8" fill="#D9D9D9"/>
<circle cx="369.462" cy="658.598" r="8" fill="#D9D9D9"/>
<circle cx="39.4634" cy="666.598" r="8" fill="#D9D9D9"/>
<circle cx="1325.46" cy="689.598" r="8" fill="#D9D9D9"/>
<circle cx="96.4634" cy="694.598" r="8" fill="#D9D9D9"/>
<circle cx="1231.46" cy="694.598" r="8" fill="#D9D9D9"/>
<circle cx="999.463" cy="705.598" r="8" fill="#D9D9D9"/>
<circle cx="723.463" cy="746.598" r="8" fill="#D9D9D9"/>
<circle cx="75.4634" cy="776.598" r="8" fill="#D9D9D9"/>
<circle cx="1209.46" cy="788.598" r="8" fill="#D9D9D9"/>
<path d="M204.963 781.098L278.463 829.098L315.963 879.598M315.963 879.598L295.463 933.098M315.963 879.598L401.463 922.098L458.963 933.098M295.463 933.098L225.463 984.098M295.463 933.098L375.963 993.598M375.963 993.598L458.963 933.098M375.963 993.598L385.463 1055.6L438.963 1159.1M458.963 933.098L506.963 1020.6L517.963 1084.6" stroke="white" stroke-width="2"/>
<circle cx="701.463" cy="817.598" r="8" fill="#D9D9D9"/>
<circle cx="277.463" cy="831.598" r="8" fill="#D9D9D9"/>
<circle cx="957.463" cy="843.598" r="8" fill="#D9D9D9"/>
<circle cx="1124.46" cy="869.598" r="8" fill="#D9D9D9"/>
<circle cx="320.462" cy="880.598" r="8" fill="#D9D9D9"/>
<circle cx="991.463" cy="880.598" r="8" fill="#D9D9D9"/>
<circle cx="1247.46" cy="888.598" r="8" fill="#D9D9D9"/>
<circle cx="401.462" cy="923.598" r="8" fill="#D9D9D9"/>
<circle cx="459.462" cy="931.598" r="8" fill="#D9D9D9"/>
<circle cx="1160.46" cy="942.598" r="8" fill="#D9D9D9"/>
<circle cx="224.463" cy="984.598" r="8" fill="#D9D9D9"/>
<path d="M717.963 1052.1L842.463 1176.1L894.963 1201.6M894.963 1201.6V1161.6L880.463 1136.1L854.963 1077.1L781.463 978.098M894.963 1201.6L935.463 1258.1L1040.46 1311.6L1054.96 1333.6" stroke="white" stroke-width="2"/>
<circle cx="377.462" cy="992.598" r="8" fill="#D9D9D9"/>
<circle cx="718.463" cy="1053.6" r="8" fill="#D9D9D9"/>
<circle cx="385.462" cy="1054.6" r="8" fill="#D9D9D9"/>
<circle cx="853.463" cy="1069.6" r="8" fill="#D9D9D9"/>
<circle cx="518.463" cy="1083.6" r="8" fill="#D9D9D9"/>
<circle cx="878.463" cy="1132.6" r="8" fill="#D9D9D9"/>
<circle cx="440.462" cy="1159.6" r="8" fill="#D9D9D9"/>
<circle cx="894.463" cy="1159.6" r="8" fill="#D9D9D9"/>
<path d="M21.9634 1233.1H94.9634L146.463 1274.6V1321.6M146.463 1321.6L212.463 1239.6M146.463 1321.6L44.4634 1311.6L8.96338 1383.1L127.463 1487.1M212.463 1239.6L217.963 1167.1M212.463 1239.6L250.963 1283.1M250.963 1283.1L280.963 1342.6M250.963 1283.1L297.463 1274.6L335.963 1208.1M127.463 1487.1L166.963 1445.6M127.463 1487.1L190.463 1481.6" stroke="white" stroke-width="2"/>
<circle cx="837.463" cy="1175.6" r="8" fill="#D9D9D9"/>
<path d="M585.963 1183.1L555.463 1319.6L529.463 1434.6M529.463 1434.6L617.463 1413.6L672.963 1351.1M529.463 1434.6L555.463 1523.1L693.963 1552.6L672.963 1497.1L723.463 1451.1H788.463" stroke="white" stroke-width="2"/>
<circle cx="894.463" cy="1201.6" r="8" fill="#D9D9D9"/>
<circle cx="336.462" cy="1207.6" r="8" fill="#D9D9D9"/>
<circle cx="16.4634" cy="1235.6" r="8" fill="#D9D9D9"/>
<circle cx="100.463" cy="1235.6" r="8" fill="#D9D9D9"/>
<circle cx="212.463" cy="1235.6" r="8" fill="#D9D9D9"/>
<path d="M1250.96 1227.6L1259.96 1263.1M1259.96 1263.1L1319.46 1483.6L1229.96 1527.6L1133.46 1556.6L1201.96 1449.1L1259.96 1263.1Z" stroke="white" stroke-width="2"/>
<circle cx="935.463" cy="1260.6" r="8" fill="#D9D9D9"/>
<circle cx="1260" cy="1261" r="8" fill="#D9D9D9"/>
<circle cx="301.462" cy="1272.6" r="8" fill="#D9D9D9"/>
<circle cx="248.463" cy="1280.6" r="8" fill="#D9D9D9"/>
<circle cx="1040.46" cy="1309.6" r="8" fill="#D9D9D9"/>
<circle cx="44.4634" cy="1311.6" r="8" fill="#D9D9D9"/>
<circle cx="146.463" cy="1319.6" r="8" fill="#D9D9D9"/>
<circle cx="1056.46" cy="1333.6" r="8" fill="#D9D9D9"/>
<circle cx="674.463" cy="1346.6" r="8" fill="#D9D9D9"/>
<circle cx="285.463" cy="1347.6" r="8" fill="#D9D9D9"/>
<circle cx="8.46338" cy="1385.6" r="8" fill="#D9D9D9"/>
<circle cx="621.463" cy="1410.6" r="8" fill="#D9D9D9"/>
<circle cx="529.463" cy="1433.6" r="8" fill="#D9D9D9"/>
<circle cx="172.463" cy="1441.6" r="8" fill="#D9D9D9"/>
<circle cx="723.463" cy="1449.6" r="8" fill="#D9D9D9"/>
<circle cx="788.463" cy="1449.6" r="8" fill="#D9D9D9"/>
<circle cx="1202.46" cy="1449.6" r="8" fill="#D9D9D9"/>
<circle cx="196.463" cy="1479.6" r="8" fill="#D9D9D9"/>
<circle cx="1319.46" cy="1479.6" r="8" fill="#D9D9D9"/>
<circle cx="130.463" cy="1487.6" r="8" fill="#D9D9D9"/>
<circle cx="674.463" cy="1495.6" r="8" fill="#D9D9D9"/>
<circle cx="555.463" cy="1523.6" r="8" fill="#D9D9D9"/>
<circle cx="1234.46" cy="1527.6" r="8" fill="#D9D9D9"/>
<circle cx="693.463" cy="1552.6" r="8" fill="#D9D9D9"/>
<circle cx="1133" cy="1557" r="8" fill="#D9D9D9"/>
<circle cx="257" cy="117" r="8" fill="#D9D9D9"/>
<circle cx="335" cy="70" r="8" fill="#D9D9D9"/>
<circle cx="422" cy="70" r="8" fill="#D9D9D9"/>
<circle cx="490" cy="314" r="8" fill="#D9D9D9"/>
<circle cx="805" cy="8" r="8" fill="#D9D9D9"/>
<circle cx="739" cy="8" r="8" fill="#D9D9D9"/>
<circle cx="205" cy="781" r="8" fill="#D9D9D9"/>
<circle cx="296" cy="932" r="8" fill="#D9D9D9"/>
<circle cx="218" cy="1165" r="8" fill="#D9D9D9"/>
<circle cx="785" cy="980" r="8" fill="#D9D9D9"/>
<circle cx="588" cy="1183" r="8" fill="#D9D9D9"/>
<circle cx="1251" cy="1229" r="8" fill="#D9D9D9"/>
<circle cx="1259" cy="594" r="8" fill="#D9D9D9"/>
<circle cx="856" cy="548" r="8" fill="#D9D9D9"/>
<circle cx="1144" cy="141" r="8" fill="#D9D9D9"/>
</svg>
