<svg width="103" height="96" viewBox="0 0 103 96" fill="none" xmlns="http://www.w3.org/2000/svg">
<path d="M15.0531 14.0738C25.0052 4.76439 37.0205 0.10968 51.099 0.10968C65.1776 0.10968 77.1929 4.76439 87.145 14.0738C97.097 23.3833 102.073 34.6227 102.073 47.7922V56.3069H43.817C43.817 56.5339 43.8777 56.8745 43.9991 57.3287C44.2418 57.7828 44.7273 58.5775 45.4555 59.7128C46.1837 60.7346 47.0333 61.6428 48.0042 62.4375C49.0965 63.2322 50.7349 63.9701 52.9195 64.6513C55.1041 65.3325 57.5315 65.6731 60.2015 65.6731C62.8716 65.6731 65.5417 65.1054 68.2118 63.9701C71.0032 62.8349 73.0664 61.6996 74.4015 60.5643L76.5861 58.8613L92.0603 81.8511C91.6962 82.1917 91.1501 82.7026 90.4219 83.3837C89.6937 83.9514 88.1159 85.0299 85.6886 86.6193C83.2612 88.2087 80.6518 89.6279 77.8604 90.8767C75.1903 92.012 71.6707 93.0337 67.3015 93.942C62.9323 94.9638 58.4417 95.4746 53.8298 95.4746C38.5376 95.4746 25.7334 90.8767 15.4172 81.6808C5.22241 72.3714 0.125 61.0751 0.125 47.7922C0.125 34.6227 5.10104 23.3833 15.0531 14.0738ZM42.9068 40.1289H59.2913C59.2913 36.8365 58.5024 34.3389 56.9246 32.6359C55.4682 30.8195 53.5264 29.9112 51.099 29.9112C48.6717 29.9112 46.6692 30.8195 45.0914 32.6359C43.635 34.3389 42.9068 36.8365 42.9068 40.1289Z" fill="white"/>
</svg>
