<svg width="101" height="95" viewBox="0 0 101 95" fill="none" xmlns="http://www.w3.org/2000/svg">
<path d="M15.3772 81.2086C5.5213 72.1547 0.531807 61.1621 0.408677 48.231C0.285547 35.2998 5.06487 24.2202 14.7467 14.9921C24.4284 5.76404 36.179 1.08844 49.9983 0.965282L58.9332 0.885651L59.4427 54.3939C59.681 54.3918 60.0378 54.3329 60.5133 54.2172C60.9877 53.99 61.8174 53.5366 63.0023 52.8572C64.0682 52.1787 65.0138 51.3899 65.8392 50.4907C66.6636 49.48 67.4236 47.9682 68.1193 45.9552C68.815 43.9423 69.1512 41.7096 69.1278 39.2571C69.1045 36.8047 68.4854 34.3575 67.2708 31.9157C66.055 29.3623 64.8457 27.4779 63.6427 26.2623L61.8366 24.2716L85.8255 9.84349C86.1861 10.1747 86.7269 10.6716 87.4481 11.3341C88.0501 11.9976 89.1957 13.4367 90.8848 15.6514C92.5738 17.866 94.0858 20.2495 95.4207 22.8017C96.6353 25.2436 97.7383 28.4668 98.7296 32.4714C99.84 36.475 100.415 40.5948 100.456 44.8309C100.589 58.8768 95.8766 70.6805 86.3171 80.2419C76.6374 89.6929 64.8284 94.4806 50.8899 94.6048C37.0706 94.7279 25.233 90.2626 15.3772 81.2086ZM42.4744 55.3813L42.3311 40.3321C38.8762 40.3629 36.2622 41.1109 34.489 42.576C32.5957 43.9307 31.6596 45.7227 31.6808 47.9523C31.7021 50.1818 32.6726 52.0126 34.5925 53.4448C36.3923 54.7666 39.0195 55.4121 42.4744 55.3813Z" fill="white"/>
</svg>
