<svg width="2398" height="2150" viewBox="0 0 2398 2150" fill="none" xmlns="http://www.w3.org/2000/svg">
<path opacity="0.8" d="M1138.85 1450.07C1138.85 1503.63 1083.07 1494.23 1028.86 1494.23C974.658 1494.23 852.04 1514.84 852.04 1461.28C852.04 1407.72 902.142 1347.63 953.026 1377.37C984.731 1267.99 1138.85 1396.51 1138.85 1450.07Z" fill="white"/>
<path d="M1673.86 1452.14V1459.99" stroke="white" stroke-width="3" stroke-linecap="round"/>
<path d="M1409.43 1473.35C1409.43 1475.97 1409.43 1475.97 1409.43 1473.35" stroke="white" stroke-width="3" stroke-linecap="round"/>
<path d="M1525.18 1517.14C1524.46 1522.91 1522.52 1520.1 1521.04 1517.14" stroke="white" stroke-width="3" stroke-linecap="round"/>
<path d="M841.04 1535.14H843.04" stroke="white" stroke-width="3" stroke-linecap="round"/>
<path d="M1301.04 1605.54V1609.65" stroke="white" stroke-width="3" stroke-linecap="round"/>
<path d="M1032.35 1619.8C1037.86 1619.83 1035.66 1619.77 1035.85 1622.9" stroke="white" stroke-width="3" stroke-linecap="round"/>
<path d="M1479.04 1643.14V1647.25" stroke="white" stroke-width="3" stroke-linecap="round"/>
<path d="M1082.12 516.713L1084.1 516.39" stroke="white" stroke-width="3" stroke-linecap="round"/>
<line y1="-1.5" x2="1042.03" y2="-1.5" transform="matrix(0.807518 0.589842 -0.606355 0.795194 1125.12 287.987)" stroke="white" stroke-width="3"/>
<line y1="-1.5" x2="12.6271" y2="-1.5" transform="matrix(-0.608051 0.793898 -0.806255 -0.591568 1357.76 258.808)" stroke="#EF592A" stroke-width="3"/>
<line y1="-1.5" x2="12.6271" y2="-1.5" transform="matrix(-0.608051 0.793898 -0.806255 -0.591568 1367.24 246.426)" stroke="#EF592A" stroke-width="3"/>
<line y1="-1.5" x2="12.6271" y2="-1.5" transform="matrix(-0.608051 0.793898 -0.806255 -0.591568 1376.72 234.043)" stroke="#EF592A" stroke-width="3"/>
<line y1="-1.5" x2="12.6271" y2="-1.5" transform="matrix(-0.608051 0.793898 -0.806255 -0.591568 1386.21 221.659)" stroke="#EF592A" stroke-width="3"/>
<line y1="-1.5" x2="12.6271" y2="-1.5" transform="matrix(-0.608051 0.793898 -0.806255 -0.591568 1346.92 272.962)" stroke="#EF592A" stroke-width="3"/>
<line y1="-1.5" x2="12.6271" y2="-1.5" transform="matrix(-0.608051 0.793898 -0.806255 -0.591568 1327.5 298.317)" stroke="#EF592A" stroke-width="3"/>
<line y1="-1.5" x2="12.6271" y2="-1.5" transform="matrix(-0.608051 0.793898 -0.806255 -0.591568 1337.43 285.345)" stroke="#EF592A" stroke-width="3"/>
<line y1="-1.5" x2="12.6271" y2="-1.5" transform="matrix(-0.608051 0.793898 -0.806255 -0.591568 1317.56 311.29)" stroke="#EF592A" stroke-width="3"/>
<line y1="-1.5" x2="12.6271" y2="-1.5" transform="matrix(-0.608051 0.793898 -0.806255 -0.591568 1307.62 324.264)" stroke="#EF592A" stroke-width="3"/>
<line y1="-1.5" x2="12.6271" y2="-1.5" transform="matrix(-0.608051 0.793898 -0.806255 -0.591568 1297.69 337.236)" stroke="#EF592A" stroke-width="3"/>
<line y1="-1.5" x2="12.6271" y2="-1.5" transform="matrix(-0.608051 0.793898 -0.806255 -0.591568 1287.3 350.8)" stroke="#EF592A" stroke-width="3"/>
<line y1="-1.5" x2="12.6271" y2="-1.5" transform="matrix(-0.608051 0.793898 -0.806255 -0.591568 1277.36 363.772)" stroke="#EF592A" stroke-width="3"/>
<line y1="-1.5" x2="12.6271" y2="-1.5" transform="matrix(-0.608051 0.793898 -0.806255 -0.591568 1386.21 221.659)" stroke="#EF592A" stroke-width="3"/>
<line y1="-1.5" x2="12.6271" y2="-1.5" transform="matrix(-0.608051 0.793898 -0.806255 -0.591568 1346.92 272.962)" stroke="#EF592A" stroke-width="3"/>
<line y1="-1.5" x2="12.6271" y2="-1.5" transform="matrix(-0.608051 0.793898 -0.806255 -0.591568 1327.5 298.317)" stroke="#EF592A" stroke-width="3"/>
<line y1="-1.5" x2="12.6271" y2="-1.5" transform="matrix(-0.608051 0.793898 -0.806255 -0.591568 1337.43 285.345)" stroke="#EF592A" stroke-width="3"/>
<line y1="-1.5" x2="12.6271" y2="-1.5" transform="matrix(-0.608051 0.793898 -0.806255 -0.591568 1317.56 311.29)" stroke="#EF592A" stroke-width="3"/>
<line y1="-1.5" x2="12.6271" y2="-1.5" transform="matrix(-0.608051 0.793898 -0.806255 -0.591568 1297.69 337.236)" stroke="#EF592A" stroke-width="3"/>
<line y1="-1.5" x2="12.6271" y2="-1.5" transform="matrix(-0.608051 0.793898 -0.806255 -0.591568 1287.3 350.8)" stroke="#EF592A" stroke-width="3"/>
<line y1="-1.5" x2="12.6271" y2="-1.5" transform="matrix(-0.608051 0.793898 -0.806255 -0.591568 1277.36 363.772)" stroke="#EF592A" stroke-width="3"/>
<line y1="-1.5" x2="12.6271" y2="-1.5" transform="matrix(-0.608051 0.793898 -0.806255 -0.591568 1495.74 339.789)" stroke="#EF592A" stroke-width="3"/>
<line y1="-1.5" x2="12.6271" y2="-1.5" transform="matrix(-0.608051 0.793898 -0.806255 -0.591568 1505.23 327.405)" stroke="#EF592A" stroke-width="3"/>
<line y1="-1.5" x2="12.6271" y2="-1.5" transform="matrix(-0.608051 0.793898 -0.806255 -0.591568 1514.71 315.021)" stroke="#EF592A" stroke-width="3"/>
<line y1="-1.5" x2="12.6271" y2="-1.5" transform="matrix(-0.608051 0.793898 -0.806255 -0.591568 1475.42 366.324)" stroke="#EF592A" stroke-width="3"/>
<line y1="-1.5" x2="12.6271" y2="-1.5" transform="matrix(-0.608051 0.793898 -0.806255 -0.591568 1456 391.681)" stroke="#EF592A" stroke-width="3"/>
<line y1="-1.5" x2="12.6271" y2="-1.5" transform="matrix(-0.608051 0.793898 -0.806255 -0.591568 1465.93 378.708)" stroke="#EF592A" stroke-width="3"/>
<line y1="-1.5" x2="12.6271" y2="-1.5" transform="matrix(-0.608051 0.793898 -0.806255 -0.591568 1446.06 404.653)" stroke="#EF592A" stroke-width="3"/>
<line y1="-1.5" x2="12.6271" y2="-1.5" transform="matrix(-0.608051 0.793898 -0.806255 -0.591568 1426.19 430.599)" stroke="#EF592A" stroke-width="3"/>
<line y1="-1.5" x2="12.6271" y2="-1.5" transform="matrix(-0.608051 0.793898 -0.806255 -0.591568 1415.8 444.162)" stroke="#EF592A" stroke-width="3"/>
<line y1="-1.5" x2="12.6271" y2="-1.5" transform="matrix(-0.608051 0.793898 -0.806255 -0.591568 1405.86 457.136)" stroke="#EF592A" stroke-width="3"/>
<path d="M1397.59 470.405L1389.4 481.088" stroke="#EF592A" stroke-width="3"/>
<line y1="-1.5" x2="1042.03" y2="-1.5" transform="matrix(0.807518 0.589842 -0.606355 0.795194 1213.49 171.382)" stroke="white" stroke-width="3"/>
<line y1="-1.5" x2="12.6271" y2="-1.5" transform="matrix(-0.608051 0.793898 0.806255 0.591568 1499.42 361.83)" stroke="#EF592A" stroke-width="3"/>
<line y1="-1.5" x2="12.6271" y2="-1.5" transform="matrix(-0.608051 0.793898 0.806255 0.591568 1508.91 349.447)" stroke="#EF592A" stroke-width="3"/>
<line y1="-1.5" x2="12.6271" y2="-1.5" transform="matrix(-0.608051 0.793898 0.806255 0.591568 1518.39 337.063)" stroke="#EF592A" stroke-width="3"/>
<line y1="-1.5" x2="12.6271" y2="-1.5" transform="matrix(-0.608051 0.793898 0.806255 0.591568 1527.87 324.681)" stroke="#EF592A" stroke-width="3"/>
<line y1="-1.5" x2="12.6271" y2="-1.5" transform="matrix(-0.608051 0.793898 0.806255 0.591568 1488.58 375.983)" stroke="#EF592A" stroke-width="3"/>
<line y1="-1.5" x2="12.6271" y2="-1.5" transform="matrix(-0.608051 0.793898 0.806255 0.591568 1469.16 401.339)" stroke="#EF592A" stroke-width="3"/>
<line y1="-1.5" x2="12.6271" y2="-1.5" transform="matrix(-0.608051 0.793898 0.806255 0.591568 1479.1 388.366)" stroke="#EF592A" stroke-width="3"/>
<line y1="-1.5" x2="12.6271" y2="-1.5" transform="matrix(-0.608051 0.793898 0.806255 0.591568 1459.22 414.312)" stroke="#EF592A" stroke-width="3"/>
<line y1="-1.5" x2="12.6271" y2="-1.5" transform="matrix(-0.608051 0.793898 0.806255 0.591568 1439.35 440.258)" stroke="#EF592A" stroke-width="3"/>
<line y1="-1.5" x2="12.6271" y2="-1.5" transform="matrix(-0.608051 0.793898 0.806255 0.591568 1428.96 453.821)" stroke="#EF592A" stroke-width="3"/>
<line y1="-1.5" x2="12.6271" y2="-1.5" transform="matrix(-0.608051 0.793898 0.806255 0.591568 1419.03 466.794)" stroke="#EF592A" stroke-width="3"/>
<path d="M1408.4 478.437L1400.4 489.421" stroke="#EF592A" stroke-width="3"/>
<line y1="-1.5" x2="12.6271" y2="-1.5" transform="matrix(-0.608051 0.793898 -0.806255 -0.591568 1604.13 438.662)" stroke="#EF592A" stroke-width="3"/>
<line y1="-1.5" x2="12.6271" y2="-1.5" transform="matrix(-0.608051 0.793898 -0.806255 -0.591568 1613.62 426.278)" stroke="#EF592A" stroke-width="3"/>
<line y1="-1.5" x2="12.6271" y2="-1.5" transform="matrix(-0.608051 0.793898 -0.806255 -0.591568 1623.1 413.894)" stroke="#EF592A" stroke-width="3"/>
<line y1="-1.5" x2="12.6271" y2="-1.5" transform="matrix(-0.608051 0.793898 -0.806255 -0.591568 1632.59 401.511)" stroke="#EF592A" stroke-width="3"/>
<line y1="-1.5" x2="12.6271" y2="-1.5" transform="matrix(-0.608051 0.793898 -0.806255 -0.591568 1593.29 452.813)" stroke="#EF592A" stroke-width="3"/>
<line y1="-1.5" x2="12.6271" y2="-1.5" transform="matrix(-0.608051 0.793898 -0.806255 -0.591568 1573.87 478.17)" stroke="#EF592A" stroke-width="3"/>
<line y1="-1.5" x2="12.6271" y2="-1.5" transform="matrix(-0.608051 0.793898 -0.806255 -0.591568 1583.81 465.196)" stroke="#EF592A" stroke-width="3"/>
<line y1="-1.5" x2="12.6271" y2="-1.5" transform="matrix(-0.608051 0.793898 -0.806255 -0.591568 1563.94 491.142)" stroke="#EF592A" stroke-width="3"/>
<line y1="-1.5" x2="12.6271" y2="-1.5" transform="matrix(-0.608051 0.793898 -0.806255 -0.591568 1554 504.115)" stroke="#EF592A" stroke-width="3"/>
<line y1="-1.5" x2="12.6271" y2="-1.5" transform="matrix(-0.608051 0.793898 -0.806255 -0.591568 1544.07 517.089)" stroke="#EF592A" stroke-width="3"/>
<line y1="-1.5" x2="12.6271" y2="-1.5" transform="matrix(-0.608051 0.793898 -0.806255 -0.591568 1533.68 530.652)" stroke="#EF592A" stroke-width="3"/>
<line y1="-1.5" x2="12.6271" y2="-1.5" transform="matrix(-0.608051 0.793898 -0.806255 -0.591568 1523.74 543.625)" stroke="#EF592A" stroke-width="3"/>
<path d="M1515.47 556.895L1507.36 567.156" stroke="#EF592A" stroke-width="3"/>
<line y1="-1.5" x2="12.6271" y2="-1.5" transform="matrix(-0.608051 0.793898 -0.806255 -0.591568 1606.46 462.472)" stroke="#EF592A" stroke-width="3"/>
<line y1="-1.5" x2="12.6271" y2="-1.5" transform="matrix(-0.608051 0.793898 -0.806255 -0.591568 1587.04 487.828)" stroke="#EF592A" stroke-width="3"/>
<line y1="-1.5" x2="12.6271" y2="-1.5" transform="matrix(-0.608051 0.793898 -0.806255 -0.591568 1596.97 474.855)" stroke="#EF592A" stroke-width="3"/>
<line y1="-1.5" x2="12.6271" y2="-1.5" transform="matrix(-0.608051 0.793898 -0.806255 -0.591568 1577.1 500.802)" stroke="#EF592A" stroke-width="3"/>
<line y1="-1.5" x2="12.6271" y2="-1.5" transform="matrix(-0.608051 0.793898 -0.806255 -0.591568 1567.17 513.774)" stroke="#EF592A" stroke-width="3"/>
<line y1="-1.5" x2="12.6271" y2="-1.5" transform="matrix(-0.608051 0.793898 -0.806255 -0.591568 1557.23 526.748)" stroke="#EF592A" stroke-width="3"/>
<line y1="-1.5" x2="12.6271" y2="-1.5" transform="matrix(-0.608051 0.793898 -0.806255 -0.591568 1546.84 540.309)" stroke="#EF592A" stroke-width="3"/>
<line y1="-1.5" x2="12.6271" y2="-1.5" transform="matrix(-0.608051 0.793898 -0.806255 -0.591568 1536.91 553.283)" stroke="#EF592A" stroke-width="3"/>
<line y1="-1.5" x2="12.6271" y2="-1.5" transform="matrix(-0.608051 0.793898 0.806255 0.591568 1763.68 576.908)" stroke="#EF592A" stroke-width="3"/>
<line y1="-1.5" x2="12.6271" y2="-1.5" transform="matrix(-0.608051 0.793898 0.806255 0.591568 1743.81 602.854)" stroke="#EF592A" stroke-width="3"/>
<line y1="-1.5" x2="12.6271" y2="-1.5" transform="matrix(-0.608051 0.793898 0.806255 0.591568 1753.75 589.882)" stroke="#EF592A" stroke-width="3"/>
<line y1="-1.5" x2="12.6271" y2="-1.5" transform="matrix(-0.608051 0.793898 0.806255 0.591568 1733.87 615.827)" stroke="#EF592A" stroke-width="3"/>
<line y1="-1.5" x2="12.6271" y2="-1.5" transform="matrix(-0.608051 0.793898 0.806255 0.591568 1723.94 628.802)" stroke="#EF592A" stroke-width="3"/>
<line y1="-1.5" x2="12.6271" y2="-1.5" transform="matrix(-0.608051 0.793898 0.806255 0.591568 1714 641.774)" stroke="#EF592A" stroke-width="3"/>
<line y1="-1.5" x2="12.6271" y2="-1.5" transform="matrix(-0.608051 0.793898 0.806255 0.591568 1704.06 654.747)" stroke="#EF592A" stroke-width="3"/>
<line y1="-1.5" x2="12.6271" y2="-1.5" transform="matrix(-0.608051 0.793898 0.806255 0.591568 1694.13 667.719)" stroke="#EF592A" stroke-width="3"/>
<line y1="-1.5" x2="12.6271" y2="-1.5" transform="matrix(-0.608051 0.793898 0.806255 0.591568 1684.19 680.692)" stroke="#EF592A" stroke-width="3"/>
<line y1="-1.5" x2="12.6271" y2="-1.5" transform="matrix(-0.608051 0.793898 0.806255 0.591568 1916.33 666.806)" stroke="#EF592A" stroke-width="3"/>
<line y1="-1.5" x2="12.6271" y2="-1.5" transform="matrix(-0.608051 0.793898 0.806255 0.591568 1925.82 654.423)" stroke="#EF592A" stroke-width="3"/>
<line y1="-1.5" x2="12.6271" y2="-1.5" transform="matrix(-0.608051 0.793898 0.806255 0.591568 1935.3 642.04)" stroke="#EF592A" stroke-width="3"/>
<line y1="-1.5" x2="12.6271" y2="-1.5" transform="matrix(-0.608051 0.793898 0.806255 0.591568 1944.79 629.657)" stroke="#EF592A" stroke-width="3"/>
<line y1="-1.5" x2="12.6271" y2="-1.5" transform="matrix(-0.608051 0.793898 0.806255 0.591568 1905.49 680.959)" stroke="#EF592A" stroke-width="3"/>
<line y1="-1.5" x2="12.6271" y2="-1.5" transform="matrix(-0.608051 0.793898 0.806255 0.591568 1886.07 706.315)" stroke="#EF592A" stroke-width="3"/>
<line y1="-1.5" x2="12.6271" y2="-1.5" transform="matrix(-0.608051 0.793898 0.806255 0.591568 1896.01 693.343)" stroke="#EF592A" stroke-width="3"/>
<line y1="-1.5" x2="12.6271" y2="-1.5" transform="matrix(-0.608051 0.793898 0.806255 0.591568 1866.2 732.263)" stroke="#EF592A" stroke-width="3"/>
<line y1="-1.5" x2="12.6271" y2="-1.5" transform="matrix(-0.608051 0.793898 0.806255 0.591568 1845.88 758.797)" stroke="#EF592A" stroke-width="3"/>
<line y1="-1.5" x2="12.6271" y2="-1.5" transform="matrix(-0.608051 0.793898 0.806255 0.591568 1835.94 771.77)" stroke="#EF592A" stroke-width="3"/>
<line y1="-1.5" x2="12.6271" y2="-1.5" transform="matrix(-0.608051 0.793898 0.806255 0.591568 1826.46 784.153)" stroke="#EF592A" stroke-width="3"/>
<line y1="-1.5" x2="12.6271" y2="-1.5" transform="matrix(-0.608051 0.793898 -0.806255 -0.591568 1929.5 676.466)" stroke="#EF592A" stroke-width="3"/>
<line y1="-1.5" x2="12.6271" y2="-1.5" transform="matrix(-0.608051 0.793898 -0.806255 -0.591568 1938.98 664.081)" stroke="#EF592A" stroke-width="3"/>
<line y1="-1.5" x2="12.6271" y2="-1.5" transform="matrix(-0.608051 0.793898 -0.806255 -0.591568 1948.46 651.698)" stroke="#EF592A" stroke-width="3"/>
<line y1="-1.5" x2="12.6271" y2="-1.5" transform="matrix(-0.608051 0.793898 -0.806255 -0.591568 1957.95 639.315)" stroke="#EF592A" stroke-width="3"/>
<line y1="-1.5" x2="12.6271" y2="-1.5" transform="matrix(-0.608051 0.793898 -0.806255 -0.591568 1918.66 690.618)" stroke="#EF592A" stroke-width="3"/>
<line y1="-1.5" x2="12.6271" y2="-1.5" transform="matrix(-0.608051 0.793898 -0.806255 -0.591568 1899.24 715.974)" stroke="#EF592A" stroke-width="3"/>
<line y1="-1.5" x2="12.6271" y2="-1.5" transform="matrix(-0.608051 0.793898 -0.806255 -0.591568 1909.17 703.001)" stroke="#EF592A" stroke-width="3"/>
<line y1="-1.5" x2="12.6271" y2="-1.5" transform="matrix(-0.608051 0.793898 -0.806255 -0.591568 1859.04 768.456)" stroke="#EF592A" stroke-width="3"/>
<line y1="-1.5" x2="12.6271" y2="-1.5" transform="matrix(-0.608051 0.793898 -0.806255 -0.591568 1849.1 781.429)" stroke="#EF592A" stroke-width="3"/>
<line y1="-1.5" x2="12.6271" y2="-1.5" transform="matrix(-0.608051 0.793898 -0.806255 -0.591568 1839.62 793.811)" stroke="#EF592A" stroke-width="3"/>
<line y1="-1.5" x2="12.6271" y2="-1.5" transform="matrix(-0.608051 0.793898 -0.806255 -0.591568 2034.21 753.296)" stroke="#EF592A" stroke-width="3"/>
<line y1="-1.5" x2="12.6271" y2="-1.5" transform="matrix(-0.608051 0.793898 -0.806255 -0.591568 2043.69 740.913)" stroke="#EF592A" stroke-width="3"/>
<line y1="-1.5" x2="12.6271" y2="-1.5" transform="matrix(-0.608051 0.793898 -0.806255 -0.591568 2053.18 728.53)" stroke="#EF592A" stroke-width="3"/>
<line y1="-1.5" x2="12.6271" y2="-1.5" transform="matrix(-0.608051 0.793898 -0.806255 -0.591568 2062.66 716.146)" stroke="#EF592A" stroke-width="3"/>
<line y1="-1.5" x2="12.6271" y2="-1.5" transform="matrix(-0.608051 0.793898 -0.806255 -0.591568 2023.37 767.449)" stroke="#EF592A" stroke-width="3"/>
<line y1="-1.5" x2="12.6271" y2="-1.5" transform="matrix(-0.608051 0.793898 -0.806255 -0.591568 2003.95 792.805)" stroke="#EF592A" stroke-width="3"/>
<line y1="-1.5" x2="12.6271" y2="-1.5" transform="matrix(-0.608051 0.793898 -0.806255 -0.591568 2013.89 779.832)" stroke="#EF592A" stroke-width="3"/>
<line y1="-1.5" x2="12.6271" y2="-1.5" transform="matrix(-0.608051 0.793898 -0.806255 -0.591568 1994.01 805.778)" stroke="#EF592A" stroke-width="3"/>
<line y1="-1.5" x2="12.6271" y2="-1.5" transform="matrix(-0.608051 0.793898 -0.806255 -0.591568 1984.08 818.751)" stroke="#EF592A" stroke-width="3"/>
<line y1="-1.5" x2="12.6271" y2="-1.5" transform="matrix(-0.608051 0.793898 -0.806255 -0.591568 1974.14 831.722)" stroke="#EF592A" stroke-width="3"/>
<line y1="-1.5" x2="12.6271" y2="-1.5" transform="matrix(-0.608051 0.793898 -0.806255 -0.591568 1963.75 845.286)" stroke="#EF592A" stroke-width="3"/>
<line y1="-1.5" x2="12.6271" y2="-1.5" transform="matrix(-0.608051 0.793898 -0.806255 -0.591568 1953.82 858.26)" stroke="#EF592A" stroke-width="3"/>
<line y1="-1.5" x2="12.6271" y2="-1.5" transform="matrix(-0.608051 0.793898 -0.806255 -0.591568 1944.33 870.642)" stroke="#EF592A" stroke-width="3"/>
<line y1="-1.5" x2="12.6271" y2="-1.5" transform="matrix(-0.608051 0.793898 0.806255 0.591568 1790.68 574.61)" stroke="#EF592A" stroke-width="3"/>
<line y1="-1.5" x2="12.6271" y2="-1.5" transform="matrix(-0.608051 0.793898 0.806255 0.591568 1800.16 562.226)" stroke="#EF592A" stroke-width="3"/>
<line y1="-1.5" x2="12.6271" y2="-1.5" transform="matrix(-0.608051 0.793898 0.806255 0.591568 1809.65 549.844)" stroke="#EF592A" stroke-width="3"/>
<line y1="-1.5" x2="12.6271" y2="-1.5" transform="matrix(-0.608051 0.793898 0.806255 0.591568 1819.13 537.461)" stroke="#EF592A" stroke-width="3"/>
<line y1="-1.5" x2="12.6271" y2="-1.5" transform="matrix(-0.608051 0.793898 0.806255 0.591568 1779.84 588.763)" stroke="#EF592A" stroke-width="3"/>
<line y1="-1.5" x2="12.6271" y2="-1.5" transform="matrix(-0.608051 0.793898 0.806255 0.591568 1760.42 614.119)" stroke="#EF592A" stroke-width="3"/>
<line y1="-1.5" x2="12.6271" y2="-1.5" transform="matrix(-0.608051 0.793898 0.806255 0.591568 1770.35 601.146)" stroke="#EF592A" stroke-width="3"/>
<line y1="-1.5" x2="12.6271" y2="-1.5" transform="matrix(-0.608051 0.793898 0.806255 0.591568 1750.48 627.091)" stroke="#EF592A" stroke-width="3"/>
<line y1="-1.5" x2="12.6271" y2="-1.5" transform="matrix(-0.608051 0.793898 0.806255 0.591568 1740.54 640.064)" stroke="#EF592A" stroke-width="3"/>
<line y1="-1.5" x2="12.6271" y2="-1.5" transform="matrix(-0.608051 0.793898 0.806255 0.591568 1730.61 653.037)" stroke="#EF592A" stroke-width="3"/>
<line y1="-1.5" x2="12.6271" y2="-1.5" transform="matrix(-0.608051 0.793898 0.806255 0.591568 1720.22 666.601)" stroke="#EF592A" stroke-width="3"/>
<line y1="-1.5" x2="12.6271" y2="-1.5" transform="matrix(-0.608051 0.793898 0.806255 0.591568 1710.28 679.573)" stroke="#EF592A" stroke-width="3"/>
<line y1="-1.5" x2="12.6271" y2="-1.5" transform="matrix(-0.608051 0.793898 0.806255 0.591568 1700.8 691.957)" stroke="#EF592A" stroke-width="3"/>
<path d="M1492.11 346.27C1492.94 346.152 1493.52 345.398 1493.4 344.586L1491.51 331.361C1491.39 330.549 1490.63 329.987 1489.8 330.106C1488.97 330.224 1488.39 330.978 1488.51 331.79L1490.19 343.546L1478.19 345.263C1477.36 345.381 1476.79 346.135 1476.9 346.947C1477.02 347.758 1477.78 348.32 1478.61 348.202L1492.11 346.27ZM1363.54 252.477L1490.99 345.992L1492.81 343.61L1365.36 250.095L1363.54 252.477Z" fill="#EF592A"/>
<path d="M1368.05 251.521C1367.23 251.64 1366.67 252.401 1366.78 253.221L1368.72 266.581C1368.84 267.401 1369.6 267.969 1370.42 267.85C1371.24 267.731 1371.81 266.97 1371.69 266.15L1369.97 254.274L1381.84 252.55C1382.66 252.431 1383.23 251.67 1383.11 250.85C1382.99 250.03 1382.23 249.462 1381.41 249.581L1368.05 251.521ZM1490.78 342.581L1369.17 251.803L1367.37 254.207L1488.99 344.985L1490.78 342.581Z" fill="#EF592A"/>
<path d="M2037.55 749.462C2038.37 749.343 2038.95 748.589 2038.84 747.778L2036.94 734.552C2036.83 733.74 2036.06 733.179 2035.23 733.297C2034.41 733.416 2033.83 734.17 2033.94 734.981L2035.63 746.737L2023.63 748.454C2022.8 748.573 2022.22 749.327 2022.34 750.138C2022.45 750.95 2023.22 751.512 2024.05 751.393L2037.55 749.462ZM1932.91 673.23L2036.42 749.183L2038.25 746.801L1934.73 670.848L1932.91 673.23Z" fill="#EF592A"/>
<path d="M1933.5 670.716C1932.67 670.835 1932.09 671.589 1932.21 672.401L1934.1 685.626C1934.21 686.438 1934.98 687 1935.81 686.881C1936.64 686.762 1937.21 686.008 1937.1 685.197L1935.42 673.441L1947.42 671.724C1948.25 671.605 1948.82 670.851 1948.71 670.04C1948.59 669.228 1947.83 668.666 1947 668.785L1933.5 670.716ZM2039.33 747.826L1934.62 670.995L1932.79 673.377L2037.51 750.207L2039.33 747.826Z" fill="#EF592A"/>
<path d="M2047.24 779.23C2047.12 778.418 2046.36 777.857 2045.53 777.975L2032.03 779.906C2031.2 780.025 2030.62 780.779 2030.74 781.591C2030.86 782.402 2031.62 782.964 2032.45 782.846L2044.45 781.129L2046.13 792.885C2046.25 793.696 2047.01 794.258 2047.84 794.14C2048.67 794.021 2049.25 793.267 2049.13 792.456L2047.24 779.23ZM1958.88 895.32L2046.95 780.332L2044.53 778.557L1956.46 893.545L1958.88 895.32Z" fill="#EF592A"/>
<path d="M1957.13 894.309C1957.24 895.121 1958.01 895.683 1958.84 895.564L1972.34 893.633C1973.17 893.514 1973.74 892.76 1973.63 891.948C1973.51 891.137 1972.75 890.575 1971.92 890.694L1959.92 892.41L1958.24 880.654C1958.12 879.843 1957.35 879.281 1956.53 879.399C1955.7 879.518 1955.12 880.272 1955.24 881.084L1957.13 894.309ZM2036.46 790.013L1957.42 893.207L1959.84 894.982L2038.87 791.788L2036.46 790.013Z" fill="#EF592A"/>
<path fill-rule="evenodd" clip-rule="evenodd" d="M664.928 55.5511L917.726 1617.23C917.726 1617.23 2088.94 1488.57 2195.66 1408.34C2270.86 1378.98 2193.63 1339 2208.48 1328.77C2261.84 1292.01 2238.91 1260.02 2215.66 1254.45C2192.42 1248.87 2256.08 1224.46 2232.49 1191.41C2208.9 1158.37 2227.03 1139.26 2210.26 1125.88C2195.91 1114.43 2192.9 1131.94 2182.39 1117.21C2174.98 1106.83 2167.5 1110.76 2163.43 1110.49C2147.16 1109.38 2160.52 1092.48 2139.35 1097.31C2130.84 1099.25 2134.97 1113.53 2134.97 1113.53C2134.97 1113.53 2154.75 1117.35 2151.76 1122.33C2139.42 1142.89 2135.54 1116.74 2125 1116.92C2117.88 1117.04 2118.9 1117.94 2107.19 1119.9C2095.66 1121.83 2110.95 1131.74 2077.64 1137.32C2058.18 1140.57 2072.24 1104.31 2041.46 1109.1C2015.19 1113.19 2008.25 1120.97 2002.9 1115.41C1986.49 1098.35 1938.19 1128.39 1933.42 1127.04C1909.18 1120.17 1889.4 1052.25 1863.31 1045.43C1844.55 1040.53 1857.52 1083.82 1838.84 1086.95C1767.54 1098.88 1806.39 1050.23 1771.13 1044.08C1753.85 1041.07 1757.27 997.623 1744.87 985.246C1736.68 977.063 1729.79 961.152 1710.18 963.093C1672.43 966.829 1670.9 962.354 1640.25 933.071C1631.15 924.372 1665.55 914.643 1639.73 890.576C1609.21 862.143 1633.41 864.534 1609.8 834.935C1599.99 822.649 1625.65 792.097 1617.02 779.099C1603.91 759.356 1647.01 747.368 1647.13 731.046C1647.53 677.213 1671.42 699.447 1677.64 689.224C1703.99 645.906 1649.94 655.714 1640.01 654.347C1625.17 652.304 1612.03 663.549 1614.96 677.703C1621.68 710.243 1600.73 712.91 1568.96 704.986C1553.59 701.152 1540.28 691.615 1538.04 678.76C1536.4 669.312 1557.42 674.359 1604.91 653.508C1652.41 632.657 1602.93 604.636 1578.62 619.814C1554.31 634.992 1554.08 633.447 1542.25 632.863C1526.15 632.068 1556.23 615.351 1560.67 602.994C1565.11 590.638 1530.82 567.185 1520.82 573.567C1486.58 595.407 1410.79 578.164 1396.85 560.013C1384.37 551.678 1378.25 545.158 1365.77 536.823C1329.72 535.544 1358.96 566.352 1327.68 564.275C1296.4 562.197 1306.18 549.808 1299.57 543.602C1292.96 537.395 1294.65 523.347 1281.84 525.49C1269.04 527.634 1280.02 533.968 1263.49 528.562C1246.95 523.157 1260.88 517.815 1240.35 495.443C1219.82 473.07 1196.04 497.695 1192.11 472.115C1188.18 446.534 1224.08 444.828 1210.35 437.663C1199.08 422.343 1181.22 436.945 1174.19 420.486C1157.56 403.483 1156.87 420.735 1143.02 425.702C1132.44 429.497 1136.53 445.475 1125.81 451.81C1111.4 460.32 1096.33 458.501 1081.23 449.376C1053.4 432.564 1117.83 390.237 1090.92 372.052C1074.28 360.814 1054.94 375.102 1040.16 369.791C1024.24 364.069 1031.01 345.11 1014.44 346.138C1003.56 346.813 1005.43 342.483 987.109 350.711C968.788 358.939 968.361 392.99 946.165 368.746C923.968 344.502 953.237 358.099 955.57 345.235C957.903 332.371 925.185 332.254 930.93 305.915C936.675 279.575 878.529 314.683 867.693 291.979C850.02 254.95 881.939 279.272 885.215 259.798C887.324 247.257 883.888 237.793 870.688 234.7C856.414 231.355 862.798 237.709 848.369 238.435C838.838 238.914 845.805 260.877 835.143 268.177C813.64 282.899 799.705 222.637 795.546 211.143C788.713 192.261 803.48 183.504 791.1 167.153C776.523 147.9 664.928 55.5511 664.928 55.5511Z" fill="white"/>
<path fill-rule="evenodd" clip-rule="evenodd" d="M660.623 125.158L805.226 1550.23L2149.98 1359.2C2149.98 1359.2 2181.25 1232.42 2119.51 1173.1C2110.29 1164.24 2096.21 1156.67 2087.5 1164.04C2078.78 1171.41 2083.79 1181.12 2072.91 1176.48C2062.03 1171.84 2084.05 1165.08 2069.45 1152.69C2056.95 1142.09 2052.62 1159.53 2044.01 1145.49C2037.95 1135.6 2030.58 1139.85 2026.78 1139.78C2011.59 1139.48 2025.59 1122.14 2005.3 1127.94C1997.14 1130.28 1999.78 1144.17 1999.78 1144.17C1999.78 1144.17 2018.04 1146.98 2014.8 1152.04C2001.45 1172.95 2000.05 1147.31 1990.13 1148.01C1983.43 1148.47 1984.31 1149.31 1973.14 1151.82C1962.15 1154.29 1975.66 1163.33 1943.9 1170.46C1925.34 1174.63 1918.5 1123.18 1907.27 1139.12C1891.59 1161.39 1875.64 1113.52 1871.09 1108.3C1857.14 1092.25 1818.21 1165.91 1809.32 1167.37C1786.66 1171.08 1774.38 1095.66 1750.46 1090.2C1733.27 1086.28 1741.73 1128.4 1723.92 1132.4C1655.92 1147.67 1696.59 1097.72 1664 1093.38C1648.03 1091.25 1654.97 1048.17 1644.38 1036.56C1637.39 1028.88 1632.29 1013.5 1613.7 1016.38C1577.92 1021.91 1576.87 1017.57 1550.6 990.148C1542.79 982.003 1575.94 970.714 1553.75 948.209C1527.53 921.623 1550.05 922.801 1530.41 894.726C1522.26 883.073 1548.98 851.648 1541.99 839.234C1531.37 820.378 1572.88 806.433 1574.4 790.309C1579.39 737.128 1577.73 725.026 1567.68 721.015C1559.25 717.648 1571 704.463 1561.79 703.598C1548.02 702.306 1554.1 694.341 1540.19 696.785C1533.64 697.938 1532.37 774.667 1503.21 768.395C1489.1 765.36 1477.41 756.592 1476.42 744.006C1475.69 734.757 1458.29 712.676 1504.69 689.764C1551.09 666.851 1513.89 637.376 1489.75 653.552C1465.62 669.729 1439.89 700.132 1428.83 700.133C1413.78 700.136 1451.06 660.576 1456.29 648.157C1461.51 635.738 1428.02 637.287 1423.04 622.72C1416.24 602.834 1365.53 650.887 1353.99 633.643C1342.98 626.022 1337.8 619.883 1326.79 612.262C1293.04 612.761 1317.86 641.755 1288.66 641.232C1259.45 640.71 1269.7 627.997 1264.02 622.192C1258.35 616.386 1261.15 602.43 1248.93 605.172C1236.72 607.915 1246.49 613.633 1231.42 609.104C1216.35 604.574 1229.9 598.618 1212.53 577.528C1195.17 556.438 1170.72 581.918 1169.23 556.849C1167.73 531.78 1201.6 528.341 1189.31 521.937C1180.04 507.359 1162.02 522.651 1156.83 506.741C1142.66 490.763 1140.53 507.834 1127.1 513.415C1116.84 517.68 1119.31 533.259 1108.69 540.039C1094.43 549.147 1080.43 548.087 1067.03 539.815C1042.34 524.572 1106.49 479.624 1082.77 462.981C1068.11 452.696 1048.71 467.752 1035.29 463.23C1020.82 458.357 1028.81 439.304 1013.15 441.129C1002.88 442.327 1005.01 437.96 987.092 446.981C969.177 456.001 965.852 489.649 947.085 466.792C928.317 443.935 954.642 455.933 957.938 443.115C961.233 430.297 930.512 431.781 938.169 405.489C945.827 379.198 888.196 416.71 879.967 394.819C866.545 359.116 894.439 381.574 899.188 362.183C902.246 349.696 899.83 340.517 887.697 338.108C874.577 335.503 880.028 341.465 866.413 342.887C857.419 343.827 862.078 365.175 851.437 372.905C829.975 388.495 822.059 329.665 819.139 318.518C814.342 300.205 828.965 290.836 818.74 275.294C806.7 256.995 660.623 125.158 660.623 125.158Z" fill="#FF9A50"/>
<path fill-rule="evenodd" clip-rule="evenodd" d="M660.623 125.158L805.226 1550.23L2149.98 1359.2C2149.98 1359.2 2181.25 1232.42 2119.51 1173.1C2110.29 1164.24 2096.21 1156.67 2087.5 1164.04C2078.78 1171.41 2083.79 1181.12 2072.91 1176.48C2062.03 1171.84 2084.05 1165.08 2069.45 1152.69C2056.95 1142.09 2052.62 1159.53 2044.01 1145.49C2037.95 1135.6 2030.58 1139.85 2026.78 1139.78C2011.59 1139.48 2025.59 1122.14 2005.3 1127.94C1997.14 1130.28 1999.78 1144.17 1999.78 1144.17C1999.78 1144.17 2018.04 1146.98 2014.8 1152.04C2001.45 1172.95 2000.05 1147.31 1990.13 1148.01C1983.43 1148.47 1984.31 1149.31 1973.14 1151.82C1962.15 1154.29 1975.66 1163.33 1943.9 1170.46C1925.34 1174.63 1918.5 1123.18 1907.27 1139.12C1891.59 1161.39 1875.64 1113.52 1871.09 1108.3C1857.14 1092.25 1818.21 1165.91 1809.32 1167.37C1786.66 1171.08 1774.38 1095.66 1750.46 1090.2C1733.27 1086.28 1741.73 1128.4 1723.92 1132.4C1655.92 1147.67 1696.59 1097.72 1664 1093.38C1648.03 1091.25 1654.97 1048.17 1644.38 1036.56C1637.39 1028.88 1632.29 1013.5 1613.7 1016.38C1577.92 1021.91 1576.87 1017.57 1550.6 990.148C1542.79 982.003 1575.94 970.714 1553.75 948.209C1527.53 921.623 1550.05 922.801 1530.41 894.726C1522.26 883.073 1548.98 851.648 1541.99 839.234C1531.37 820.378 1572.88 806.433 1574.4 790.309C1579.39 737.128 1577.73 725.026 1567.68 721.015C1559.25 717.648 1571 704.463 1561.79 703.598C1548.02 702.306 1554.1 694.341 1540.19 696.785C1533.64 697.938 1532.37 774.667 1503.21 768.395C1489.1 765.36 1477.41 756.592 1476.42 744.006C1475.69 734.757 1458.29 712.676 1504.69 689.764C1551.09 666.851 1513.89 637.376 1489.75 653.552C1465.62 669.729 1439.89 700.132 1428.83 700.133C1413.78 700.136 1451.06 660.576 1456.29 648.157C1461.51 635.738 1428.02 637.287 1423.04 622.72C1416.24 602.834 1365.53 650.887 1353.99 633.643C1342.98 626.022 1337.8 619.883 1326.79 612.262C1293.04 612.761 1317.86 641.755 1288.66 641.232C1259.45 640.71 1269.7 627.997 1264.02 622.192C1258.35 616.386 1261.15 602.43 1248.93 605.172C1236.72 607.915 1246.49 613.633 1231.42 609.104C1216.35 604.574 1229.9 598.618 1212.53 577.528C1195.17 556.438 1170.72 581.918 1169.23 556.849C1167.73 531.78 1201.6 528.341 1189.31 521.937C1180.04 507.359 1162.02 522.651 1156.83 506.741C1142.66 490.763 1140.53 507.834 1127.1 513.415C1116.84 517.68 1119.31 533.259 1108.69 540.039C1094.43 549.147 1080.43 548.087 1067.03 539.815C1042.34 524.572 1106.49 479.624 1082.77 462.981C1068.11 452.696 1048.71 467.752 1035.29 463.23C1020.82 458.357 1028.81 439.304 1013.15 441.129C1002.88 442.327 1005.01 437.96 987.092 446.981C969.177 456.001 965.852 489.649 947.085 466.792C928.317 443.935 954.642 455.933 957.938 443.115C961.233 430.297 930.512 431.781 938.169 405.489C945.827 379.198 888.196 416.71 879.967 394.819C866.545 359.116 894.439 381.574 899.188 362.183C902.246 349.696 899.83 340.517 887.697 338.108C874.577 335.503 880.028 341.465 866.413 342.887C857.419 343.827 862.078 365.175 851.437 372.905C829.975 388.495 822.059 329.665 819.139 318.518C814.342 300.205 828.965 290.836 818.74 275.294C806.7 256.995 660.623 125.158 660.623 125.158Z" fill="#FFEF5D"/>
<path fill-rule="evenodd" clip-rule="evenodd" d="M742.825 273.232L792.726 1619.23L1980.8 1546.23C1980.8 1546.23 2338.37 1167.19 2022.27 1174.42C2011.72 1174.67 1987.69 1153.7 1980.8 1159.43C1973.91 1165.15 1941.73 1180.23 1932.91 1176.39C1924.09 1172.55 1926.04 1152.23 1911.83 1159.05C1905.36 1162.16 1862.88 1141.23 1863.67 1127.94C1864.62 1112.08 1840.3 1154.36 1839.4 1157.23C1835.52 1169.54 1853.37 1175.09 1837.14 1179.41C1830.61 1181.14 1820.86 1173.95 1820.86 1173.95C1820.86 1173.95 1819.91 1176.62 1817.39 1180.59C1806.96 1197 1797.09 1174.68 1789.13 1175.09C1783.74 1175.36 1777.28 1147.3 1768.34 1149.13C1759.54 1150.93 1772.15 1160.01 1754.78 1163.56C1739.92 1166.6 1733.64 1125.65 1724.86 1138.15C1712.58 1155.59 1703.31 1152.51 1699.58 1148.3C1688.12 1135.35 1650.06 1160.08 1646.54 1159.15C1628.62 1154.38 1617.37 1101.72 1598.06 1097.04C1584.17 1093.67 1591.61 1127.23 1577.36 1130.15C1522.92 1141.28 1554.86 1102.22 1528.6 1098.3C1515.72 1096.38 1520.65 1062.28 1511.96 1052.91C1506.22 1046.71 1501.89 1034.43 1486.99 1036.44C1458.31 1040.32 1457.4 1036.85 1435.86 1014.7C1429.46 1008.12 1455.94 999.642 1437.76 981.455C1416.28 959.968 1434.4 961.231 1418.19 938.658C1411.46 929.288 1432.46 904.73 1426.65 894.773C1417.83 879.65 1450.99 869.182 1451.97 856.405C1455.17 814.259 1453.65 804.627 1445.52 801.298C1438.69 798.502 1447.93 788.205 1440.51 787.385C1429.43 786.159 1434.2 779.925 1423.05 781.663C1417.8 782.483 1417.94 843.376 1394.4 837.974C1383.01 835.359 1373.49 828.229 1372.5 818.224C1371.77 810.87 1357.45 793.088 1394.4 775.573C1431.36 758.058 1401 734.118 1381.85 746.609C1362.69 759.101 1342.47 782.863 1333.58 782.703C1321.48 782.486 1350.85 751.623 1354.86 741.84C1358.87 732.057 1331.97 732.8 1327.75 721.164C1321.98 705.278 1281.94 742.689 1272.4 728.832C1263.44 722.623 1259.18 717.674 1250.21 711.464C1223.09 711.37 1243.48 734.748 1219.99 733.908C1196.51 733.069 1204.55 723.126 1199.9 718.435C1195.25 713.743 1197.29 702.705 1187.51 704.705C1177.74 706.705 1185.68 711.386 1173.5 707.571C1161.31 703.756 1172.11 699.225 1157.83 682.23C1143.56 665.235 1124.29 685.108 1122.71 665.185C1121.12 645.262 1148.29 643.024 1138.32 637.761C1130.65 626.054 1116.39 637.932 1111.98 625.226C1100.35 612.336 1098.89 625.857 1088.18 630.093C1080 633.329 1082.22 645.733 1073.78 650.961C1062.46 657.984 1051.19 656.939 1040.29 650.177C1020.21 637.718 1071.1 602.968 1051.77 589.411C1039.83 581.034 1024.47 592.704 1013.61 588.919C1001.91 584.84 1008.04 569.831 995.48 571.053C987.238 571.855 988.885 568.418 974.62 575.319C960.354 582.22 958.192 608.883 942.758 590.466C927.324 572.048 948.668 581.955 951.123 571.827C953.578 561.699 928.903 562.431 934.66 541.671C940.417 520.91 894.657 549.852 887.709 532.354C876.378 503.816 899.143 522.05 902.666 506.725C904.935 496.857 902.854 489.535 893.063 487.446C882.476 485.188 886.949 490 876.025 490.931C868.809 491.546 872.879 508.561 864.441 514.543C847.424 526.608 840.168 479.79 837.652 470.898C833.518 456.291 845.131 449.066 836.675 436.579C826.719 421.877 742.825 273.232 742.825 273.232Z" fill="#FF9A50"/>
<path fill-rule="evenodd" clip-rule="evenodd" d="M742.825 273.232L792.726 1619.23L1980.8 1546.23C1980.8 1546.23 2338.37 1167.19 2022.27 1174.42C2011.72 1174.67 1987.69 1153.7 1980.8 1159.43C1973.91 1165.15 1941.73 1180.23 1932.91 1176.39C1924.09 1172.55 1926.04 1152.23 1911.83 1159.05C1905.36 1162.16 1862.88 1141.23 1863.67 1127.94C1864.62 1112.08 1840.3 1154.36 1839.4 1157.23C1835.52 1169.54 1853.37 1175.09 1837.14 1179.41C1830.61 1181.14 1820.86 1173.95 1820.86 1173.95C1820.86 1173.95 1819.91 1176.62 1817.39 1180.59C1806.96 1197 1797.09 1174.68 1789.13 1175.09C1783.74 1175.36 1777.28 1147.3 1768.34 1149.13C1759.54 1150.93 1772.15 1160.01 1754.78 1163.56C1739.92 1166.6 1733.64 1125.65 1724.86 1138.15C1712.58 1155.59 1703.31 1152.51 1699.58 1148.3C1688.12 1135.35 1650.06 1160.08 1646.54 1159.15C1628.62 1154.38 1617.37 1101.72 1598.06 1097.04C1584.17 1093.67 1591.61 1127.23 1577.36 1130.15C1522.92 1141.28 1554.86 1102.22 1528.6 1098.3C1515.72 1096.38 1520.65 1062.28 1511.96 1052.91C1506.22 1046.71 1501.89 1034.43 1486.99 1036.44C1458.31 1040.32 1457.4 1036.85 1435.86 1014.7C1429.46 1008.12 1455.94 999.642 1437.76 981.455C1416.28 959.968 1434.4 961.231 1418.19 938.658C1411.46 929.288 1432.46 904.73 1426.65 894.773C1417.83 879.65 1450.99 869.182 1451.97 856.405C1455.17 814.259 1453.65 804.627 1445.52 801.298C1438.69 798.502 1447.93 788.205 1440.51 787.385C1429.43 786.159 1434.2 779.925 1423.05 781.663C1417.8 782.483 1417.94 843.376 1394.4 837.974C1383.01 835.359 1373.49 828.229 1372.5 818.224C1371.77 810.87 1357.45 793.088 1394.4 775.573C1431.36 758.058 1401 734.118 1381.85 746.609C1362.69 759.101 1342.47 782.863 1333.58 782.703C1321.48 782.486 1350.85 751.623 1354.86 741.84C1358.87 732.057 1331.97 732.8 1327.75 721.164C1321.98 705.278 1281.94 742.689 1272.4 728.832C1263.44 722.623 1259.18 717.674 1250.21 711.464C1223.09 711.37 1243.48 734.748 1219.99 733.908C1196.51 733.069 1204.55 723.126 1199.9 718.435C1195.25 713.743 1197.29 702.705 1187.51 704.705C1177.74 706.705 1185.68 711.386 1173.5 707.571C1161.31 703.756 1172.11 699.225 1157.83 682.23C1143.56 665.235 1124.29 685.108 1122.71 665.185C1121.12 645.262 1148.29 643.024 1138.32 637.761C1130.65 626.054 1116.39 637.932 1111.98 625.226C1100.35 612.336 1098.89 625.857 1088.18 630.093C1080 633.329 1082.22 645.733 1073.78 650.961C1062.46 657.984 1051.19 656.939 1040.29 650.177C1020.21 637.718 1071.1 602.968 1051.77 589.411C1039.83 581.034 1024.47 592.704 1013.61 588.919C1001.91 584.84 1008.04 569.831 995.48 571.053C987.238 571.855 988.885 568.418 974.62 575.319C960.354 582.22 958.192 608.883 942.758 590.466C927.324 572.048 948.668 581.955 951.123 571.827C953.578 561.699 928.903 562.431 934.66 541.671C940.417 520.91 894.657 549.852 887.709 532.354C876.378 503.816 899.143 522.05 902.666 506.725C904.935 496.857 902.854 489.535 893.063 487.446C882.476 485.188 886.949 490 876.025 490.931C868.809 491.546 872.879 508.561 864.441 514.543C847.424 526.608 840.168 479.79 837.652 470.898C833.518 456.291 845.131 449.066 836.675 436.579C826.719 421.877 742.825 273.232 742.825 273.232Z" fill="#FF9A50"/>
<path d="M1563.94 1523.24C1650.96 1565.45 1588.22 1603.26 1501.99 1603.26C1415.77 1603.26 1220.73 1626.9 1220.73 1565.45C1220.73 1504 1300.42 1435.05 1381.36 1469.18C1431.79 1343.68 1627.61 1482.06 1563.94 1523.24Z" fill="#C6C2C2"/>
<path d="M1005.02 1479.11C1108.53 1532.88 1033.9 1581.03 931.325 1581.03C828.753 1581.03 596.726 1611.15 596.726 1532.88C596.726 1454.61 691.532 1366.79 787.819 1410.26C847.814 1250.41 1080.76 1426.67 1005.02 1479.11Z" fill="#C6C2C2"/>
<path d="M1371.43 1594C1472 1649.32 1399.49 1698.87 1299.83 1698.87C1200.17 1698.87 974.726 1729.86 974.726 1649.32C974.726 1568.79 1066.84 1478.43 1160.4 1523.16C1218.69 1358.68 1445.02 1540.04 1371.43 1594Z" fill="#E7E5E5"/>
<path d="M961.433 1282C1062 1337.32 989.489 1386.87 889.828 1386.87C790.167 1386.87 564.726 1417.86 564.726 1337.32C564.726 1256.79 656.841 1166.43 750.395 1211.16C808.687 1046.68 1035.02 1228.04 961.433 1282Z" fill="#E7E5E5"/>
<path opacity="0.6" d="M1140.65 1433.14C1182.46 1460.91 1152.31 1485.79 1110.88 1485.79C1069.45 1485.79 975.726 1501.34 975.726 1460.91C975.726 1420.49 1014.02 1375.12 1052.91 1397.58C1077.15 1315.01 1171.24 1406.05 1140.65 1433.14Z" fill="white"/>
<path d="M2297.96 1354.91C2289.86 1450.28 2152.78 1454.52 2049.58 1446.11C1946.37 1437.71 1707.26 1477.38 1715.35 1382C1723.45 1286.63 1834.45 1224.82 1926.83 1285.68C2003.72 1095.82 2306.05 1259.53 2297.96 1354.91Z" fill="#D6D6D6"/>
<path d="M1036.73 1604.24C1036.73 1647.14 988.102 1639.61 940.854 1639.61C893.605 1639.61 786.726 1656.11 786.726 1613.21C786.726 1570.31 830.397 1522.18 874.75 1546.01C902.386 1458.39 1036.73 1561.34 1036.73 1604.24Z" fill="white"/>
<path d="M1813.04 1393.21V1396.21" stroke="white" stroke-width="3" stroke-linecap="round"/>
<path d="M1615.55 645.066L1581.61 620.164L1611.78 541.212L1562.21 605.934L1520.19 575.102L1609.17 458.935L1668.97 502.811L1639.25 579.51L1706.14 530.085L1765.94 573.961L1676.96 690.128L1634.94 659.296L1684.51 594.575L1615.55 645.066Z" fill="white"/>
<path d="M2110.96 1582.74C2277.07 1671.17 2157.3 1750.36 1992.69 1750.36C1828.08 1750.36 1455.73 1799.9 1455.73 1671.17C1455.73 1542.44 1607.87 1398.01 1762.39 1469.51C1858.67 1206.61 2232.5 1496.49 2110.96 1582.74Z" fill="#F1F1F1"/>
<path d="M1664.4 1046.58C1669.06 1046.52 1667.99 1047.97 1670.31 1051.69" stroke="white" stroke-width="3" stroke-linecap="round"/>
<path d="M1809.73 1106.73C1813.27 1106.29 1816.62 1103.28 1819.73 1101.73" stroke="white" stroke-width="3" stroke-linecap="round"/>
<line y1="-1.5" x2="12.6271" y2="-1.5" transform="matrix(-0.608051 0.793898 -0.806255 -0.591568 1869.43 754.892)" stroke="#EF592A" stroke-width="3"/>
<line y1="-1.5" x2="12.6271" y2="-1.5" transform="matrix(-0.608051 0.793898 -0.806255 -0.591568 1879.36 741.921)" stroke="#EF592A" stroke-width="3"/>
<line y1="-1.5" x2="12.6271" y2="-1.5" transform="matrix(-0.608051 0.793898 -0.806255 -0.591568 1889.3 728.948)" stroke="#EF592A" stroke-width="3"/>
<line y1="-1.5" x2="12.6271" y2="-1.5" transform="matrix(-0.608051 0.793898 0.806255 0.591568 1856.26 745.235)" stroke="#EF592A" stroke-width="3"/>
<line y1="-1.5" x2="12.6271" y2="-1.5" transform="matrix(-0.608051 0.793898 0.806255 0.591568 1866.55 732.789)" stroke="#EF592A" stroke-width="3"/>
<line y1="-1.5" x2="12.6271" y2="-1.5" transform="matrix(-0.608051 0.793898 0.806255 0.591568 1876.14 719.288)" stroke="#EF592A" stroke-width="3"/>
<line y1="-1.5" x2="12.6271" y2="-1.5" transform="matrix(-0.608051 0.793898 0.806255 0.591568 1449.29 427.285)" stroke="#EF592A" stroke-width="3"/>
<line y1="-1.5" x2="12.6271" y2="-1.5" transform="matrix(-0.608051 0.793898 -0.806255 -0.591568 1436.12 417.626)" stroke="#EF592A" stroke-width="3"/>
<line y1="-1.5" x2="12.6271" y2="-1.5" transform="matrix(-0.608051 0.793898 -0.806255 -0.591568 1486.26 352.172)" stroke="#EF592A" stroke-width="3"/>
<path d="M1357 357.702C1357.82 357.591 1358.39 356.835 1358.28 356.014L1356.46 342.637C1356.35 341.816 1355.59 341.241 1354.77 341.353C1353.95 341.465 1353.38 342.221 1353.49 343.042L1355.11 354.932L1343.22 356.551C1342.4 356.662 1341.82 357.418 1341.93 358.239C1342.05 359.06 1342.8 359.635 1343.62 359.523L1357 357.702ZM1314.22 325.727L1355.89 357.41L1357.7 355.022L1316.04 323.339L1314.22 325.727Z" fill="#EF592A"/>
<path d="M1313.32 322.156C1312.5 322.281 1311.93 323.046 1312.06 323.864L1314.09 337.19C1314.22 338.008 1314.98 338.569 1315.8 338.444C1316.62 338.319 1317.19 337.554 1317.06 336.736L1315.25 324.891L1327.13 323.077C1327.95 322.952 1328.52 322.187 1328.39 321.37C1328.27 320.552 1327.5 319.99 1326.68 320.116L1313.32 322.156ZM1356.17 353.017L1314.43 322.43L1312.65 324.844L1354.39 355.432L1356.17 353.017Z" fill="#EF592A"/>
<line y1="-1.5" x2="12.7489" y2="-1.5" transform="matrix(-0.609642 0.792677 0.841672 0.539989 1766.64 578.472)" stroke="#EF592A" stroke-width="3"/>
<line y1="-1.5" x2="12.7489" y2="-1.5" transform="matrix(-0.609642 0.792677 0.841672 0.539989 1746.98 604.034)" stroke="#EF592A" stroke-width="3"/>
<line y1="-1.5" x2="12.7489" y2="-1.5" transform="matrix(-0.609642 0.792677 0.841672 0.539989 1757.04 590.955)" stroke="#EF592A" stroke-width="3"/>
<line y1="-1.5" x2="12.7489" y2="-1.5" transform="matrix(-0.609642 0.792677 0.841672 0.539989 1736.92 617.111)" stroke="#EF592A" stroke-width="3"/>
<line y1="-1.5" x2="12.7489" y2="-1.5" transform="matrix(-0.609642 0.792677 0.841672 0.539989 1726.86 630.189)" stroke="#EF592A" stroke-width="3"/>
<line y1="-1.5" x2="12.7489" y2="-1.5" transform="matrix(-0.609642 0.792677 0.841672 0.539989 1716.8 643.267)" stroke="#EF592A" stroke-width="3"/>
<line y1="-1.5" x2="12.7489" y2="-1.5" transform="matrix(-0.609642 0.792677 0.841672 0.539989 1706.29 656.939)" stroke="#EF592A" stroke-width="3"/>
<line y1="-1.5" x2="12.7489" y2="-1.5" transform="matrix(-0.609642 0.792677 0.841672 0.539989 1696.23 670.018)" stroke="#EF592A" stroke-width="3"/>
<line y1="-1.5" x2="12.7489" y2="-1.5" transform="matrix(-0.609642 0.792677 0.841672 0.539989 1686.63 682.503)" stroke="#EF592A" stroke-width="3"/>
<line y1="-1.5" x2="12.7489" y2="-1.5" transform="matrix(-0.609642 0.792677 0.841672 0.539989 1237.81 192.289)" stroke="#EF592A" stroke-width="3"/>
<line y1="-1.5" x2="12.7489" y2="-1.5" transform="matrix(-0.609642 0.792677 0.841672 0.539989 1218.16 217.85)" stroke="#EF592A" stroke-width="3"/>
<line y1="-1.5" x2="12.7489" y2="-1.5" transform="matrix(-0.609642 0.792677 0.841672 0.539989 1228.21 204.772)" stroke="#EF592A" stroke-width="3"/>
<line y1="-1.5" x2="12.7489" y2="-1.5" transform="matrix(-0.609642 0.792677 0.841672 0.539989 1208.1 230.929)" stroke="#EF592A" stroke-width="3"/>
<line y1="-1.5" x2="12.7489" y2="-1.5" transform="matrix(-0.609642 0.792677 0.841672 0.539989 1198.04 244.006)" stroke="#EF592A" stroke-width="3"/>
<line y1="-1.5" x2="12.7489" y2="-1.5" transform="matrix(-0.609642 0.792677 0.841672 0.539989 1187.98 257.085)" stroke="#EF592A" stroke-width="3"/>
<line y1="-1.5" x2="12.7489" y2="-1.5" transform="matrix(-0.609642 0.792677 0.841672 0.539989 1177.46 270.757)" stroke="#EF592A" stroke-width="3"/>
<line y1="-1.5" x2="12.7489" y2="-1.5" transform="matrix(-0.609642 0.792677 0.841672 0.539989 1167.41 283.835)" stroke="#EF592A" stroke-width="3"/>
<line y1="-1.5" x2="12.7489" y2="-1.5" transform="matrix(-0.609642 0.792677 0.841672 0.539989 1157.8 296.319)" stroke="#EF592A" stroke-width="3"/>
<line y1="-1.5" x2="12.7489" y2="-1.5" transform="matrix(-0.609642 0.792677 0.841672 0.539989 1257.83 167.696)" stroke="#EF592A" stroke-width="3"/>
<line y1="-1.5" x2="12.7489" y2="-1.5" transform="matrix(-0.609642 0.792677 0.841672 0.539989 1248.23 180.181)" stroke="#EF592A" stroke-width="3"/>
<line y1="-1.5" x2="12.7489" y2="-1.5" transform="matrix(-0.609642 0.792677 0.841672 0.539989 1608.1 460.981)" stroke="#EF592A" stroke-width="3"/>
<line y1="-1.5" x2="12.7489" y2="-1.5" transform="matrix(-0.609642 0.792677 0.841672 0.539989 1588.44 486.544)" stroke="#EF592A" stroke-width="3"/>
<line y1="-1.5" x2="12.7489" y2="-1.5" transform="matrix(-0.609642 0.792677 0.841672 0.539989 1598.5 473.465)" stroke="#EF592A" stroke-width="3"/>
<line y1="-1.5" x2="12.7489" y2="-1.5" transform="matrix(-0.609642 0.792677 0.841672 0.539989 1578.38 499.621)" stroke="#EF592A" stroke-width="3"/>
<line y1="-1.5" x2="12.7489" y2="-1.5" transform="matrix(-0.609642 0.792677 0.841672 0.539989 1568.33 512.699)" stroke="#EF592A" stroke-width="3"/>
<line y1="-1.5" x2="12.7489" y2="-1.5" transform="matrix(-0.609642 0.792677 0.841672 0.539989 1558.27 525.777)" stroke="#EF592A" stroke-width="3"/>
<line y1="-1.5" x2="12.7489" y2="-1.5" transform="matrix(-0.609642 0.792677 0.841672 0.539989 1547.75 539.449)" stroke="#EF592A" stroke-width="3"/>
<line y1="-1.5" x2="12.7489" y2="-1.5" transform="matrix(-0.609642 0.792677 0.841672 0.539989 1537.69 552.528)" stroke="#EF592A" stroke-width="3"/>
<path d="M1526.83 564.204L1518.27 574.996" stroke="#EF592A" stroke-width="3"/>
<line y1="-1.5" x2="12.7489" y2="-1.5" transform="matrix(-0.609642 0.792677 0.841672 0.539989 1646.78 411.076)" stroke="#EF592A" stroke-width="3"/>
<line y1="-1.5" x2="12.7489" y2="-1.5" transform="matrix(-0.609642 0.792677 0.841672 0.539989 1637.19 423.473)" stroke="#EF592A" stroke-width="3"/>
<line y1="-1.5" x2="12.7489" y2="-1.5" transform="matrix(-0.609642 0.792677 0.841672 0.539989 1627.13 436.551)" stroke="#EF592A" stroke-width="3"/>
<line y1="-1.5" x2="12.7489" y2="-1.5" transform="matrix(-0.609642 0.792677 0.841672 0.539989 1617.53 449.035)" stroke="#EF592A" stroke-width="3"/>
<line y1="-1.5" x2="12.7489" y2="-1.5" transform="matrix(-0.609642 0.792677 0.841672 0.539989 1805.69 526.807)" stroke="#EF592A" stroke-width="3"/>
<line y1="-1.5" x2="12.7489" y2="-1.5" transform="matrix(-0.609642 0.792677 0.841672 0.539989 1795.17 540.479)" stroke="#EF592A" stroke-width="3"/>
<line y1="-1.5" x2="12.7489" y2="-1.5" transform="matrix(-0.609642 0.792677 0.841672 0.539989 1785.11 553.558)" stroke="#EF592A" stroke-width="3"/>
<line y1="-1.5" x2="12.7489" y2="-1.5" transform="matrix(-0.609642 0.792677 0.841672 0.539989 1775.51 566.043)" stroke="#EF592A" stroke-width="3"/>
<path d="M1264.21 245.308C1265.03 245.191 1265.59 244.427 1265.47 243.604L1263.54 230.179C1263.42 229.355 1262.66 228.783 1261.85 228.9C1261.03 229.018 1260.46 229.781 1260.58 230.605L1262.3 242.538L1250.48 244.241C1249.67 244.359 1249.1 245.122 1249.22 245.946C1249.34 246.77 1250.1 247.342 1250.91 247.224L1264.21 245.308ZM1219.84 212.336L1263.1 245.022L1264.89 242.611L1221.62 209.925L1219.84 212.336Z" fill="#EF592A"/>
<path d="M1222.67 211.489C1221.85 211.612 1221.28 212.376 1221.41 213.195L1223.4 226.546C1223.53 227.365 1224.29 227.93 1225.11 227.807C1225.93 227.685 1226.49 226.921 1226.37 226.102L1224.59 214.234L1236.46 212.457C1237.28 212.335 1237.85 211.571 1237.72 210.752C1237.6 209.932 1236.84 209.368 1236.02 209.49L1222.67 211.489ZM1265.29 242.463L1223.78 211.767L1222 214.179L1263.5 244.875L1265.29 242.463Z" fill="#EF592A"/>
<path d="M1269.09 377.043L1261.11 387.591" stroke="#EF592A" stroke-width="3"/>
<line y1="-1.5" x2="12.6271" y2="-1.5" transform="matrix(-0.608051 0.793898 -0.806255 -0.591568 1307.62 324.264)" stroke="#EF592A" stroke-width="3"/>
</svg>
