<svg width="918" height="720" viewBox="0 0 918 720" fill="none" xmlns="http://www.w3.org/2000/svg">
<path d="M640 86.8103C641.172 86.5144 640.99 84.8021 640.99 82.8103" stroke="#552562" stroke-width="3" stroke-linecap="round"/>
<path d="M811 691.824C811 708.333 665.295 719.81 473.069 719.81C280.843 719.81 132 706.055 132 689.546C251.129 431.813 280.843 660.028 473.069 660.028C665.295 660.028 699.971 450.362 811 691.824Z" fill="#BA78AF"/>
<path d="M787 648.132C787 670.046 644.854 687.81 469.508 687.81C294.162 687.81 151 670.046 151 648.132C218.019 429.577 294.162 608.454 469.508 608.454C644.854 608.454 702.719 427.951 787 648.132Z" fill="#A75299"/>
<path fill-rule="evenodd" clip-rule="evenodd" d="M453.301 644.81C518.203 644.81 582.298 639.679 639.8 627.045L662.763 578.976V518.357L538.831 113.901L495.944 60.452H527.35L465.599 0.810303C211.034 0.810303 61 222.665 61 407.256C61 591.848 244.79 644.81 453.301 644.81Z" fill="#BC63AD"/>
<path d="M862 407.256C862 222.665 739.841 0.810303 465.599 0.810303L527.35 60.452H495.944L538.831 113.901L662.763 518.357V578.976L639.8 627.045C767.039 599.088 862 534.392 862 407.256Z" fill="#DCA4D3"/>
<path d="M791 428.791C791 295.408 711.259 137.897 534.273 106.607C534.273 106.607 561.174 137.954 578.113 158.275C585.249 166.835 591.611 174.124 597.591 180.975L597.592 180.975L597.592 180.976C611.229 196.598 622.875 209.939 637.155 230.872C638.28 232.521 639.385 234.139 640.47 235.727C650.031 249.724 658.069 261.49 665.153 273.384C674.755 289.504 682.605 305.86 690.123 328.322C694.972 342.808 698.576 355.453 701.151 367.564C702.89 375.739 704.16 383.672 705.027 391.763C706.733 407.679 706.883 424.209 705.98 444.412C705.688 450.967 705.067 457.819 704.228 464.687C703.324 472.091 702.166 479.512 700.892 486.597C699.005 497.096 696.862 506.855 694.913 514.72C692.982 522.512 691.24 528.445 690.123 531.398C688.847 534.771 684.5 543.133 679.344 552.654C674.748 561.139 669.511 570.545 665.234 578.161C660.353 586.851 656.723 593.21 656.723 593.21C736.036 565.952 791 515.296 791 428.791Z" fill="#EBD2F2"/>
<path fill-rule="evenodd" clip-rule="evenodd" d="M656.723 593.21C648.711 595.963 640.45 598.478 631.973 600.767L656.723 593.21ZM679.344 552.654C674.748 561.139 669.511 570.545 665.234 578.161L679.344 552.654ZM694.913 514.72C692.982 522.512 691.24 528.445 690.123 531.398L694.913 514.72ZM704.228 464.687C703.324 472.091 702.166 479.512 700.892 486.597L704.228 464.687ZM705.027 391.763C706.733 407.679 706.883 424.209 705.98 444.412L705.027 391.763ZM690.123 328.322C694.972 342.808 698.576 355.453 701.151 367.564L690.123 328.322ZM665.153 273.384C658.069 261.49 650.031 249.724 640.47 235.727C639.385 234.139 638.28 232.521 637.155 230.872C622.875 209.939 611.229 196.598 597.592 180.976L597.592 180.975L597.591 180.975C591.611 174.124 585.249 166.835 578.113 158.275C561.174 137.954 534.273 106.607 534.273 106.607L556.193 132.441L607.634 194.573L637.155 230.872L665.153 273.384ZM159.102 510.364C172.88 535.624 193.527 555.66 219.31 571.324L159.102 510.364ZM301.698 603.997C343.969 614.485 391.813 619.328 441.821 620.2L301.698 603.997Z" fill="#AB8BB4"/>
<path d="M468.761 101.047C261.821 101.047 139.857 279.943 139.857 428.791C139.857 456.7 145.109 480.877 154.762 501.741C156.122 504.681 157.569 507.555 159.102 510.364L219.31 571.324C242.912 585.662 270.818 596.336 301.698 603.997L441.821 620.2C447.443 620.298 453.092 620.346 458.764 620.346C516.446 620.346 573.344 615.4 623.312 603.009C626.223 602.287 629.11 601.54 631.973 600.767L656.723 593.21C656.723 593.21 660.353 586.851 665.234 578.161L679.344 552.654C684.5 543.133 688.847 534.771 690.123 531.398L694.913 514.72C696.862 506.855 699.005 497.096 700.892 486.597L704.228 464.687C705.067 457.819 705.688 450.967 705.98 444.412L705.027 391.763C704.16 383.672 702.89 375.739 701.151 367.564L690.123 328.322C682.605 305.86 674.755 289.504 665.153 273.384L637.155 230.872L607.634 194.573L556.193 132.441L534.273 106.607C513.752 102.978 491.924 101.047 468.761 101.047Z" fill="#AB8BB4"/>
<path d="M97.271 269.644C57.661 372.643 69.2966 376.452 48.5463 372.643C27.796 368.833 -7.82885 372.643 22.1275 255.848C67.4505 162.644 96.6616 174.837 117.412 178.647C138.162 182.456 132.265 178.647 97.271 269.644Z" fill="#A75299"/>
<path d="M830.878 266.212C868.611 373.448 847.551 375.209 868.611 373.448C889.671 371.686 924.743 378.959 907.141 259.833C871.77 162.675 841.408 171.95 820.349 173.712C799.289 175.473 792.227 173.712 830.878 266.212Z" fill="#BA78AF"/>
<line x1="803" y1="187.81" x2="803" y2="29.8103" stroke="#BA78AF" stroke-width="8"/>
<path d="M414 141.647C414 163.871 343.672 206.097 315.296 206.097C286.919 206.097 246 254.167 246 231.943C246 209.719 294.356 151.462 322.732 151.462C352.141 131.833 414 119.423 414 141.647Z" fill="#EBD2F2"/>
<path d="M234 270.824C234 283.245 210.872 300.81 201.268 300.81C191.665 300.81 201.268 295.956 201.268 283.536C201.268 271.115 209.053 261.046 218.657 261.046C228.261 261.046 234 258.403 234 270.824Z" fill="#EBD2F2"/>
<path d="M624 567.818C624 576.836 595.718 592.81 560.83 592.81C525.942 592.81 498 591.831 498 582.814C498 573.796 525.942 567.818 560.83 567.818C595.718 567.818 624 558.8 624 567.818Z" fill="#EBD2F2"/>
</svg>
