<svg width="347" height="292" viewBox="0 0 347 292" fill="none" xmlns="http://www.w3.org/2000/svg">
<path d="M278.717 134.577C396.503 105.157 286.888 201.246 211.314 232.896C135.74 264.545 62.6115 270.028 45.2707 227.163C27.93 184.297 142.762 55.4689 218.336 23.8198C149.45 120.732 302.529 -3.8694 278.717 134.577Z" fill="#FF9A50"/>
<path d="M214.989 163.862C294.152 144.365 220.831 209.494 170.103 230.738C119.376 251.982 70.1623 255.346 58.2677 225.943C46.373 196.54 123.04 109.052 173.768 87.808C127.876 153.714 230.319 69.3175 214.989 163.862Z" fill="#FFEF5D"/>
<path d="M76.2972 223.151C64.7638 208.365 73.7239 181.311 83.8411 173.142C93.9583 164.972 111.51 170.335 123.043 185.121C134.577 199.906 135.725 218.515 125.607 226.685C115.49 234.855 87.8307 237.936 76.2972 223.151Z" fill="#3E3935"/>
</svg>
