<svg width="347" height="292" viewBox="0 0 347 292" fill="none" xmlns="http://www.w3.org/2000/svg">
<path d="M279.096 134.857C396.882 105.437 287.267 201.526 211.693 233.175C136.118 264.824 62.9904 270.308 45.6496 227.442C28.3089 184.576 143.141 55.7487 218.715 24.0996C149.829 121.012 302.908 -3.58961 279.096 134.857Z" fill="#FF9A50"/>
<path d="M215.368 164.141C294.531 144.645 221.209 209.774 170.482 231.017C119.755 252.261 70.5412 255.626 58.6466 226.222C46.7519 196.819 123.419 109.331 174.147 88.0872C128.255 153.993 230.698 69.5967 215.368 164.141Z" fill="#FFEF5D"/>
<path d="M76.6756 223.429C65.1422 208.644 74.1023 181.59 84.2195 173.421C94.3367 165.251 111.888 170.614 123.422 185.4C134.955 200.185 136.103 218.794 125.986 226.964C115.869 235.134 88.2091 238.215 76.6756 223.429Z" fill="#3E3935"/>
</svg>
