<svg width="111" height="106" viewBox="0 0 111 106" fill="none" xmlns="http://www.w3.org/2000/svg">
<path d="M91.1409 20.5818C99.734 23.7473 105.525 29.346 108.513 37.378C111.537 45.3196 110.702 55.2536 106.008 67.18L91.0727 105.128L52.4037 90.8829L67.3387 52.9353C68.3344 50.4055 68.4722 48.1804 67.7522 46.2599C67.0322 44.3395 65.8129 43.0627 64.0943 42.4296C62.3756 41.7965 60.5874 41.9654 58.7294 42.9362C56.8715 43.907 55.4447 45.6573 54.4491 48.1871L39.5141 86.1347L0.845141 71.8901L29.115 0.0607303L66.1727 13.7118L66.1947 23.0305C66.5163 22.8386 66.927 22.5761 67.4271 22.2431C67.9271 21.91 69.0527 21.3936 70.804 20.6939C72.5552 19.9941 74.3068 19.4497 76.0588 19.0606C77.9182 18.711 80.2254 18.6298 82.9804 18.8171C85.7353 19.0044 88.4555 19.5926 91.1409 20.5818Z" fill="white"/>
</svg>
