<svg width="109" height="128" viewBox="0 0 109 128" fill="none" xmlns="http://www.w3.org/2000/svg">
<path d="M0.197916 33.4504C12.458 25.6521 25.8883 17.8067 40.4889 9.91433C55.0894 2.02193 67.7407 -0.952309 78.4427 0.991599C89.1446 2.93551 97.4077 8.94975 103.232 19.0343C108.901 28.8512 110.203 38.5697 107.138 48.1898C104.021 57.7208 96.7133 65.5939 85.2153 71.8091L72.5096 77.799L89.9046 107.919L54.3157 127.157L0.197916 33.4504ZM58.207 53.0338L63.6822 50.0741C66.0548 48.7916 67.6044 47.0171 68.3311 44.7507C69.0577 42.4842 68.8284 40.3246 67.6429 38.272C66.4575 36.2194 64.6768 34.8984 62.3008 34.3091C59.9249 33.7198 57.5506 34.0664 55.178 35.3489L49.7028 38.3085L58.207 53.0338Z" fill="white"/>
</svg>
