<svg width="2117" height="2104" viewBox="0 0 2117 2104" fill="none" xmlns="http://www.w3.org/2000/svg">
<path d="M1266.37 941.056L1267.26 942.698" stroke="white" stroke-width="3" stroke-linecap="round"/>
<path d="M1299.7 950.99C1298.68 948.381 1301.34 949.286 1303.05 949.244" stroke="white" stroke-width="3" stroke-linecap="round"/>
<path d="M1081.45 753.517C1082.05 754.636 1082.05 754.636 1081.45 753.517" stroke="white" stroke-width="3" stroke-linecap="round"/>
<path d="M1067 674V676" stroke="white" stroke-width="3" stroke-linecap="round"/>
<path d="M769 850C769.652 846.087 773.171 848.938 776 850" stroke="white" stroke-width="3" stroke-linecap="round"/>
<path d="M1324.19 987.021L1321.36 992.128" stroke="white" stroke-width="3" stroke-linecap="round"/>
<g filter="url(#filter0_dddddd_664_1560)">
<ellipse cx="1058.5" cy="1052" rx="381.5" ry="375" fill="#6A4848"/>
</g>
<path fill-rule="evenodd" clip-rule="evenodd" d="M1406.02 1204.07C1387.05 1248.28 1359.76 1288.09 1326.12 1321.53L1274.18 1343.27L1216.23 1376.23L1172.45 1413.7C1137.84 1424.3 1101.09 1430 1063 1430C1048.78 1430 1034.74 1429.21 1020.94 1427.66L1006.77 1413.7L965.136 1407.88L953.547 1413.7C929.692 1406.4 906.854 1396.78 885.299 1385.09L874.568 1376.23L846.669 1351.08L812.759 1327.23L802.458 1324.06C733.075 1256.42 690 1161.98 690 1057.5C690 958.638 728.565 868.771 791.491 802.084L814.476 793.845L822.632 784.304V772.649C836.023 761.368 850.22 751.011 865.125 741.678H884.012L908.048 728.364L925.217 711.238C946.766 702.68 969.301 696.069 992.606 691.624L1002.91 700.178H1046.69L1063 685C1085.56 685 1107.65 687 1129.1 690.831L1150.99 711.238L1204.22 728.364H1237.82C1256.53 738.292 1274.28 749.764 1290.92 762.608L1301.22 784.304L1324.4 802.084L1345 813.681C1358.52 829.263 1370.77 845.977 1381.58 863.661L1387.07 884.476L1411.1 943.018L1424 963.399C1431.38 991.717 1435.5 1021.35 1435.96 1051.86L1424 1098.7L1411.1 1169.38L1406.02 1204.07Z" fill="#C6C6C6"/>
<g filter="url(#filter1_d_664_1560)">
<path fill-rule="evenodd" clip-rule="evenodd" d="M1422.89 1208.39C1402.57 1255.87 1373.34 1298.61 1337.31 1334.52L1281.68 1357.87L1219.62 1393.26L1172.73 1433.5C1135.66 1444.88 1096.29 1451 1055.5 1451C1040.27 1451 1025.24 1450.15 1010.45 1448.48L995.276 1433.5L950.683 1427.25L938.27 1433.5C912.721 1425.66 888.261 1415.32 865.174 1402.78L853.681 1393.26L823.799 1366.25L787.481 1340.64L776.448 1337.24C702.135 1264.6 656 1163.2 656 1051C656 944.839 697.305 848.338 764.702 776.728L789.32 767.88L798.055 757.636V745.119C812.397 733.005 827.603 721.884 843.567 711.862H863.795L889.54 697.566L907.929 679.175C931.008 669.985 955.144 662.886 980.105 658.113L991.139 667.298H1038.03L1055.5 651C1079.66 651 1103.32 653.147 1126.3 657.262L1149.74 679.175L1206.75 697.566H1242.74C1262.77 708.227 1281.79 720.545 1299.61 734.338L1310.65 757.636L1335.47 776.728L1357.54 789.181C1372.02 805.913 1385.14 823.861 1396.72 842.851L1402.59 865.203L1428.34 928.066L1442.14 949.952C1450.05 980.36 1454.47 1012.18 1454.96 1044.95L1442.14 1095.24L1428.34 1171.14L1422.89 1208.39Z" fill="#C6C6C6"/>
<path d="M1281.1 1356.49L1281.02 1356.52L1280.94 1356.57L1218.88 1391.96L1218.75 1392.03L1218.64 1392.12L1171.99 1432.16C1135.15 1443.43 1096.03 1449.5 1055.5 1449.5C1040.5 1449.5 1025.7 1448.67 1011.13 1447.05L996.33 1432.43L995.977 1432.09L995.484 1432.02L950.891 1425.77L950.427 1425.7L950.008 1425.91L938.135 1431.89C912.937 1424.12 888.807 1413.9 866.019 1401.53L854.663 1392.12L824.805 1365.14L824.738 1365.08L824.664 1365.02L788.345 1339.41L788.15 1339.28L787.922 1339.21L777.237 1335.92C703.354 1263.57 657.5 1162.65 657.5 1051C657.5 945.365 698.548 849.333 765.548 778.017L789.827 769.292L790.203 769.157L790.461 768.853L799.196 758.609L799.555 758.188V757.636V745.817C813.578 734.014 828.426 723.163 844 713.362H863.795H864.184L864.523 713.173L890.268 698.877L890.452 698.775L890.6 698.626L908.771 680.455C931.461 671.44 955.175 664.454 979.691 659.72L990.179 668.451L990.596 668.798H991.139H1038.03H1038.62L1039.05 668.395L1056.09 652.5C1079.8 652.535 1103.03 654.646 1125.6 658.66L1148.72 680.271L1148.96 680.5L1149.28 680.603L1206.29 698.993L1206.51 699.066H1206.75H1242.37C1262.1 709.59 1280.84 721.728 1298.41 735.305L1309.29 758.278L1309.45 758.604L1309.73 758.825L1334.56 777.917L1334.64 777.982L1334.73 778.034L1356.57 790.359C1370.89 806.918 1383.86 824.67 1395.32 843.445L1401.14 865.584L1401.17 865.68L1401.2 865.771L1426.95 928.635L1427 928.756L1427.07 928.867L1440.75 950.555C1448.57 980.718 1452.95 1012.27 1453.45 1044.77L1440.69 1094.87L1440.68 1094.92L1440.67 1094.97L1426.86 1170.87L1426.86 1170.9L1426.85 1170.92L1421.43 1207.98C1401.23 1255.12 1372.22 1297.57 1336.46 1333.25L1281.1 1356.49Z" stroke="white" stroke-width="3"/>
</g>
<ellipse cx="45.227" cy="26.3506" rx="45.227" ry="26.3506" transform="matrix(-0.859339 -0.511406 0.504391 -0.863476 885.271 1273.92)" fill="#A5A5A5"/>
<ellipse cx="45.5158" cy="26.1828" rx="45.5158" ry="26.1828" transform="matrix(0.236037 0.971744 -0.970719 0.240218 829.159 1065.94)" fill="#A5A5A5"/>
<ellipse cx="45.2002" cy="26.3661" rx="45.2002" ry="26.3661" transform="matrix(-0.895708 0.444642 -0.438028 -0.898962 1160.79 1320.62)" fill="#A5A5A5"/>
<ellipse cx="38.0173" cy="21.5889" rx="38.0173" ry="21.5889" transform="matrix(-0.895708 0.444642 -0.438028 -0.898962 1149.75 1319.84)" fill="#C6C6C6"/>
<ellipse cx="45.1734" cy="26.3815" rx="45.1734" ry="26.3815" transform="matrix(-0.930863 -0.365368 0.359508 -0.933142 992.171 1351.13)" fill="#A5A5A5"/>
<ellipse cx="48.4151" cy="27.1632" rx="48.4151" ry="27.1632" transform="matrix(0.577725 -0.816231 0.811114 0.584889 797.904 885.672)" fill="#A5A5A5"/>
<ellipse cx="36.9031" cy="22.635" rx="36.9031" ry="22.635" transform="matrix(0.577725 -0.816231 0.811114 0.584889 807.541 876.414)" fill="#C6C6C6"/>
<ellipse cx="48.4151" cy="38.8237" rx="48.4151" ry="38.8237" transform="matrix(0.577725 -0.816231 0.811114 0.584889 855.658 939.437)" fill="#A5A5A5"/>
<ellipse cx="54.8397" cy="51.9874" rx="54.8397" ry="51.9874" transform="matrix(0.577725 -0.816231 0.811114 0.584889 982.823 1046.11)" fill="#A5A5A5"/>
<ellipse cx="37.9721" cy="21.6142" rx="37.9721" ry="21.6142" transform="matrix(-0.964892 -0.262648 0.25813 -0.96611 988.223 1340.13)" fill="#C6C6C6"/>
<ellipse cx="38.0878" cy="21.5492" rx="38.0878" ry="21.5492" transform="matrix(-0.776117 -0.630589 0.623507 -0.781818 874.396 1269.09)" fill="#C6C6C6"/>
<ellipse cx="29.6386" cy="17.0088" rx="29.6386" ry="17.0088" transform="matrix(-0.335725 -0.94196 0.939953 -0.341303 808.539 1151.6)" fill="#C6C6C6"/>
<ellipse cx="38.4902" cy="39.732" rx="38.4902" ry="39.732" transform="matrix(0.577725 -0.816231 0.811114 0.584889 1090.23 1130.51)" fill="#A5A5A5"/>
<ellipse cx="38.4902" cy="39.732" rx="38.4902" ry="39.732" transform="matrix(0.577725 -0.816231 0.811114 0.584889 979.387 909.358)" fill="#A5A5A5"/>
<ellipse cx="38.4902" cy="39.732" rx="38.4902" ry="39.732" transform="matrix(0.577725 -0.816231 0.811114 0.584889 944.158 1193.82)" fill="#A5A5A5"/>
<ellipse cx="38.4902" cy="39.732" rx="38.4902" ry="39.732" transform="matrix(0.577725 -0.816231 0.811114 0.584889 1171.85 1031.64)" fill="#A5A5A5"/>
<ellipse cx="28.883" cy="25.918" rx="28.883" ry="25.918" transform="matrix(0.577725 -0.816231 0.811114 0.584889 1181.3 1029.83)" fill="#C6C6C6"/>
<ellipse cx="28.883" cy="33.6653" rx="28.883" ry="33.6653" transform="matrix(0.577725 -0.816231 0.811114 0.584889 1100.54 1126.1)" fill="#C6C6C6"/>
<ellipse cx="28.883" cy="33.6653" rx="28.883" ry="33.6653" transform="matrix(0.577725 -0.816231 0.811114 0.584889 955.328 1188.54)" fill="#C6C6C6"/>
<ellipse cx="46.3892" cy="38.6988" rx="46.3892" ry="38.6988" transform="matrix(0.577725 -0.816231 0.811114 0.584889 999.148 1048.87)" fill="#C6C6C6"/>
<ellipse cx="28.883" cy="33.6653" rx="28.883" ry="33.6653" transform="matrix(0.577725 -0.816231 0.811114 0.584889 987.979 904.082)" fill="#C6C6C6"/>
<ellipse cx="37.5816" cy="33.6653" rx="37.5816" ry="33.6653" transform="matrix(0.577725 -0.816231 0.811114 0.584889 862.531 935.627)" fill="#C6C6C6"/>
<ellipse cx="21.5457" cy="21.8293" rx="21.5457" ry="21.8293" transform="matrix(0.577725 -0.816231 0.811114 0.584889 1109.81 938.937)" fill="#A5A5A5"/>
<ellipse cx="21.5457" cy="21.8293" rx="21.5457" ry="21.8293" transform="matrix(0.577725 -0.816231 0.811114 0.584889 859.954 1135.8)" fill="#A5A5A5"/>
<ellipse cx="13.5097" cy="15.9923" rx="13.5097" ry="15.9923" transform="matrix(0.577725 -0.816231 0.811114 0.584889 869.405 1130.49)" fill="#C6C6C6"/>
<ellipse cx="13.4095" cy="11.6837" rx="13.4095" ry="11.6837" transform="matrix(0.577725 -0.816231 0.811114 0.584889 901.146 1035.8)" fill="#A5A5A5"/>
<ellipse cx="10.5956" cy="9.67927" rx="10.5956" ry="9.67927" transform="matrix(0.577725 -0.816231 0.811114 0.584889 904.634 1033.8)" fill="#C6C6C6"/>
<ellipse cx="48.5644" cy="30.553" rx="48.5644" ry="30.553" transform="matrix(0.0698097 -0.99756 0.997468 0.0711147 760.283 1028.41)" fill="#A5A5A5"/>
<ellipse cx="33.0302" cy="22.5672" rx="33.0302" ry="22.5672" transform="matrix(0.130015 -0.991512 0.991194 0.132415 768.876 1013.49)" fill="#C6C6C6"/>
<ellipse cx="34.9015" cy="13.4035" rx="34.9015" ry="13.4035" transform="matrix(0.825278 -0.564727 0.557571 0.830129 824.782 782.219)" fill="#A5A5A5"/>
<ellipse cx="34.8282" cy="13.4314" rx="34.8282" ry="13.4314" transform="matrix(0.952967 -0.303074 0.297986 0.95457 926.974 715.864)" fill="#A5A5A5"/>
<ellipse cx="15.7884" cy="18.2957" rx="15.7884" ry="18.2957" transform="matrix(0.577725 -0.816231 0.811114 0.584889 1115.14 935.608)" fill="#C6C6C6"/>
<ellipse cx="40.3914" cy="14.2236" rx="40.3914" ry="14.2236" transform="matrix(0.989618 0.143723 -0.141126 0.989992 1057.68 690.417)" fill="#A5A5A5"/>
<ellipse cx="35.8695" cy="14.185" rx="35.8695" ry="14.185" transform="matrix(0.825678 0.564141 -0.556986 0.830522 1230.62 731.179)" fill="#A5A5A5"/>
<ellipse cx="36.0044" cy="14.1318" rx="36.0044" ry="14.1318" transform="matrix(0.527655 0.849459 -0.845009 0.534752 1338.42 816.702)" fill="#A5A5A5"/>
<ellipse cx="37.5628" cy="14.0995" rx="37.5628" ry="14.0995" transform="matrix(0.192389 0.981319 -0.980631 0.195866 1412.03 956.37)" fill="#A5A5A5"/>
<ellipse cx="43.1161" cy="14.1345" rx="43.1161" ry="14.1345" transform="matrix(-0.546258 0.837617 -0.832917 -0.553398 1394.59 1215.14)" fill="#A5A5A5"/>
<ellipse cx="37.76" cy="14.1029" rx="37.76" ry="14.1029" transform="matrix(-0.250073 0.968227 -0.967081 -0.25447 1421.65 1091.33)" fill="#A5A5A5"/>
<ellipse cx="42.8414" cy="14.2246" rx="42.8414" ry="14.2246" transform="matrix(-0.993507 0.113773 -0.111701 -0.993742 1139.87 1410.76)" fill="#A5A5A5"/>
<ellipse cx="39.8771" cy="14.2097" rx="39.8771" ry="14.2097" transform="matrix(-0.933418 -0.35879 0.353005 -0.935621 959.315 1409.08)" fill="#A5A5A5"/>
<ellipse cx="33.3401" cy="14.1649" rx="33.3401" ry="14.1649" transform="matrix(-0.72674 -0.686912 0.680134 -0.733088 825.068 1320.71)" fill="#A5A5A5"/>
<ellipse cx="48.1521" cy="25.2453" rx="48.1521" ry="25.2453" transform="matrix(0.959384 -0.282105 0.277306 0.960782 892.604 766.152)" fill="#A5A5A5"/>
<ellipse cx="43.572" cy="21.2217" rx="43.572" ry="21.2217" transform="matrix(0.959384 -0.282105 0.277306 0.960782 901.197 767.037)" fill="#C6C6C6"/>
<ellipse cx="45.6606" cy="27.2767" rx="45.6606" ry="27.2767" transform="matrix(0.996519 0.0833687 -0.0818417 0.996645 1037.12 734.647)" fill="#A5A5A5"/>
<ellipse cx="40.9736" cy="22.2429" rx="40.9736" ry="22.2429" transform="matrix(0.996519 0.0833687 -0.0818417 0.996645 1041.46 740.719)" fill="#C6C6C6"/>
<ellipse cx="45.7824" cy="25.1668" rx="45.7824" ry="25.1668" transform="matrix(0.839603 0.543201 -0.536082 0.844166 1172.46 758.931)" fill="#A5A5A5"/>
<ellipse cx="45.9929" cy="22.8694" rx="45.9929" ry="22.8694" transform="matrix(0.460726 0.887542 -0.883991 0.467504 1287.9 837.852)" fill="#A5A5A5"/>
<ellipse cx="46.0782" cy="22.8265" rx="46.0782" ry="22.8265" transform="matrix(0.121196 0.992629 -0.992352 0.123438 1355.49 952.33)" fill="#A5A5A5"/>
<ellipse cx="45.4972" cy="26.1937" rx="45.4972" ry="26.1937" transform="matrix(-0.31512 0.949052 -0.94727 -0.320438 1361.24 1095.53)" fill="#A5A5A5"/>
<ellipse cx="36.3553" cy="20.1415" rx="36.3553" ry="20.1415" transform="matrix(-0.31512 0.949052 -0.94727 -0.320438 1353.22 1102.27)" fill="#C6C6C6"/>
<ellipse cx="36.3553" cy="20.1415" rx="36.3553" ry="20.1415" transform="matrix(-0.31512 0.949052 -0.94727 -0.320438 1353.22 1102.27)" fill="#C6C6C6"/>
<ellipse cx="36.3553" cy="20.1415" rx="36.3553" ry="20.1415" transform="matrix(-0.31512 0.949052 -0.94727 -0.320438 1353.22 1102.27)" fill="#C6C6C6"/>
<ellipse cx="30.4145" cy="11.6061" rx="30.4145" ry="11.6061" transform="matrix(0.207656 0.978202 -0.977403 0.211384 1410.21 965.339)" fill="#C6C6C6"/>
<ellipse cx="30.4145" cy="11.6061" rx="30.4145" ry="11.6061" transform="matrix(0.207656 0.978202 -0.977403 0.211384 1410.21 965.339)" fill="#C6C6C6"/>
<ellipse cx="30.4145" cy="11.6061" rx="30.4145" ry="11.6061" transform="matrix(0.207656 0.978202 -0.977403 0.211384 1410.21 965.339)" fill="#C6C6C6"/>
<ellipse cx="30.4087" cy="11.6084" rx="30.4087" ry="11.6084" transform="matrix(-0.251893 0.967755 -0.966593 -0.256318 1416.69 1095.31)" fill="#C6C6C6"/>
<ellipse cx="30.4087" cy="11.6084" rx="30.4087" ry="11.6084" transform="matrix(-0.251893 0.967755 -0.966593 -0.256318 1416.69 1095.31)" fill="#C6C6C6"/>
<ellipse cx="30.4087" cy="11.6084" rx="30.4087" ry="11.6084" transform="matrix(-0.251893 0.967755 -0.966593 -0.256318 1416.69 1095.31)" fill="#C6C6C6"/>
<ellipse cx="30.1558" cy="11.7057" rx="30.1558" ry="11.7057" transform="matrix(-0.980277 0.197629 -0.194123 -0.980977 1127.26 1407.19)" fill="#C6C6C6"/>
<ellipse cx="30.1558" cy="11.7057" rx="30.1558" ry="11.7057" transform="matrix(-0.980277 0.197629 -0.194123 -0.980977 1127.26 1407.19)" fill="#C6C6C6"/>
<ellipse cx="30.1558" cy="11.7057" rx="30.1558" ry="11.7057" transform="matrix(-0.980277 0.197629 -0.194123 -0.980977 1127.26 1407.19)" fill="#C6C6C6"/>
<ellipse cx="30.1831" cy="11.6953" rx="30.1831" ry="11.6953" transform="matrix(-0.92898 -0.370129 0.364216 -0.931314 951.654 1403.79)" fill="#C6C6C6"/>
<ellipse cx="30.1831" cy="11.6953" rx="30.1831" ry="11.6953" transform="matrix(-0.92898 -0.370129 0.364216 -0.931314 951.654 1403.79)" fill="#C6C6C6"/>
<ellipse cx="30.1831" cy="11.6953" rx="30.1831" ry="11.6953" transform="matrix(-0.92898 -0.370129 0.364216 -0.931314 951.654 1403.79)" fill="#C6C6C6"/>
<ellipse cx="25.4259" cy="9.6327" rx="25.4259" ry="9.6327" transform="matrix(-0.725094 -0.68865 0.681885 -0.73146 822.933 1313.66)" fill="#C6C6C6"/>
<ellipse cx="25.4259" cy="9.6327" rx="25.4259" ry="9.6327" transform="matrix(-0.725094 -0.68865 0.681885 -0.73146 822.933 1313.66)" fill="#C6C6C6"/>
<ellipse cx="25.4259" cy="9.6327" rx="25.4259" ry="9.6327" transform="matrix(-0.725094 -0.68865 0.681885 -0.73146 822.933 1313.66)" fill="#C6C6C6"/>
<ellipse cx="30.3364" cy="8.92901" rx="30.3364" ry="8.92901" transform="matrix(-0.563628 0.826029 -0.821097 -0.570789 1383.97 1222.7)" fill="#C6C6C6"/>
<ellipse cx="30.3364" cy="8.92901" rx="30.3364" ry="8.92901" transform="matrix(-0.563628 0.826029 -0.821097 -0.570789 1383.97 1222.7)" fill="#C6C6C6"/>
<ellipse cx="30.3364" cy="8.92901" rx="30.3364" ry="8.92901" transform="matrix(-0.563628 0.826029 -0.821097 -0.570789 1383.97 1222.7)" fill="#C6C6C6"/>
<ellipse cx="31.1917" cy="7.67285" rx="31.1917" ry="7.67285" transform="matrix(0.553188 0.833056 -0.828264 0.560339 1334.07 823.108)" fill="#C6C6C6"/>
<ellipse cx="31.1917" cy="7.67285" rx="31.1917" ry="7.67285" transform="matrix(0.553188 0.833056 -0.828264 0.560339 1334.07 823.108)" fill="#C6C6C6"/>
<ellipse cx="31.1917" cy="7.67285" rx="31.1917" ry="7.67285" transform="matrix(0.553188 0.833056 -0.828264 0.560339 1334.07 823.108)" fill="#C6C6C6"/>
<ellipse cx="34.8162" cy="15.561" rx="34.8162" ry="15.561" transform="matrix(0.44111 0.897453 -0.89416 0.447749 1288.97 852.468)" fill="#C6C6C6"/>
<ellipse cx="34.8162" cy="15.561" rx="34.8162" ry="15.561" transform="matrix(0.44111 0.897453 -0.89416 0.447749 1288.97 852.468)" fill="#C6C6C6"/>
<ellipse cx="34.8162" cy="15.561" rx="34.8162" ry="15.561" transform="matrix(0.44111 0.897453 -0.89416 0.447749 1288.97 852.468)" fill="#C6C6C6"/>
<ellipse cx="34.6502" cy="15.6357" rx="34.6502" ry="15.6357" transform="matrix(0.841194 0.540734 -0.533621 0.845724 1176.51 772.808)" fill="#C6C6C6"/>
<ellipse cx="34.6502" cy="15.6357" rx="34.6502" ry="15.6357" transform="matrix(0.841194 0.540734 -0.533621 0.845724 1176.51 772.808)" fill="#C6C6C6"/>
<ellipse cx="34.6502" cy="15.6357" rx="34.6502" ry="15.6357" transform="matrix(0.841194 0.540734 -0.533621 0.845724 1176.51 772.808)" fill="#C6C6C6"/>
<ellipse cx="13.4095" cy="11.6837" rx="13.4095" ry="11.6837" transform="matrix(0.577725 -0.816231 0.811114 0.584889 901.146 1035.8)" fill="#A5A5A5"/>
<ellipse cx="10.5956" cy="9.67927" rx="10.5956" ry="9.67927" transform="matrix(0.577725 -0.816231 0.811114 0.584889 904.634 1033.8)" fill="#C6C6C6"/>
<ellipse cx="13.4095" cy="11.6837" rx="13.4095" ry="11.6837" transform="matrix(0.577725 -0.816231 0.811114 0.584889 901.146 1035.8)" fill="#A5A5A5"/>
<ellipse cx="10.5956" cy="9.67927" rx="10.5956" ry="9.67927" transform="matrix(0.577725 -0.816231 0.811114 0.584889 904.634 1033.8)" fill="#C6C6C6"/>
<ellipse cx="13.4095" cy="11.6837" rx="13.4095" ry="11.6837" transform="matrix(0.577725 -0.816231 0.811114 0.584889 901.146 1035.8)" fill="#A5A5A5"/>
<ellipse cx="10.5956" cy="9.67927" rx="10.5956" ry="9.67927" transform="matrix(0.577725 -0.816231 0.811114 0.584889 904.634 1033.8)" fill="#C6C6C6"/>
<ellipse cx="38.5088" cy="25.1668" rx="38.5088" ry="25.1668" transform="matrix(0.839603 0.543201 -0.536082 0.844166 1112.05 815.303)" fill="#A5A5A5"/>
<ellipse cx="30.3012" cy="15.6357" rx="30.3012" ry="15.6357" transform="matrix(0.841194 0.540734 -0.533621 0.845724 1115.95 829.547)" fill="#C6C6C6"/>
<ellipse cx="30.3012" cy="15.6357" rx="30.3012" ry="15.6357" transform="matrix(0.841194 0.540734 -0.533621 0.845724 1115.95 829.547)" fill="#C6C6C6"/>
<ellipse cx="30.3012" cy="15.6357" rx="30.3012" ry="15.6357" transform="matrix(0.841194 0.540734 -0.533621 0.845724 1115.95 829.547)" fill="#C6C6C6"/>
<ellipse cx="28.6202" cy="13.0648" rx="28.6202" ry="13.0648" transform="matrix(0.841194 0.540734 -0.533621 0.845724 1235.63 737.249)" fill="#C6C6C6"/>
<ellipse cx="28.6202" cy="13.0648" rx="28.6202" ry="13.0648" transform="matrix(0.841194 0.540734 -0.533621 0.845724 1235.63 737.249)" fill="#C6C6C6"/>
<ellipse cx="28.6202" cy="13.0648" rx="28.6202" ry="13.0648" transform="matrix(0.841194 0.540734 -0.533621 0.845724 1235.63 737.249)" fill="#C6C6C6"/>
<ellipse cx="32.3998" cy="10.0919" rx="32.3998" ry="10.0919" transform="matrix(0.983267 0.182169 -0.178918 0.983864 1064.62 692.151)" fill="#C6C6C6"/>
<ellipse cx="32.3998" cy="10.0919" rx="32.3998" ry="10.0919" transform="matrix(0.983267 0.182169 -0.178918 0.983864 1064.62 692.151)" fill="#C6C6C6"/>
<ellipse cx="32.3998" cy="10.0919" rx="32.3998" ry="10.0919" transform="matrix(0.983267 0.182169 -0.178918 0.983864 1064.62 692.151)" fill="#C6C6C6"/>
<ellipse cx="21.8396" cy="10.4031" rx="21.8396" ry="10.4031" transform="matrix(0.831278 -0.555857 0.548713 0.836011 835.896 777.14)" fill="#C6C6C6"/>
<ellipse cx="21.8396" cy="10.4031" rx="21.8396" ry="10.4031" transform="matrix(0.831278 -0.555857 0.548713 0.836011 835.896 777.14)" fill="#C6C6C6"/>
<ellipse cx="21.8396" cy="10.4031" rx="21.8396" ry="10.4031" transform="matrix(0.831278 -0.555857 0.548713 0.836011 835.896 777.14)" fill="#C6C6C6"/>
<ellipse cx="25.1674" cy="10.0879" rx="25.1674" ry="10.0879" transform="matrix(0.960448 -0.278459 0.273712 0.961812 935.566 715.708)" fill="#C6C6C6"/>
<ellipse cx="25.1674" cy="10.0879" rx="25.1674" ry="10.0879" transform="matrix(0.960448 -0.278459 0.273712 0.961812 935.566 715.708)" fill="#C6C6C6"/>
<ellipse cx="25.1674" cy="10.0879" rx="25.1674" ry="10.0879" transform="matrix(0.960448 -0.278459 0.273712 0.961812 935.566 715.708)" fill="#C6C6C6"/>
<ellipse cx="45.3447" cy="26.2825" rx="45.3447" ry="26.2825" transform="matrix(-0.677253 0.735751 -0.729433 -0.684052 1299.11 1235.46)" fill="#A5A5A5"/>
<ellipse cx="40.1768" cy="20.6605" rx="40.1768" ry="20.6605" transform="matrix(-0.63024 0.7764 -0.770617 -0.637298 1290.82 1233.34)" fill="#C6C6C6"/>
<ellipse cx="40.1768" cy="20.6605" rx="40.1768" ry="20.6605" transform="matrix(-0.63024 0.7764 -0.770617 -0.637298 1290.82 1233.34)" fill="#C6C6C6"/>
<ellipse cx="40.1768" cy="20.6605" rx="40.1768" ry="20.6605" transform="matrix(-0.63024 0.7764 -0.770617 -0.637298 1290.82 1233.34)" fill="#C6C6C6"/>
<ellipse cx="17.6188" cy="26.0712" rx="17.6188" ry="26.0712" transform="matrix(0.986015 -0.166657 0.163667 0.986516 1317.06 978.15)" fill="#C6C6C6"/>
<ellipse cx="38.4902" cy="39.732" rx="38.4902" ry="39.732" transform="matrix(0.577725 -0.816231 0.811114 0.584889 1055.86 1230.25)" fill="#A5A5A5"/>
<ellipse cx="28.883" cy="33.6653" rx="28.883" ry="33.6653" transform="matrix(0.577725 -0.816231 0.811114 0.584889 1066.17 1225.84)" fill="#C6C6C6"/>
<ellipse cx="38.4902" cy="39.732" rx="38.4902" ry="39.732" transform="matrix(0.577725 -0.816231 0.811114 0.584889 913.226 1098.42)" fill="#A5A5A5"/>
<ellipse cx="28.883" cy="33.6653" rx="28.883" ry="33.6653" transform="matrix(0.577725 -0.816231 0.811114 0.584889 923.537 1094.01)" fill="#C6C6C6"/>
<path d="M1085.57 1148C1085.57 1135.82 1083 1124.29 1083 1112.15C1083 1099.89 1091.16 1089.71 1100.29 1082.65C1111.42 1074.04 1121.93 1070.55 1135.71 1067.62C1141.31 1066.43 1148 1067.33 1153.71 1067.33C1158.87 1067.33 1160.36 1070.69 1164 1072.53" stroke="#DADADA" stroke-width="8" stroke-linecap="round"/>
<path d="M984.147 909C984.147 912.42 983.624 916.346 984.553 919.657C985.863 924.326 989.324 928.714 992.64 932.165C997.227 936.938 1003.82 941.605 1010.11 943.969C1014.48 945.613 1019.58 944.382 1023.7 945.967C1025.51 946.666 1034 948.051 1034 945.634" stroke="#DADADA" stroke-width="8" stroke-linecap="round"/>
<path d="M1143 908C1147.93 908 1152.78 909.091 1156.7 912.213C1158.25 913.441 1160.28 914.429 1161.67 915.777C1162.98 917.057 1163.76 918.959 1165 920.314C1167.74 923.311 1168.33 927.105 1168.33 930.972C1168.33 932.371 1169 940.54 1169 935.221" stroke="#DADADA" stroke-width="8" stroke-linecap="round"/>
<path d="M867.982 913C867.982 914.41 867.198 915.414 866.706 916.692C865.634 919.478 865.269 922.672 864.59 925.569C863.523 930.122 863.285 935.176 863.285 939.868C863.285 942.728 862.375 947.503 863.807 950.035C866.092 954.075 867.277 958.829 871.114 961.93C878.33 967.763 885.904 972.26 895.384 973.093C899.15 973.424 902.992 973.917 906.721 974.587C908.249 974.862 915.326 975.539 916 974.177" stroke="#DADADA" stroke-width="8" stroke-linecap="round"/>
<path d="M1358 1113.13C1358 1105.72 1354.27 1101.76 1350.59 1095.96C1348.34 1092.4 1343.4 1083.61 1338.95 1083.07C1333 1082.36 1328.37 1079.83 1322.09 1081.64C1319.01 1082.54 1315.07 1084.66 1312.14 1086.1C1307.35 1088.43 1303.31 1090.96 1299.4 1094.52C1293.31 1100.08 1287.11 1106.99 1284.78 1115.28C1281.83 1125.74 1281.02 1136.63 1280.43 1147.48C1280 1155.22 1279.26 1164.58 1281.95 1171.97C1283.29 1175.63 1293.88 1185.14 1295.91 1178.96" stroke="#DADADA" stroke-width="8" stroke-linecap="round"/>
<path d="M1200 1282.14C1200 1286.76 1204.93 1290.12 1207.88 1292.93C1212.03 1296.89 1217.73 1298.11 1223.11 1299.46C1230.82 1301.41 1240.38 1301.79 1247.88 1298.93C1254.35 1296.45 1259.72 1292.06 1265.86 1288.96C1268.88 1287.44 1271.8 1285.39 1273.87 1282.71C1276.8 1278.91 1280.95 1276.25 1284.31 1272.93C1287.92 1269.37 1290.44 1265.19 1293.44 1261.14C1297.35 1255.85 1301.04 1250.51 1302.73 1244.07C1304.22 1238.4 1305.28 1232.65 1307.2 1227.1C1308.41 1223.61 1308.18 1220.56 1306.95 1217.16C1306 1214.52 1302.44 1213.44 1299.89 1213.44C1298.43 1213.44 1295.69 1212.14 1295.69 1214.01" stroke="#DADADA" stroke-width="8" stroke-linecap="round"/>
<path d="M1067.56 1190C1067.56 1195.3 1064.73 1200.51 1063.05 1205.43C1061.06 1211.25 1059.09 1216.93 1059.09 1223.15C1059.09 1232.65 1057.77 1242.03 1065.05 1249.19C1071.28 1255.31 1078.23 1259.23 1086.23 1262.87C1091.52 1265.29 1097.34 1267.28 1103.01 1268.43C1107.59 1269.36 1112.57 1268.87 1117.25 1268.87C1121.89 1268.87 1126.39 1267.11 1130.76 1265.73C1135.63 1264.19 1140.59 1262.19 1144.34 1258.59C1147.61 1255.45 1151.66 1253.7 1153.94 1249.44C1155.54 1246.47 1157.69 1243.36 1158.43 1240.01C1159.1 1236.95 1160.77 1234.02 1161.25 1230.87C1161.73 1227.71 1161.85 1224.66 1161.85 1221.44C1161.85 1217.58 1162.21 1213.54 1161.81 1209.72C1161.54 1207.09 1159 1199.13 1156.76 1198" stroke="#DADADA" stroke-width="8" stroke-linecap="round"/>
<path d="M1187.23 997C1185.66 997.35 1183.15 1000.94 1182.15 1002.27C1179.88 1005.29 1178.16 1008.4 1176.74 1011.88C1174.6 1017.15 1173 1021.81 1173 1027.6C1173 1038.38 1173.12 1050.24 1181.07 1058.53C1194.16 1072.16 1214.87 1076 1232.9 1076C1243.36 1076 1250.15 1071.32 1258.36 1065.3C1266.36 1059.43 1275 1051.86 1278.41 1041.98C1280.32 1036.43 1280.61 1025.36 1278.74 1019.74C1276.64 1013.4 1273.06 1007.45 1271.09 1001.51" stroke="#DADADA" stroke-width="8" stroke-linecap="round"/>
<path d="M943.896 1053C941.102 1053 939.194 1053.86 937.186 1055.84C934.495 1058.5 930.927 1060.99 928.906 1064.2C926.268 1068.38 923.461 1072.13 921.249 1076.6C918.871 1081.4 918.497 1087.81 918.111 1093.07C917.629 1099.64 918.677 1104.76 922.088 1110.42C926.143 1117.14 931.084 1124.63 937.781 1128.94C941.703 1131.46 946.5 1134.53 950.93 1135.71C962.538 1138.81 975.406 1141.22 986.753 1135.71C995.648 1131.39 1005.53 1125.2 1010.35 1116.18C1012 1113.08 1012.74 1109 1013.78 1105.64C1014.58 1103.04 1015 1100.44 1015 1097.74" stroke="#DADADA" stroke-width="8" stroke-linecap="round"/>
<path d="M1046.64 739C1043.03 739 1041 741.451 1038.06 743.315C1034.1 745.822 1030.53 747.959 1026.96 751.106C1021.24 756.152 1018.87 763.051 1018.12 770.734C1016.29 789.37 1036.36 796.829 1050.31 801.808C1057.17 804.26 1065.87 804.805 1073.07 804.805C1081.91 804.805 1091.4 805.859 1099.92 803.067C1105.22 801.329 1109.83 799.57 1114.84 797.014C1117.36 795.727 1120.15 794.729 1122.54 793.178C1124.05 792.196 1127 788.93 1127 787.005" stroke="#DADADA" stroke-width="8" stroke-linecap="round"/>
<path d="M1281.28 844.273C1275.46 844.273 1270.53 840 1264.52 840C1260.76 840 1257.77 841.61 1254.63 843.739C1249.79 847.025 1247.61 854.592 1246.41 859.972C1245.7 863.17 1246.12 866.765 1246.12 870.032C1246.12 873.117 1247.49 875.143 1248.45 877.955C1250.37 883.525 1252.81 888.874 1255.04 894.366C1257.16 899.582 1260.37 906.347 1264.49 910.242C1270.58 916.001 1276.61 926 1286 926" stroke="#DADADA" stroke-width="8" stroke-linecap="round"/>
<path d="M1364.8 985.426C1364.8 983.319 1365.47 989.605 1366.14 991.604C1367.21 994.822 1368.57 997.949 1369.91 1001.03C1372.75 1007.57 1374.96 1014.33 1374.96 1021.57C1374.96 1025.77 1375.05 1029.99 1374.96 1034.19C1374.88 1037.82 1373.07 1041.33 1371.75 1044.63C1369.43 1050.46 1364.47 1055.42 1358.92 1058.06C1357.09 1058.93 1355.01 1059.21 1353.07 1059.82C1351.14 1060.43 1350.72 1059.32 1349 1058.75C1345.31 1057.51 1341.38 1057.09 1337.78 1055.5C1335.74 1054.6 1333.93 1053.27 1331.93 1052.3C1327.81 1050.31 1324.18 1047.2 1320.97 1043.98C1308.66 1031.61 1306 1011.74 1306 995.095" stroke="#DADADA" stroke-width="8" stroke-linecap="round"/>
<path d="M997 1007.96C997 988.4 1021.91 976.37 1037.16 970.136C1042.13 968.101 1047.5 967.098 1052.71 965.855C1057.1 964.807 1061.58 963 1066.12 963C1073.3 963 1079.37 965.524 1086.28 967.44C1090.81 968.697 1095.09 971.923 1098.98 974.418C1101.98 976.346 1105.02 977.712 1107.7 980.127C1111.33 983.389 1115.32 985.333 1118.26 989.405C1120.17 992.053 1123.15 997.518 1123.42 1000.98C1123.57 1003.02 1124.8 1006.13 1125.72 1007.96C1126.81 1010.14 1126.92 1014.79 1126.99 1017.24C1127.11 1021.43 1126.27 1025.39 1126.27 1029.53C1126.27 1032.47 1126.87 1034.54 1124.85 1031.51" stroke="#DADADA" stroke-width="8" stroke-linecap="round"/>
<path d="M1009 1316C1009 1309.22 1007.65 1302.34 1003.97 1296.53C1002.4 1294.06 1001.19 1292.25 999.291 1289.94C997.96 1288.32 996.203 1286.92 995.176 1285.25C993.297 1282.19 986.611 1280.59 983.669 1278.81C977.659 1275.18 969.797 1273.4 963.132 1271.11C952.926 1267.59 939.76 1265.54 929.171 1268.24C925.298 1269.23 920.994 1269.85 917.305 1271.34C914.89 1272.32 908.441 1274.38 907.037 1276.67C906.015 1278.33 904.719 1278.41 904.719 1280.6C904.719 1281.45 904 1284.38 904 1283.82" stroke="#DADADA" stroke-width="8" stroke-linecap="round"/>
<path d="M1060 1340.26C1060 1349.73 1072.05 1354.47 1079.32 1357.4C1083.35 1359.02 1089.98 1359 1094.34 1359C1099.22 1359 1104.13 1358.96 1108.73 1357.16C1114.51 1354.89 1120.33 1353.27 1125.82 1350.35C1128.94 1348.68 1134.3 1347.05 1136.55 1344.22C1140.84 1338.81 1150.74 1334.85 1153 1328" stroke="#DADADA" stroke-width="8" stroke-linecap="round"/>
<path d="M821 1192.83C823.786 1192.58 826.796 1191.21 829.544 1190.51C832.159 1189.85 835.326 1190 837.772 1188.87C842.656 1186.63 849.034 1187.07 854.306 1187.07C859.727 1187.07 865.212 1186.65 870.484 1187.83C875.143 1188.88 881.196 1192.94 884.684 1195.99C886.461 1197.55 888.662 1197.9 890.42 1199.67C891.99 1201.26 894.08 1202.35 895.918 1203.63C899.495 1206.14 902.307 1209.21 905.016 1212.63C909.08 1217.77 910 1238.29 910 1231.71" stroke="#DADADA" stroke-width="8" stroke-linecap="round"/>
<path d="M819.857 941C821.093 941.156 824.995 946.531 825.571 947.839C826.792 950.607 829.316 952.911 830.571 955.757C834.489 964.64 837 972.728 837 982.751C837 992.706 837.042 1002.01 833.746 1011.5C831.123 1019.06 827.582 1024.6 822.873 1031.14C820.187 1034.87 817.092 1038.16 814.302 1041.78C813.143 1043.28 813.214 1045.05 812 1043.22" stroke="#DADADA" stroke-width="8" stroke-linecap="round"/>
<path d="M1321.57 817C1317.24 817.551 1314.22 831.77 1313.22 835.202C1311.66 840.572 1311.39 847.979 1313.62 853.082C1316.41 859.474 1320.43 864.489 1324.41 870.242C1328.73 876.494 1333.72 882.736 1340 887" stroke="#DADADA" stroke-width="8" stroke-linecap="round"/>
<path d="M1350 1220C1349.56 1222.03 1345.08 1224.88 1343.61 1226.53C1340.64 1229.89 1337.73 1233.8 1335.43 1237.66C1332.19 1243.11 1329.27 1248.86 1327.22 1254.88C1325.94 1258.62 1318.45 1279.14 1324.06 1282" stroke="#DADADA" stroke-width="8" stroke-linecap="round"/>
<path d="M897.386 772C897.278 772.874 895.338 774.081 894.71 774.719C892.831 776.629 891.579 779.042 890.399 781.441C887.734 786.857 886.014 791.767 886.014 797.829C886.014 803.128 885.624 806.824 889.024 811.046C891.226 813.78 893.788 815.506 896.754 817.201C901.917 820.152 907.635 820.794 913.441 821.469C920.19 822.252 928.394 822.406 934.848 820.26C943.613 817.346 952.972 814.792 960.938 809.913C966.975 806.216 973.175 802.455 979 798.509" stroke="#DADADA" stroke-width="8" stroke-linecap="round"/>
<path d="M1057 717C1058.43 717.178 1061.17 719.587 1062.46 720.401C1064.99 721.992 1067.52 723.078 1070.11 724.53C1075.26 727.422 1081.13 729.609 1087 730.36C1095.68 731.472 1104.34 730.849 1112.95 730.603C1118.4 730.448 1124.15 729.625 1129 727.202" stroke="#DADADA" stroke-width="8" stroke-linecap="round"/>
<path d="M1150.15 803C1150.15 794.53 1149.12 785.196 1152.5 777.202C1153.58 774.658 1155.08 771.018 1157.55 769.504C1159.73 768.172 1163.42 767.718 1165.9 767.154C1169.54 766.327 1181.89 762.82 1184 767.036" stroke="#DADADA" stroke-width="8" stroke-linecap="round"/>
<path d="M1222 952.988C1222 948.689 1222.78 946.146 1225.45 942.736C1227.71 939.857 1235.02 939.62 1238.32 940.352C1242.46 941.271 1245.98 943.496 1245.98 948.197C1245.98 951.591 1246.27 954.152 1244.41 957" stroke="#DADADA" stroke-width="8" stroke-linecap="round"/>
<path d="M869.292 996C861.655 996 852.09 1003.4 855.841 1011.75C856.724 1013.71 861.09 1017 863.275 1017C866.642 1017 867.364 1016.64 870 1014.9" stroke="#DADADA" stroke-width="8" stroke-linecap="round"/>
<path d="M987 835C987 828.229 995.394 824 1001.67 824C1006.39 824 1008.21 830.938 1006.18 833.9" stroke="#DADADA" stroke-width="8" stroke-linecap="round"/>
<path d="M1211.61 1159C1211.61 1165.32 1208.79 1179.46 1215.3 1183.27C1218.96 1185.42 1220.86 1186 1225.15 1186C1230.78 1186 1231.06 1183.79 1235 1179.86" stroke="#DADADA" stroke-width="8" stroke-linecap="round"/>
<path d="M1162 841C1162.46 843.094 1165.76 844.79 1167.18 846.229C1169.08 848.141 1170.5 850.265 1172.37 852.154C1176.59 856.413 1179.99 860.137 1182.39 865.788C1185.25 872.514 1184.14 883.11 1180.32 889.103C1178.66 891.712 1177.47 893.267 1174.44 894.138C1171.97 894.852 1167.53 898.033 1167.53 893.983" stroke="#DADADA" stroke-width="8" stroke-linecap="round"/>
<g filter="url(#filter2_d_664_1560)">
<path fill-rule="evenodd" clip-rule="evenodd" d="M1337.31 1334.52C1373.34 1298.61 1402.57 1255.87 1422.89 1208.39L1428.34 1171.14L1442.14 1095.24L1454.96 1044.95C1454.47 1012.18 1450.05 980.36 1442.14 949.952L1428.34 928.066L1402.59 865.203L1396.72 842.851C1385.14 823.861 1372.02 805.913 1357.54 789.181L1335.47 776.728L1310.65 757.636L1299.61 734.338C1281.79 720.545 1262.77 708.227 1242.74 697.566H1206.75L1149.74 679.175L1126.3 657.262C1103.32 653.147 1079.66 651 1055.5 651L1038.03 667.298H991.139L980.105 658.113C955.144 662.886 931.008 669.985 907.929 679.175L1010.45 697.566L1087.75 734.338L1149.74 809.351L1206.75 915.208L1219.62 1030.61V1171.14L1149.74 1285.71L1070.12 1366.25L950.683 1393.26L865.174 1402.78C888.261 1415.32 912.721 1425.66 938.27 1433.5L950.683 1427.25L995.276 1433.5L1010.45 1448.48C1025.24 1450.15 1040.27 1451 1055.5 1451C1096.29 1451 1135.66 1444.88 1172.73 1433.5L1219.62 1393.26L1281.68 1357.87L1337.31 1334.52Z" fill="#A19E9E" fill-opacity="0.4" shape-rendering="crispEdges"/>
</g>
<ellipse cx="44.2343" cy="26.1718" rx="44.2343" ry="26.1718" transform="matrix(0.0116381 -0.999932 0.999765 0.0216694 704 1114.46)" fill="#A5A5A5"/>
<ellipse cx="30.064" cy="19.347" rx="30.064" ry="19.347" transform="matrix(0.0685321 -0.997649 0.996205 0.0870418 709.179 1099.23)" fill="#C6C6C6"/>
<ellipse cx="37.1622" cy="20.2241" rx="37.1622" ry="20.2241" transform="matrix(0.475861 -0.87952 0.821228 0.5706 705 900.37)" fill="#A5A5A5"/>
<ellipse cx="25.1184" cy="15.0637" rx="25.1184" ry="15.0637" transform="matrix(0.521224 -0.85342 0.779164 0.62682 714.309 891.236)" fill="#C6C6C6"/>
<ellipse cx="34.1404" cy="20.7384" rx="34.1404" ry="20.7384" transform="matrix(-0.353299 -0.93551 0.923887 -0.382665 725.124 1238.75)" fill="#A5A5A5"/>
<ellipse cx="23.2616" cy="15.2879" rx="23.2616" ry="15.2879" transform="matrix(-0.298193 -0.954506 0.946446 -0.322863 724.6 1226.15)" fill="#C6C6C6"/>
<ellipse cx="35.6757" cy="17.0998" rx="35.6757" ry="17.0998" transform="matrix(0.255309 -0.96686 0.872325 0.488926 672 991.987)" fill="#A5A5A5"/>
<ellipse cx="23.9666" cy="12.8985" rx="23.9666" ry="12.8985" transform="matrix(0.29872 -0.954341 0.832284 0.55435 678.01 981.618)" fill="#C6C6C6"/>
<path d="M742.85 838.733C750.897 838.733 761.376 835.152 767.534 842.429C770.933 846.446 772.825 850.076 774.278 855.16C774.94 857.477 774.409 860.914 774.364 863.287C774.32 865.601 773.476 867.815 773.175 870.074C772.877 872.31 772.136 875.091 771.079 877.056C770.223 878.645 770.157 880.447 769.479 882.092C768.042 885.583 766.654 889.322 765.329 892.899C763.96 896.596 761.549 899.567 759.969 903.123C758.768 905.825 755.527 910.894 752.576 911.877" stroke="#DADADA" stroke-width="6" stroke-linecap="round"/>
<path d="M696.771 1059.84C696.771 1068.86 696.952 1076.95 699.148 1085.73C700.946 1092.92 701.984 1101.35 706.06 1107.69C708.529 1111.53 711.072 1120.03 716.193 1121.17C719.415 1121.88 729.079 1124.3 730.547 1120.63" stroke="#DADADA" stroke-width="6" stroke-linecap="round"/>
<path d="M813.861 1061.53C820.944 1062.12 826.509 1068.18 831.312 1072.5C835.088 1075.9 837.568 1080.61 840.882 1084.29C843.085 1086.74 843.696 1090.92 845.385 1093.74C847.394 1097.09 848.946 1101.13 849.889 1104.9C851.495 1111.33 852.141 1117.31 852.141 1124.01" stroke="#DADADA" stroke-width="6" stroke-linecap="round"/>
<path d="M693.395 1007.49C696.166 1007.49 699.185 1005.77 701.807 1004.95C703.907 1004.3 706.393 1002.7 707.468 1000.73C710.232 995.661 712.685 990.816 713.691 985.281C714.085 983.118 715.104 981.025 715.787 978.901C716.426 976.913 716.318 974.104 717.319 972.302C718.404 970.349 717.33 963.993 719.289 963.014" stroke="#DADADA" stroke-width="6" stroke-linecap="round"/>
<path d="M825.12 774.996C825.12 769.681 831.425 764.623 835.128 761.048C837.989 758.285 842.578 754.968 846.199 753.323C850.99 751.145 856.259 749.042 861.148 747.412" stroke="#DADADA" stroke-width="6" stroke-linecap="round"/>
<path d="M888.289 1382.8C885.926 1378.72 882.376 1374.83 881.629 1369.97C881.158 1366.91 881.37 1362.49 884.051 1360.48C889.208 1356.61 894.911 1353.98 901.569 1353.98C908.646 1353.98 916.505 1352.95 923.287 1355.21C927.137 1356.49 930.906 1357.88 934.848 1358.98C937.648 1359.75 940.396 1361.23 943.129 1362.26C944.422 1362.74 946.171 1363.35 947.172 1364.35C947.522 1364.7 948.088 1365.54 948.402 1365.23" stroke="#DADADA" stroke-width="6" stroke-linecap="round"/>
<path d="M719.959 1231.1C720.119 1232.54 724.619 1235.22 726.129 1235.43C728.106 1235.72 730.46 1236.35 732.381 1236.99C734.501 1237.69 737.321 1237.63 739.559 1237.63C741.18 1237.63 744.585 1238.29 745.932 1237.43C746.836 1236.85 747.908 1236.61 748.916 1236.26C749.984 1235.89 750.881 1235.07 751.981 1234.65C753.674 1234 755.349 1232.34 756.458 1230.92C757.871 1229.1 758.864 1227.23 759.603 1225.01C760.154 1223.36 760.149 1221.62 762.064 1221.3" stroke="#DADADA" stroke-width="6" stroke-linecap="round"/>
<defs>
<filter id="filter0_dddddd_664_1560" x="0.833618" y="0.833618" width="2115.33" height="2102.33" filterUnits="userSpaceOnUse" color-interpolation-filters="sRGB">
<feFlood flood-opacity="0" result="BackgroundImageFix"/>
<feColorMatrix in="SourceAlpha" type="matrix" values="0 0 0 0 0 0 0 0 0 0 0 0 0 0 0 0 0 0 127 0" result="hardAlpha"/>
<feOffset/>
<feGaussianBlur stdDeviation="8.0496"/>
<feColorMatrix type="matrix" values="0 0 0 0 0.85098 0 0 0 0 0.85098 0 0 0 0 0.85098 0 0 0 1 0"/>
<feBlend mode="normal" in2="BackgroundImageFix" result="effect1_dropShadow_664_1560"/>
<feColorMatrix in="SourceAlpha" type="matrix" values="0 0 0 0 0 0 0 0 0 0 0 0 0 0 0 0 0 0 127 0" result="hardAlpha"/>
<feOffset/>
<feGaussianBlur stdDeviation="16.0992"/>
<feColorMatrix type="matrix" values="0 0 0 0 0.85098 0 0 0 0 0.85098 0 0 0 0 0.85098 0 0 0 1 0"/>
<feBlend mode="normal" in2="effect1_dropShadow_664_1560" result="effect2_dropShadow_664_1560"/>
<feColorMatrix in="SourceAlpha" type="matrix" values="0 0 0 0 0 0 0 0 0 0 0 0 0 0 0 0 0 0 127 0" result="hardAlpha"/>
<feOffset/>
<feGaussianBlur stdDeviation="56.3472"/>
<feColorMatrix type="matrix" values="0 0 0 0 0.85098 0 0 0 0 0.85098 0 0 0 0 0.85098 0 0 0 1 0"/>
<feBlend mode="normal" in2="effect2_dropShadow_664_1560" result="effect3_dropShadow_664_1560"/>
<feColorMatrix in="SourceAlpha" type="matrix" values="0 0 0 0 0 0 0 0 0 0 0 0 0 0 0 0 0 0 127 0" result="hardAlpha"/>
<feOffset/>
<feGaussianBlur stdDeviation="112.694"/>
<feColorMatrix type="matrix" values="0 0 0 0 0.85098 0 0 0 0 0.85098 0 0 0 0 0.85098 0 0 0 1 0"/>
<feBlend mode="normal" in2="effect3_dropShadow_664_1560" result="effect4_dropShadow_664_1560"/>
<feColorMatrix in="SourceAlpha" type="matrix" values="0 0 0 0 0 0 0 0 0 0 0 0 0 0 0 0 0 0 127 0" result="hardAlpha"/>
<feOffset/>
<feGaussianBlur stdDeviation="193.19"/>
<feColorMatrix type="matrix" values="0 0 0 0 0.85098 0 0 0 0 0.85098 0 0 0 0 0.85098 0 0 0 1 0"/>
<feBlend mode="normal" in2="effect4_dropShadow_664_1560" result="effect5_dropShadow_664_1560"/>
<feColorMatrix in="SourceAlpha" type="matrix" values="0 0 0 0 0 0 0 0 0 0 0 0 0 0 0 0 0 0 127 0" result="hardAlpha"/>
<feOffset/>
<feGaussianBlur stdDeviation="338.083"/>
<feColorMatrix type="matrix" values="0 0 0 0 0.85098 0 0 0 0 0.85098 0 0 0 0 0.85098 0 0 0 1 0"/>
<feBlend mode="normal" in2="effect5_dropShadow_664_1560" result="effect6_dropShadow_664_1560"/>
<feBlend mode="normal" in="SourceGraphic" in2="effect6_dropShadow_664_1560" result="shape"/>
</filter>
<filter id="filter1_d_664_1560" x="652" y="651" width="806.955" height="808" filterUnits="userSpaceOnUse" color-interpolation-filters="sRGB">
<feFlood flood-opacity="0" result="BackgroundImageFix"/>
<feColorMatrix in="SourceAlpha" type="matrix" values="0 0 0 0 0 0 0 0 0 0 0 0 0 0 0 0 0 0 127 0" result="hardAlpha"/>
<feOffset dy="4"/>
<feGaussianBlur stdDeviation="2"/>
<feComposite in2="hardAlpha" operator="out"/>
<feColorMatrix type="matrix" values="0 0 0 0 0 0 0 0 0 0 0 0 0 0 0 0 0 0 0.25 0"/>
<feBlend mode="normal" in2="BackgroundImageFix" result="effect1_dropShadow_664_1560"/>
<feBlend mode="normal" in="SourceGraphic" in2="effect1_dropShadow_664_1560" result="shape"/>
</filter>
<filter id="filter2_d_664_1560" x="861.174" y="651" width="597.781" height="808" filterUnits="userSpaceOnUse" color-interpolation-filters="sRGB">
<feFlood flood-opacity="0" result="BackgroundImageFix"/>
<feColorMatrix in="SourceAlpha" type="matrix" values="0 0 0 0 0 0 0 0 0 0 0 0 0 0 0 0 0 0 127 0" result="hardAlpha"/>
<feOffset dy="4"/>
<feGaussianBlur stdDeviation="2"/>
<feComposite in2="hardAlpha" operator="out"/>
<feColorMatrix type="matrix" values="0 0 0 0 0 0 0 0 0 0 0 0 0 0 0 0 0 0 0.25 0"/>
<feBlend mode="normal" in2="BackgroundImageFix" result="effect1_dropShadow_664_1560"/>
<feBlend mode="normal" in="SourceGraphic" in2="effect1_dropShadow_664_1560" result="shape"/>
</filter>
</defs>
</svg>
