<svg width="1563" height="1543" viewBox="0 0 1563 1543" fill="none" xmlns="http://www.w3.org/2000/svg">
<g filter="url(#filter0_dddddd_696_82)">
<ellipse cx="781.581" cy="771.507" rx="105" ry="95" fill="#6A4848"/>
</g>
<path d="M740.581 866C740.581 868.667 740.581 868.667 740.581 866" stroke="white" stroke-width="3" stroke-linecap="round"/>
<ellipse cx="781.081" cy="773.007" rx="114.5" ry="120.5" fill="#FF9A50"/>
<ellipse cx="239.326" cy="60.0768" rx="239.326" ry="60.0768" transform="matrix(0.950605 -0.310403 0.262767 0.964859 539 789.575)" fill="#FF9A50"/>
<ellipse cx="782.081" cy="772.507" rx="93.5" ry="99" fill="#C37D4A"/>
<ellipse cx="194.135" cy="49.5943" rx="194.135" ry="49.5943" transform="matrix(0.948645 -0.316341 0.25767 0.966233 585.659 786.625)" fill="#C37D4A"/>
<path d="M946.131 715.506C948.655 724.974 880.894 778.681 790.241 808.911C699.589 839.14 620.375 834.444 617.85 824.977C615.326 815.51 684.218 827.263 774.87 797.033C865.523 766.804 943.606 706.039 946.131 715.506Z" fill="#E0AC86"/>
<path d="M802.581 697.788C802.581 700.61 793.179 694.213 781.581 694.213C769.983 694.213 760.581 700.61 760.581 697.788C760.581 694.967 769.983 684.507 781.581 684.507C793.179 684.507 802.581 694.967 802.581 697.788Z" fill="#E0AC86"/>
<defs>
<filter id="filter0_dddddd_696_82" x="0.414673" y="0.340454" width="1562.33" height="1542.33" filterUnits="userSpaceOnUse" color-interpolation-filters="sRGB">
<feFlood flood-opacity="0" result="BackgroundImageFix"/>
<feColorMatrix in="SourceAlpha" type="matrix" values="0 0 0 0 0 0 0 0 0 0 0 0 0 0 0 0 0 0 127 0" result="hardAlpha"/>
<feOffset/>
<feGaussianBlur stdDeviation="8.0496"/>
<feColorMatrix type="matrix" values="0 0 0 0 0.85098 0 0 0 0 0.85098 0 0 0 0 0.85098 0 0 0 1 0"/>
<feBlend mode="normal" in2="BackgroundImageFix" result="effect1_dropShadow_696_82"/>
<feColorMatrix in="SourceAlpha" type="matrix" values="0 0 0 0 0 0 0 0 0 0 0 0 0 0 0 0 0 0 127 0" result="hardAlpha"/>
<feOffset/>
<feGaussianBlur stdDeviation="16.0992"/>
<feColorMatrix type="matrix" values="0 0 0 0 0.85098 0 0 0 0 0.85098 0 0 0 0 0.85098 0 0 0 1 0"/>
<feBlend mode="normal" in2="effect1_dropShadow_696_82" result="effect2_dropShadow_696_82"/>
<feColorMatrix in="SourceAlpha" type="matrix" values="0 0 0 0 0 0 0 0 0 0 0 0 0 0 0 0 0 0 127 0" result="hardAlpha"/>
<feOffset/>
<feGaussianBlur stdDeviation="56.3472"/>
<feColorMatrix type="matrix" values="0 0 0 0 0.85098 0 0 0 0 0.85098 0 0 0 0 0.85098 0 0 0 1 0"/>
<feBlend mode="normal" in2="effect2_dropShadow_696_82" result="effect3_dropShadow_696_82"/>
<feColorMatrix in="SourceAlpha" type="matrix" values="0 0 0 0 0 0 0 0 0 0 0 0 0 0 0 0 0 0 127 0" result="hardAlpha"/>
<feOffset/>
<feGaussianBlur stdDeviation="112.694"/>
<feColorMatrix type="matrix" values="0 0 0 0 0.85098 0 0 0 0 0.85098 0 0 0 0 0.85098 0 0 0 1 0"/>
<feBlend mode="normal" in2="effect3_dropShadow_696_82" result="effect4_dropShadow_696_82"/>
<feColorMatrix in="SourceAlpha" type="matrix" values="0 0 0 0 0 0 0 0 0 0 0 0 0 0 0 0 0 0 127 0" result="hardAlpha"/>
<feOffset/>
<feGaussianBlur stdDeviation="193.19"/>
<feColorMatrix type="matrix" values="0 0 0 0 0.85098 0 0 0 0 0.85098 0 0 0 0 0.85098 0 0 0 1 0"/>
<feBlend mode="normal" in2="effect4_dropShadow_696_82" result="effect5_dropShadow_696_82"/>
<feColorMatrix in="SourceAlpha" type="matrix" values="0 0 0 0 0 0 0 0 0 0 0 0 0 0 0 0 0 0 127 0" result="hardAlpha"/>
<feOffset/>
<feGaussianBlur stdDeviation="338.083"/>
<feColorMatrix type="matrix" values="0 0 0 0 0.85098 0 0 0 0 0.85098 0 0 0 0 0.85098 0 0 0 1 0"/>
<feBlend mode="normal" in2="effect5_dropShadow_696_82" result="effect6_dropShadow_696_82"/>
<feBlend mode="normal" in="SourceGraphic" in2="effect6_dropShadow_696_82" result="shape"/>
</filter>
</defs>
</svg>
