<svg width="1477" height="3127" viewBox="0 0 1477 3127" fill="none" xmlns="http://www.w3.org/2000/svg">
<path d="M1066 806.135L1070.24 891.165L1126 897.635L1070.24 904.105L1066 989.135L1061.76 904.105L1006 897.635L1061.76 891.165L1066 806.135Z" fill="#F6E9A5"/>
<path d="M527 173.135H531.381" stroke="white" stroke-width="3" stroke-linecap="round"/>
<path d="M708.167 280.135H706" stroke="white" stroke-width="3" stroke-linecap="round"/>
<path d="M478 103.135H476" stroke="white" stroke-width="3" stroke-linecap="round"/>
<path d="M596 243.135C597.843 242.905 597.325 242.486 598 241.135" stroke="white" stroke-width="3" stroke-linecap="round"/>
<path d="M474 263.135V266.135" stroke="white" stroke-width="3" stroke-linecap="round"/>
<path d="M566.844 412.135C566.844 416.63 568.351 419.169 562 421.135" stroke="white" stroke-width="3" stroke-linecap="round"/>
<path d="M799 699.135C798.852 700.307 797.996 700.125 797 700.125" stroke="white" stroke-width="3" stroke-linecap="round"/>
<path d="M853.618 461.378C851.142 464.415 849.339 466.524 848.024 467.863C847.366 468.534 846.846 468.995 846.438 469.282C846.008 469.583 845.791 469.627 845.715 469.623C845.696 469.622 845.686 469.619 845.668 469.604C845.642 469.582 845.596 469.53 845.545 469.416C845.438 469.181 845.358 468.799 845.308 468.244C845.232 467.414 845.229 466.32 845.225 464.996C845.224 464.557 845.223 464.093 845.219 463.604C845.154 455.828 844.385 442.541 831.445 433.274C824.988 428.651 815.91 425.738 806.299 423.577C799.916 422.143 793.251 421.031 786.931 419.977C783.738 419.445 780.633 418.927 777.696 418.389C773.309 417.586 769.292 416.739 765.886 415.733C762.474 414.725 759.716 413.568 757.819 412.164C755.936 410.77 754.934 409.161 754.935 407.216C754.936 405.242 755.97 402.822 758.415 399.823C778.044 375.745 814.426 370.884 839.677 388.966C864.987 407.091 873.203 437.354 853.618 461.378Z" fill="url(#paint0_linear_628_58)" stroke="black"/>
<path d="M640.37 574.123C671.205 572.6 626.622 566.906 624.935 536.9C623.248 506.893 666.16 459.583 635.324 461.106C604.489 462.629 580.86 488.189 582.547 518.195C584.235 548.201 609.534 575.646 640.37 574.123Z" fill="url(#paint1_linear_628_58)"/>
<path opacity="0.65" fill-rule="evenodd" clip-rule="evenodd" d="M630.476 447.135L774.34 457.077L797.287 487.222C797.287 487.222 836.647 572.769 865.41 594.766C894.173 616.764 905.779 579.286 926.973 603.728C948.166 628.17 926.973 643.65 942.111 680.313C957.249 716.976 1019.32 696.608 1031.93 716.976C1044.55 737.344 1001.66 774.007 1031.93 786.228C1062.21 798.449 1076.84 751.195 1076.84 751.195C1102.58 680.313 1158.59 693.349 1177.26 751.195C1195.93 809.041 1142.95 909.252 1177.26 961.395C1211.57 1013.54 1256.48 972.801 1276.16 1026.57C1295.84 1080.35 1227.72 1161.82 1244.88 1222.92C1262.04 1284.03 1341.76 1276.7 1371.03 1316.62C1400.3 1356.54 1360.43 1389.94 1371.03 1447.79C1381.63 1505.64 1477 1600.14 1477 1600.14V3126.14H23.7168V1600.14C23.7168 1600.14 47.4335 1648.21 67.1134 1600.14C86.7933 1552.08 30.7813 1464.9 67.1134 1403.79C103.446 1342.69 199.826 1386.68 188.725 1316.62C177.624 1246.55 177.624 1236.77 211.433 1191.15C245.242 1145.52 278.041 1208.26 323.456 1149.6C368.872 1090.94 302.767 1062.42 323.456 961.395C344.146 860.369 435.985 961.395 435.985 961.395C435.985 961.395 464.748 989.911 495.025 977.69C525.301 965.469 536.403 892.958 561.633 875.034C586.864 857.11 618.15 883.181 636.821 875.034C655.491 866.886 644.39 838.371 655.491 823.706C666.593 809.041 681.731 823.706 693.842 809.041C705.953 794.375 711.687 754.895 713.522 716.976C715.9 667.813 693.842 594.766 693.842 594.766L630.476 447.135Z" fill="url(#paint2_linear_628_58)"/>
<path fill-rule="evenodd" clip-rule="evenodd" d="M794.933 494.164C811.441 472.804 787.472 423.414 690.628 215.551C615.501 93.2806 521.988 43.4264 456.125 56.0443L577.979 215.551L742.54 522.194C767.642 508.646 786.53 505.036 794.933 494.164Z" fill="#BC63AD"/>
<path d="M477.271 330.704C694.564 574.839 668.119 562.361 742.54 522.194L577.979 215.551L456.125 56.0443C397.566 106.758 402.145 208.433 477.271 330.704Z" fill="#C981BD"/>
<path d="M812.714 539.096C835.787 565.131 797.192 589.676 817.655 631.593C736.535 588.21 750.581 633.893 711.566 582.331C685.88 535.654 700.237 539.845 742.111 519.604C783.984 499.363 787.028 492.419 812.714 539.096Z" fill="#EF592A"/>
<path d="M795.136 541.656C811.274 555.902 784.843 575.198 799.313 599.755C742.973 580.165 753.045 607.732 725.694 578.869C707.581 551.805 717.523 553.064 746.251 536.175C774.98 519.286 777.023 514.592 795.136 541.656Z" fill="#FF9A50"/>
<path fill-rule="evenodd" clip-rule="evenodd" d="M521.832 84.4359C521.943 83.0447 522 81.6389 522 80.2205C522 77.5621 521.801 74.9483 521.416 72.3917C521.279 71.4809 519.498 61.7774 519.314 60.8817L513.5 59.0782L511 58.1386L506.5 56.7291L500.5 54.8498L495 52.9705L487.084 50.4111L482.607 48.9055L475.743 47.0989L471.267 46.1956L467.387 45.5934L462.911 44.9912H459.33H453.66L448.885 45.5934L445.602 46.1956L444.408 47.4L439.634 52.2177L436.351 56.7343L433.665 60.9497L431.874 63.6597L428.89 69.9829L426.503 76.005L425.309 79.6182L424.115 84.4359L423.22 88.0492L422.623 92.5658L422.026 96.4801L421.5 101.72C421.5 101.72 421.178 105.376 421 107.72C420.778 110.647 420.5 115.22 420.5 115.22C421.081 115.868 422.906 116.978 423.518 117.599C424.146 118.236 424.79 118.859 425.449 119.466C426.368 120.313 427.317 121.13 428.293 121.917C429.134 122.595 429.997 123.25 430.878 123.881C431.536 124.351 432.205 124.809 432.884 125.253C435.732 127.113 438.764 128.732 441.951 130.081C442.605 130.358 443.267 130.624 443.934 130.878C444.876 131.236 445.83 131.571 446.796 131.882C447.605 132.143 448.423 132.386 449.248 132.613C451.08 133.115 452.951 133.533 454.853 133.86C455.84 134.029 456.835 134.174 457.838 134.294C458.432 134.366 459.029 134.428 459.628 134.482C460.419 134.552 461.215 134.608 462.016 134.647C463.004 134.696 463.999 134.72 465 134.72C465.861 134.72 466.718 134.702 467.569 134.666C469.063 134.603 470.542 134.484 472.004 134.313C473.468 134.142 474.914 133.917 476.34 133.642C477.142 133.487 477.938 133.316 478.728 133.129C479.767 132.884 480.795 132.611 481.81 132.312C482.378 132.144 482.942 131.969 483.503 131.785C484.43 131.481 485.347 131.154 486.253 130.806C486.757 130.612 487.259 130.411 487.756 130.204C489.494 129.48 491.186 128.675 492.828 127.795C493.55 127.408 494.263 127.006 494.965 126.591C495.705 126.153 496.433 125.699 497.15 125.23C497.753 124.836 498.347 124.431 498.933 124.015C499.881 123.343 500.806 122.643 501.707 121.917C502.522 121.26 503.319 120.581 504.094 119.882C505.019 119.048 505.915 118.185 506.78 117.294C507.393 116.663 507.99 116.019 508.571 115.361C509.068 114.798 509.553 114.225 510.027 113.643C510.551 112.998 511.061 112.342 511.555 111.674C512.1 110.938 512.625 110.189 513.132 109.428C513.722 108.541 514.285 107.638 514.822 106.718C515.649 105.298 516.413 103.839 517.108 102.344C517.407 101.701 517.694 101.051 517.967 100.394C518.459 99.2164 518.908 98.0181 519.314 96.8012C519.614 95.9012 519.891 94.991 520.143 94.0713C520.761 91.8165 521.231 89.5047 521.544 87.1459C521.663 86.2492 521.759 85.3457 521.832 84.4359Z" fill="url(#paint3_linear_628_58)"/>
<path d="M788.491 545.253C799.954 554.939 779.91 569.323 789.836 586.37C748.921 573.944 755.518 593.241 736.232 573.476C723.696 554.747 730.982 555.379 752.647 542.643C774.311 529.907 775.956 526.523 788.491 545.253Z" fill="#FFEF5D"/>
<path d="M616.5 232.135C616.5 257.68 593.586 278.635 565 278.635C536.414 278.635 513.5 257.68 513.5 232.135C513.5 206.59 536.414 185.635 565 185.635C593.586 185.635 616.5 206.59 616.5 232.135Z" fill="url(#paint4_linear_628_58)" stroke="#CC67BC" stroke-width="3"/>
<path d="M678.998 459.721L711.134 495.376L698.321 506.925L688.78 496.34L662.596 519.94L649.541 505.455L675.725 481.855L666.185 471.27L678.998 459.721Z" fill="white"/>
<path d="M630.112 443.278L657.087 435.119L671.147 450.718L632.149 485.867L619.094 471.383L638.036 454.31L611.06 462.469L597.001 446.87L635.998 411.721L649.053 426.206L630.112 443.278Z" fill="white"/>
<path d="M603.273 413.534L602.994 413.785C603.191 414.079 603.402 414.462 603.625 414.933C603.919 415.409 604.276 416.366 604.697 417.804C605.189 419.245 605.452 420.657 605.487 422.04C605.558 423.389 605.247 424.948 604.553 426.718C603.93 428.491 602.839 430.08 601.279 431.486C597.936 434.499 593.871 435.403 589.083 434.199C584.329 433.032 578.989 429.161 573.064 422.587C570.688 419.95 568.3 417.189 565.9 414.303C563.464 411.45 561.649 409.25 560.455 407.701L558.558 405.372L597.555 370.223C602.613 375.088 607.736 380.399 612.925 386.156C618.248 392.061 621.193 397.383 621.761 402.121C622.33 406.859 621.035 410.651 617.878 413.496C616.616 414.634 615.249 415.395 613.777 415.779C612.339 416.2 611.024 416.309 609.83 416.105C608.637 415.902 607.537 415.614 606.53 415.243C605.522 414.873 604.745 414.496 604.199 414.114L603.273 413.534ZM601.14 393.244L596.126 397.763L597.883 399.713C598.72 400.642 599.631 401.167 600.616 401.289C601.601 401.411 602.446 401.154 603.152 400.518C603.858 399.882 604.201 399.067 604.181 398.075C604.162 397.083 603.734 396.122 602.897 395.194L601.14 393.244ZM583.092 413.549C585.101 415.777 587.034 416.055 588.891 414.381C590.748 412.707 590.672 410.756 588.663 408.528L586.655 406.299L581.084 411.321L583.092 413.549Z" fill="white"/>
<path d="M581.364 348.083L552.66 394.653L538.098 378.497L542.665 372.361L536.138 365.119L529.562 369.026L515.001 352.87L564.292 329.142L581.364 348.083ZM546.558 358.756L550.073 362.656L558.343 351.668L546.558 358.756Z" fill="white"/>
<path d="M499.875 326.769L494.932 330.17L483.879 314.105L488.822 310.704C484.118 303.866 482.027 297.475 482.55 291.532C483.073 285.588 485.765 280.944 490.626 277.6C495.487 274.256 500.786 273.401 506.524 275.037C512.262 276.673 517.483 280.91 522.188 287.748L527.131 284.347L538.184 300.412L533.241 303.813C537.945 310.65 540.036 317.041 539.513 322.985C538.99 328.928 536.298 333.572 531.437 336.916C526.576 340.261 521.277 341.115 515.539 339.479C509.801 337.843 504.58 333.607 499.875 326.769ZM499.326 303.477L511.684 294.975C510.607 293.409 509.123 292.488 507.233 292.21C505.343 291.933 503.492 292.418 501.679 293.665C499.867 294.912 498.752 296.468 498.336 298.332C497.919 300.197 498.249 301.912 499.326 303.477ZM522.737 311.039L510.379 319.542C511.456 321.107 512.94 322.028 514.83 322.306C516.72 322.583 518.572 322.099 520.384 320.852C522.197 319.605 523.311 318.049 523.728 316.184C524.144 314.32 523.814 312.605 522.737 311.039Z" fill="white"/>
<path d="M508.808 257.227L461.031 278.99L452.947 261.245L486.391 246.011L483.593 239.868C471.535 245.36 461.947 247.53 454.829 246.377C447.731 245.27 442.825 241.736 440.109 235.775C439.653 234.774 439.257 233.663 438.921 232.443C438.539 231.243 438.295 230.284 438.186 229.564L438.024 228.484L450.992 222.577L451.614 223.942C452.236 225.307 453.141 226.268 454.329 226.826C455.583 227.408 457.545 227.613 460.213 227.442C462.903 227.315 466.763 226.381 471.794 224.639C476.869 222.876 483.093 220.316 490.464 216.958L508.808 257.227Z" fill="white"/>
<path d="M482.942 193.392L434.175 218.18L430.166 196.802L437.261 193.946L435.464 184.363L427.816 184.271L423.808 162.893L478.242 168.329L482.942 193.392ZM447.673 184.362L448.641 189.522L461.426 184.454L447.673 184.362Z" fill="white"/>
<defs>
<linearGradient id="paint0_linear_628_58" x1="871.763" y1="495.112" x2="800.42" y2="437.533" gradientUnits="userSpaceOnUse">
<stop stop-color="#FFE998"/>
<stop offset="1" stop-color="#CB66BB"/>
</linearGradient>
<linearGradient id="paint1_linear_628_58" x1="619.123" y1="575.173" x2="613.542" y2="462.182" gradientUnits="userSpaceOnUse">
<stop stop-color="#F5CE9A"/>
<stop offset="0.621914" stop-color="#CA65BA"/>
</linearGradient>
<linearGradient id="paint2_linear_628_58" x1="738.5" y1="457.077" x2="738.5" y2="3126.13" gradientUnits="userSpaceOnUse">
<stop stop-color="white"/>
<stop offset="1" stop-color="#552562"/>
</linearGradient>
<linearGradient id="paint3_linear_628_58" x1="424.115" y1="25.7205" x2="465.643" y2="134.475" gradientUnits="userSpaceOnUse">
<stop offset="0.0768921" stop-color="#FFE791"/>
<stop offset="1" stop-color="#CA65BA"/>
</linearGradient>
<linearGradient id="paint4_linear_628_58" x1="565" y1="184.135" x2="565" y2="280.135" gradientUnits="userSpaceOnUse">
<stop stop-color="#FFE484"/>
<stop offset="1" stop-color="white"/>
</linearGradient>
</defs>
</svg>
