<svg width="1477" height="3139" viewBox="0 0 1477 3139" fill="none" xmlns="http://www.w3.org/2000/svg">
<path opacity="0.65" fill-rule="evenodd" clip-rule="evenodd" d="M630.476 460L774.34 469.942L797.287 500.087C797.287 500.087 836.647 585.633 865.41 607.631C894.173 629.629 905.779 592.151 926.973 616.593C948.166 641.035 926.973 656.515 942.111 693.178C957.249 729.841 1019.32 709.472 1031.93 729.841C1044.55 750.209 1001.66 786.872 1031.93 799.093C1062.21 811.314 1076.84 764.059 1076.84 764.059C1102.58 693.178 1158.59 706.213 1177.26 764.059C1195.93 821.905 1142.95 922.117 1177.26 974.26C1211.57 1026.4 1256.48 985.666 1276.16 1039.44C1295.84 1093.21 1227.72 1174.68 1244.88 1235.79C1262.04 1296.89 1341.76 1289.56 1371.03 1329.48C1400.3 1369.4 1360.43 1402.81 1371.03 1460.65C1381.63 1518.5 1477 1613.01 1477 1613.01V3139H23.7168V1613.01C23.7168 1613.01 47.4335 1661.08 67.1134 1613.01C86.7933 1564.94 30.7813 1477.76 67.1134 1416.66C103.446 1355.55 199.826 1399.55 188.725 1329.48C177.624 1259.42 177.624 1249.64 211.433 1204.01C245.242 1158.39 278.041 1221.12 323.456 1162.46C368.872 1103.8 302.767 1075.29 323.456 974.26C344.146 873.233 435.985 974.26 435.985 974.26C435.985 974.26 464.748 1002.78 495.025 990.555C525.301 978.334 536.403 905.823 561.633 887.898C586.864 869.974 618.15 896.046 636.821 887.898C655.491 879.751 644.39 851.236 655.491 836.57C666.593 821.905 681.731 836.57 693.842 821.905C705.952 807.24 711.687 767.76 713.522 729.841C715.9 680.678 693.842 607.631 693.842 607.631L630.476 460Z" fill="url(#paint0_linear_711_34)"/>
<path d="M514.727 172.415H519.108" stroke="white" stroke-width="3" stroke-linecap="round"/>
<path d="M695.893 279.415H693.727" stroke="white" stroke-width="3" stroke-linecap="round"/>
<path d="M465.727 102.415H463.727" stroke="white" stroke-width="3" stroke-linecap="round"/>
<path d="M583.727 242.415C585.569 242.185 585.051 241.766 585.727 240.415" stroke="white" stroke-width="3" stroke-linecap="round"/>
<path d="M461.727 262.415V265.415" stroke="white" stroke-width="3" stroke-linecap="round"/>
<path d="M554.57 411.415C554.57 415.91 556.078 418.448 549.727 420.415" stroke="white" stroke-width="3" stroke-linecap="round"/>
<path d="M841.344 460.658C838.869 463.695 837.066 465.803 835.751 467.143C835.092 467.814 834.572 468.275 834.164 468.562C833.735 468.863 833.517 468.907 833.441 468.903C833.422 468.902 833.412 468.899 833.395 468.884C833.369 468.862 833.323 468.81 833.271 468.696C833.165 468.461 833.085 468.079 833.034 467.523C832.958 466.693 832.955 465.6 832.952 464.276C832.951 463.837 832.949 463.373 832.945 462.884C832.881 455.108 832.112 441.821 819.171 432.554C812.715 427.931 803.636 425.018 794.025 422.857C787.642 421.422 780.978 420.311 774.657 419.257C771.464 418.724 768.359 418.207 765.422 417.669C761.035 416.866 757.018 416.019 753.613 415.013C750.201 414.004 747.443 412.848 745.546 411.444C743.663 410.05 742.661 408.441 742.662 406.496C742.663 404.522 743.697 402.102 746.142 399.102C765.77 375.025 802.152 370.164 827.403 388.246C852.714 406.371 860.93 436.633 841.344 460.658Z" fill="url(#paint1_linear_711_34)" stroke="black"/>
<path d="M628.097 573.403C658.932 571.88 614.349 566.186 612.662 536.18C610.975 506.173 653.887 458.863 623.051 460.386C592.216 461.909 568.587 487.469 570.274 517.475C571.962 547.481 597.261 574.926 628.097 573.403Z" fill="url(#paint2_linear_711_34)"/>
<path fill-rule="evenodd" clip-rule="evenodd" d="M782.659 493.443C799.168 472.083 775.199 422.693 678.354 214.83C603.228 92.5599 509.714 42.7057 443.852 55.3236L565.706 214.83L730.267 521.473C755.369 507.925 774.257 504.315 782.659 493.443Z" fill="#BC63AD"/>
<path d="M464.998 329.983C682.29 574.118 655.846 561.64 730.267 521.473L565.706 214.83L443.852 55.3236C385.293 106.037 389.871 207.712 464.998 329.983Z" fill="#C981BD"/>
<path d="M800.441 538.376C823.513 564.411 784.918 588.956 805.382 630.873C724.261 587.49 738.308 633.173 699.293 581.611C673.607 534.934 687.964 539.125 729.837 518.884C771.71 498.643 774.755 491.699 800.441 538.376Z" fill="#EF592A"/>
<path d="M782.862 540.936C799 555.181 772.57 574.477 787.039 599.034C730.699 579.445 740.771 607.011 713.42 578.148C695.307 551.085 705.25 552.343 733.978 535.454C762.706 518.565 764.749 513.872 782.862 540.936Z" fill="#FF9A50"/>
<path fill-rule="evenodd" clip-rule="evenodd" d="M509.559 83.7155C509.67 82.3243 509.727 80.9185 509.727 79.5C509.727 76.8417 509.528 74.2278 509.143 71.6713C509.006 70.7605 507.224 61.0569 507.041 60.1613L501.227 58.3578L498.727 57.4181L494.227 56.0086L488.227 54.1293L482.727 52.25L474.81 49.6906L470.334 48.1851L463.47 46.3785L458.994 45.4751L455.114 44.8729L450.638 44.2707H447.056H441.386L436.611 44.8729L433.329 45.4751L432.135 46.6796L427.36 51.4972L424.077 56.0138L421.391 60.2293L419.601 62.9392L416.617 69.2624L414.229 75.2845L413.035 78.8978L411.842 83.7155L410.946 87.3287L410.35 91.8453L409.753 95.7597L409.227 101C409.227 101 408.905 104.655 408.727 107C408.504 109.927 408.227 114.5 408.227 114.5C408.808 115.148 410.633 116.258 411.245 116.879C411.873 117.516 412.517 118.138 413.176 118.746C414.095 119.592 415.043 120.41 416.02 121.196C416.861 121.874 417.723 122.529 418.605 123.16C419.263 123.631 419.932 124.088 420.611 124.532C423.458 126.392 426.491 128.012 429.677 129.36C430.332 129.637 430.993 129.903 431.661 130.157C432.603 130.515 433.557 130.85 434.522 131.161C435.332 131.422 436.149 131.666 436.975 131.892C438.807 132.395 440.677 132.812 442.58 133.139C443.566 133.308 444.561 133.454 445.564 133.574C446.158 133.645 446.755 133.708 447.355 133.761C448.146 133.832 448.942 133.887 449.742 133.927C450.731 133.975 451.726 134 452.727 134C453.588 134 454.444 133.982 455.296 133.946C456.79 133.882 458.269 133.764 459.731 133.593C461.194 133.421 462.64 133.197 464.067 132.921C464.869 132.767 465.665 132.596 466.454 132.409C467.493 132.163 468.521 131.89 469.537 131.591C470.105 131.424 470.669 131.248 471.229 131.064C472.157 130.76 473.074 130.434 473.979 130.086C474.484 129.892 474.985 129.691 475.483 129.483C477.22 128.759 478.913 127.955 480.555 127.075C481.277 126.688 481.99 126.286 482.692 125.87C483.431 125.432 484.16 124.979 484.876 124.51C485.479 124.115 486.074 123.71 486.659 123.295C487.607 122.622 488.532 121.923 489.433 121.196C490.249 120.539 491.045 119.861 491.821 119.161C492.746 118.328 493.642 117.465 494.507 116.574C495.119 115.943 495.716 115.298 496.297 114.64C496.794 114.078 497.28 113.505 497.753 112.923C498.278 112.278 498.787 111.621 499.282 110.953C499.826 110.218 500.352 109.469 500.859 108.707C501.448 107.821 502.012 106.917 502.548 105.997C503.376 104.577 504.139 103.118 504.834 101.624C505.134 100.98 505.42 100.33 505.694 99.674C506.185 98.496 506.635 97.2976 507.041 96.0808C507.341 95.1807 507.617 94.2705 507.869 93.3508C508.487 91.096 508.958 88.7842 509.271 86.4254C509.39 85.5287 509.486 84.6252 509.559 83.7155Z" fill="url(#paint3_linear_711_34)"/>
<path d="M776.217 544.533C787.68 554.219 767.637 568.603 777.563 585.649C736.647 573.224 743.245 592.521 723.958 572.756C711.423 554.026 718.709 554.659 740.373 541.923C762.037 529.187 763.682 525.803 776.217 544.533Z" fill="#FFEF5D"/>
<path d="M604.227 231.415C604.227 256.96 581.313 277.915 552.727 277.915C524.141 277.915 501.227 256.96 501.227 231.415C501.227 205.87 524.141 184.915 552.727 184.915C581.313 184.915 604.227 205.87 604.227 231.415Z" fill="url(#paint4_linear_711_34)" stroke="#CC67BC" stroke-width="3"/>
<defs>
<linearGradient id="paint0_linear_711_34" x1="738.5" y1="469.942" x2="738.5" y2="3139" gradientUnits="userSpaceOnUse">
<stop stop-color="white"/>
<stop offset="1" stop-color="#552562"/>
</linearGradient>
<linearGradient id="paint1_linear_711_34" x1="859.49" y1="494.392" x2="788.147" y2="436.812" gradientUnits="userSpaceOnUse">
<stop stop-color="#FFE998"/>
<stop offset="1" stop-color="#CB66BB"/>
</linearGradient>
<linearGradient id="paint2_linear_711_34" x1="606.85" y1="574.452" x2="601.269" y2="461.462" gradientUnits="userSpaceOnUse">
<stop stop-color="#F5CE9A"/>
<stop offset="0.621914" stop-color="#CA65BA"/>
</linearGradient>
<linearGradient id="paint3_linear_711_34" x1="411.842" y1="25" x2="453.369" y2="133.755" gradientUnits="userSpaceOnUse">
<stop offset="0.0768921" stop-color="#FFE791"/>
<stop offset="1" stop-color="#CA65BA"/>
</linearGradient>
<linearGradient id="paint4_linear_711_34" x1="552.727" y1="183.415" x2="552.727" y2="279.415" gradientUnits="userSpaceOnUse">
<stop stop-color="#FFE484"/>
<stop offset="1" stop-color="white"/>
</linearGradient>
</defs>
</svg>
