<svg width="697" height="736" viewBox="0 0 697 736" fill="none" xmlns="http://www.w3.org/2000/svg">
<path d="M337 241H342" stroke="white" stroke-width="3" stroke-linecap="round"/>
<path d="M322.071 350.332C322.167 354.928 317.806 350.24 316.781 348.972" stroke="white" stroke-width="3" stroke-linecap="round"/>
<path d="M242.227 452.271C242.155 455.723 238.825 452.125 238.048 451.154" stroke="white" stroke-width="3" stroke-linecap="round"/>
<path d="M326.967 491.803L329.641 498.189" stroke="white" stroke-width="3" stroke-linecap="round"/>
<path d="M218.36 366.312C212.877 367.878 210.359 370.341 205.523 364.376" stroke="white" stroke-width="3" stroke-linecap="round"/>
<path d="M283.962 667.756C279.207 666.57 275.86 665.66 273.652 664.907C272.546 664.531 271.746 664.2 271.204 663.904C270.634 663.593 270.449 663.37 270.408 663.261C270.396 663.229 270.397 663.213 270.407 663.188C270.421 663.151 270.464 663.078 270.581 662.971C270.82 662.753 271.248 662.5 271.889 662.204C272.847 661.762 274.154 661.278 275.731 660.693C276.252 660.5 276.803 660.296 277.38 660.079C286.591 656.617 302.042 650.031 307.12 632.835C309.653 624.255 308.946 613.759 307.096 603.051C305.868 595.939 304.126 588.685 302.473 581.803C301.638 578.325 300.826 574.943 300.114 571.723C299.052 566.914 298.212 562.46 297.843 558.558C297.474 554.648 297.582 551.338 298.382 548.795C299.173 546.277 300.63 544.536 302.983 543.672C305.376 542.794 308.775 542.792 313.49 543.968C351.306 553.398 373.816 588.307 363.907 621.863C353.979 655.487 321.707 677.169 283.962 667.756Z" fill="url(#paint0_linear_714_60)" stroke="black"/>
<path d="M51.6249 500.402C67.6253 531.062 53.8931 483.276 88.8449 468.427C123.797 453.577 199.872 476.463 183.872 445.803C167.871 415.143 126.566 402.326 91.6145 417.176C56.6627 432.025 35.6246 469.742 51.6249 500.402Z" fill="url(#paint1_linear_714_60)"/>
<path fill-rule="evenodd" clip-rule="evenodd" d="M217.944 622.426C250.972 629.848 298.752 583.876 501.695 394.495C612.716 264.647 629.053 147.819 583.727 86.4292L449.867 280.05L160.464 581.468C188.144 601.04 201.133 618.649 217.944 622.426Z" fill="#BC63AD"/>
<path d="M266.423 228.145C75.7072 555.772 78.3983 523.444 160.464 581.468L449.867 280.05L583.727 86.4292C496.401 49.1362 377.444 98.2965 266.423 228.145Z" fill="#C981BD"/>
<path d="M172.624 660.16C152.24 694.997 105.257 666.531 64.7627 705.67C79.0953 604.265 31.1635 638.534 74.6085 576.325C118.367 529.797 119.982 546.218 163.349 579.898C206.715 613.578 216.383 613.632 172.624 660.16Z" fill="#EF592A"/>
<path d="M161.488 643.422C151.951 666.054 116.815 647.649 94.2325 673.099C91.6363 607.285 63.4477 629.585 85.2304 589.163C109.121 558.914 112.197 569.566 145.524 591.359C178.851 613.152 185.379 613.174 161.488 643.422Z" fill="#FF9A50"/>
<path d="M154.149 638.246C147.89 654.131 121.542 640.065 105.811 657.611C101.782 610.604 81.8405 625.754 96.5006 597.508C113.035 576.574 115.633 584.253 140.765 600.687C165.898 617.122 170.683 617.311 154.149 638.246Z" fill="#FFEF5D"/>
<path d="M447.913 326.602C417.086 337.936 381.511 323.563 368.403 294.618C355.294 265.673 369.555 232.978 400.382 221.645C431.209 210.312 466.784 224.684 479.893 253.629C493.001 282.574 478.74 315.269 447.913 326.602Z" fill="url(#paint2_linear_714_60)" stroke="#CC67BC" stroke-width="3"/>
<defs>
<linearGradient id="paint0_linear_714_60" x1="252.162" y1="700.897" x2="276.732" y2="600.479" gradientUnits="userSpaceOnUse">
<stop stop-color="#FFE998"/>
<stop offset="1" stop-color="#CB66BB"/>
</linearGradient>
<linearGradient id="paint1_linear_714_60" x1="40.6004" y1="479.277" x2="166.934" y2="413.348" gradientUnits="userSpaceOnUse">
<stop stop-color="#F5CE9A"/>
<stop offset="0.621914" stop-color="#CA65BA"/>
</linearGradient>
<linearGradient id="paint2_linear_714_60" x1="481.3" y1="253.112" x2="370.655" y2="303.219" gradientUnits="userSpaceOnUse">
<stop stop-color="#FFE484"/>
<stop offset="1" stop-color="white"/>
</linearGradient>
</defs>
</svg>
