<svg width="109" height="131" viewBox="0 0 109 131" fill="none" xmlns="http://www.w3.org/2000/svg">
<path d="M48.4858 94.2839C50.6509 94.2839 52.3949 93.7497 53.718 92.6814C55.041 91.613 55.7026 90.3666 55.7026 88.9421C55.7026 87.6363 54.4998 86.3306 52.0942 85.0248C49.6886 83.719 46.6817 82.4726 43.0733 81.2855C39.4649 80.0985 35.5558 78.4366 31.346 76.2999C27.1363 74.0444 23.2272 71.5516 19.6188 68.8213C16.0104 66.0911 13.0034 62.2925 10.5978 57.4255C8.19226 52.5585 6.98947 47.0387 6.98947 40.8659C6.98947 30.1823 11.7405 20.8638 21.2425 12.9105C30.8649 4.83845 43.2537 0.802429 58.4089 0.802429C64.4229 0.802429 70.1963 1.51467 75.7291 2.93915C81.3823 4.24492 86.013 5.84746 89.6214 7.74676C93.2298 9.64607 96.4172 11.5454 99.1836 13.4447C101.95 15.344 103.995 17.0059 105.318 18.4304L107.122 20.389L89.9822 47.098C89.1403 46.3858 87.9976 45.4955 86.5543 44.4271C85.1109 43.3588 82.3445 41.9343 78.255 40.1537C74.1655 38.2544 70.2564 37.3047 66.5277 37.3047C64.3627 37.3047 62.6187 37.8389 61.2956 38.9073C59.9725 39.9756 59.311 41.222 59.311 42.6465C59.311 43.9523 60.5138 45.2581 62.9194 46.5638C65.325 47.8696 68.3319 49.116 71.9403 50.3031C75.5487 51.4902 79.4578 53.2114 83.6675 55.4668C87.8773 57.6036 91.7864 60.037 95.3948 62.7673C99.0032 65.4975 102.01 69.2962 104.416 74.1631C106.821 79.0301 108.024 84.55 108.024 90.7227C108.024 101.406 103.213 110.784 93.5906 118.856C84.0885 126.81 71.7599 130.786 56.6047 130.786C49.1474 130.786 42.111 130.015 35.4957 128.471C29.0006 127.047 23.7083 125.326 19.6188 123.308C15.5293 121.171 11.9811 119.094 8.97411 117.076C5.96712 114.939 3.80207 113.158 2.47899 111.734L0.674805 109.419L17.8146 82.71C18.7768 83.541 20.0999 84.6093 21.7838 85.9151C23.588 87.2209 27.1363 88.9421 32.4286 91.0788C37.8411 93.2155 43.1936 94.2839 48.4858 94.2839Z" fill="white"/>
</svg>
