<svg width="84" height="96" viewBox="0 0 84 96" fill="none" xmlns="http://www.w3.org/2000/svg">
<path d="M82.133 54.6649C84.5281 62.6763 83.3458 70.2418 78.586 77.3613C73.9288 84.4522 65.8589 89.6042 54.3763 92.8172C49.6603 94.1369 44.9384 94.8794 40.2105 95.0448C35.4827 95.2102 31.4758 95.0002 28.1901 94.4148C24.8723 93.7226 21.8622 92.9443 19.1596 92.08C16.5595 91.187 14.6385 90.3355 13.3964 89.5255L11.3796 88.3535L17.1653 65.8987C17.972 66.3675 19.0157 66.8858 20.2964 67.4534C21.5772 68.0211 24.1326 68.5793 27.963 69.1281C31.7933 69.6769 35.4001 69.4779 38.7834 68.5312C39.9112 68.2156 40.7381 67.637 41.2641 66.7952C41.7902 65.9535 41.9255 65.1054 41.67 64.2508C41.3826 63.2895 39.4422 62.5591 35.8488 62.0598C32.358 61.5318 28.4604 60.944 24.1561 60.2963C19.9543 59.62 15.6416 57.6435 11.218 54.3669C6.89686 51.0616 3.85811 46.4714 2.10173 40.5964C-0.293336 32.585 0.837758 25.0338 5.49496 17.9429C10.2547 10.8233 18.3758 5.65704 29.8584 2.444C36.0098 0.72273 42.2561 0.248189 48.5975 1.02037C54.9069 1.68573 59.6784 2.7814 62.9121 4.3074L67.7626 6.59641L61.9769 29.0512C56.5986 25.9259 51.0901 25.1522 45.4513 26.7301C44.3236 27.0456 43.4967 27.6243 42.9706 28.466C42.4446 29.3077 42.3093 30.1559 42.5648 31.0104C42.8522 31.9718 44.7413 32.7165 48.2321 33.2445C51.8255 33.7438 55.723 34.3316 59.9248 35.008C64.2291 35.6556 68.5418 37.6321 72.8629 40.9374C77.2866 44.214 80.3766 48.7898 82.133 54.6649Z" fill="white"/>
</svg>
