<svg width="1417" height="755" viewBox="0 0 1417 755" fill="none" xmlns="http://www.w3.org/2000/svg">
<path d="M1010 458.585C1003.25 458.585 1010 467.585 1010 458.585" stroke="white" stroke-width="3" stroke-linecap="round"/>
<path d="M1222 566.585V574.585" stroke="white" stroke-width="3" stroke-linecap="round"/>
<path d="M109.424 388.964V392.629" stroke="white" stroke-width="3" stroke-linecap="round"/>
<path d="M537 117.228C536.053 121.902 533 113.127 533 111.585" stroke="white" stroke-width="3" stroke-linecap="round"/>
<path d="M449.369 582.585V589.321" stroke="white" stroke-width="3" stroke-linecap="round"/>
<path d="M653 539.585H647" stroke="white" stroke-width="3" stroke-linecap="round"/>
<path d="M429.651 90.2363C429.651 100.272 429.296 88.07 426.385 83.7031" stroke="#552562" stroke-width="3" stroke-linecap="round"/>
<path d="M494.983 86.9697V90.2363" stroke="white" stroke-width="3" stroke-linecap="round"/>
<path fill-rule="evenodd" clip-rule="evenodd" d="M97.5 62.2676H341L379.5 93.5H426L456.5 62.2676H1318.5V670.5H1353V698.268H448C448 698.268 449 695.667 449 694C449 693.181 449.003 692.401 449.007 691.651C449.032 685.965 449.049 682.014 447.5 676C445.943 669.958 443.924 666.914 440.645 661.973C440.435 661.657 440.22 661.333 440 661C436.702 656.015 434.991 653.944 430.5 650C424.398 644.64 419.969 641.567 412 640C411.338 639.87 410.7 639.741 410.081 639.616C405.509 638.691 401.96 637.973 397 638.5C390.829 639.156 386.798 639.787 381 642C377.314 643.407 375.248 644.853 372.528 646.757C371.755 647.298 370.93 647.876 370 648.5C365.516 651.51 363.436 653.833 360 658C356.945 661.705 355.689 664.509 353.925 668.448C353.634 669.098 353.329 669.779 353 670.5C352.484 671.629 351.985 672.651 351.513 673.617C349.778 677.167 348.415 679.955 348 684.5C347.506 689.91 350 698.268 350 698.268H64V672H95.5L97.5 62.2676Z" fill="#E0AC86"/>
<path fill-rule="evenodd" clip-rule="evenodd" d="M64 40.2676H348C348 40.2676 348.297 46.5469 349 50.5L349.037 50.7079C349.47 53.1452 349.726 54.5872 350.5 57C351.754 60.909 352.928 62.9559 355 66.5C357.05 70.0078 358.366 71.9063 361 75C363.327 77.7333 364.767 79.1728 367.5 81.5L367.732 81.698L368.179 82.0797L368.197 82.0946C370.876 84.3839 372.622 85.8762 376 87.5C378.18 88.5481 379.726 88.9672 381.721 89.5081L381.723 89.5084L381.728 89.5098L381.731 89.5107L381.733 89.5111C382.28 89.6597 382.862 89.8174 383.5 90C384.038 90.154 384.538 90.3003 385.011 90.4391C387.423 91.1457 389.17 91.6576 392 92C394.962 92.3585 396.907 92.2496 399.483 92.1054C400.11 92.0703 400.774 92.0331 401.5 92C402.094 91.9729 402.629 91.9558 403.131 91.9397C404.779 91.8869 406.08 91.8452 408 91.5C410.191 91.1061 411.404 90.7511 413.5 90C415.123 89.4185 416.174 88.8953 417.453 88.2589C417.924 88.0242 418.427 87.7741 419 87.5C419.424 87.2975 419.809 87.1162 420.171 86.9456C421.492 86.3233 422.509 85.8442 424 85C425.603 84.0925 426.489 83.5542 428 82.5C430.276 80.9118 431.511 79.9349 433.5 78C435.175 76.3705 436.01 75.3396 437.474 73.5327L437.5 73.5C439.171 71.436 440.086 70.2482 441.5 68C442.803 65.9289 443.485 64.7261 444.5 62.5C445.704 59.8589 446.232 58.2993 447 55.5C447.841 52.4346 448.112 50.6548 448.5 47.5C448.846 44.6905 448.982 40.2676 448.982 40.2676H1353V57.5C1353 57.5 1346.22 58.0154 1342.5 60C1339.32 61.6952 1337.69 63.1403 1335.5 66C1333.27 68.9138 1332.26 70.911 1331.5 74.5C1330.81 77.7474 1330.95 79.7266 1331.5 83C1332.01 86.0445 1332.5 87.8027 1334 90.5C1335.95 94.0003 1337.81 95.5819 1341 98C1343.99 100.267 1345.77 101.52 1349.5 102C1350.86 102.175 1353 102.5 1353 102.5V113C1353 113 1348.36 113.272 1345.5 114C1345.26 114.061 1345.02 114.121 1344.79 114.178C1341.72 114.954 1339.66 115.473 1337 117.5C1334.5 119.408 1333.48 121.146 1331.99 123.671C1331.83 123.938 1331.67 124.214 1331.5 124.5L1331.3 124.831C1329.99 127.036 1329.17 128.42 1328.5 131C1327.52 134.781 1327.61 137.198 1328.5 141C1329.18 143.896 1329.84 145.53 1331.5 148C1333.81 151.447 1335.93 152.881 1339.5 155C1342.06 156.518 1343.63 157.208 1346.5 158C1348.98 158.684 1353 159 1353 159V169C1353 169 1347.67 168.514 1344.5 169.5C1341.89 170.312 1340.19 170.862 1338.5 172.5C1337.94 173.039 1337.18 173.406 1336.5 174C1335.95 174.485 1335.49 175.082 1335 175.5C1332.8 177.366 1331.57 179.127 1330 182C1328.25 185.202 1327.59 187.353 1327.5 191C1327.4 195.024 1328.25 197.375 1330 201C1331.46 204.025 1332.61 205.642 1335 208C1337.82 210.775 1339.8 212.103 1343.5 213.5C1346.12 214.488 1347.71 214.848 1350.5 215C1351.47 215.053 1353 215 1353 215V225C1353 225 1348.99 225.369 1346.5 226C1342.6 226.989 1340.23 227.593 1337 230C1333.43 232.663 1331.7 234.885 1330 239C1328.42 242.828 1328.06 245.382 1328.5 249.5C1328.85 252.754 1329.63 254.529 1331 257.5C1332.25 260.205 1333 261.79 1335 264C1337.94 267.254 1340.37 268.523 1344.5 270C1347.67 271.134 1353 271.5 1353 271.5V281.5C1353 281.5 1347.08 280.543 1343.5 281.5C1339.78 282.493 1337.66 283.718 1335 286.5C1332.94 288.653 1331.74 290.289 1330.5 293C1329.29 295.641 1329.05 297.424 1328.71 299.953L1328.71 299.956C1328.65 300.44 1328.58 300.951 1328.5 301.5C1328 304.978 1328.28 307.061 1329 310.5C1329.56 313.161 1329.88 314.313 1331.5 316.5C1333.24 318.855 1334.55 319.899 1337 321.5C1337.8 322.022 1338.51 322.526 1339.19 323.003C1341.48 324.618 1343.32 325.415 1346.5 326C1349 326.458 1353 326.5 1353 326.5V337.5C1353 337.5 1346.91 337.848 1343.5 339.5C1340.62 340.895 1339.24 342.208 1337 344.5L1336.97 344.536C1334.94 346.61 1333.72 347.857 1332.5 350.5C1330.84 354.083 1330.86 356.554 1331 360.5C1331.15 364.712 1331.85 367.373 1334 371C1335.9 374.208 1337.39 375.556 1340.33 377.544C1340.55 377.692 1340.77 377.844 1341 378C1341.47 378.317 1341.9 378.624 1342.32 378.916C1344.47 380.435 1346.1 381.586 1349 382C1350.55 382.221 1353 382 1353 382V392.5C1353 392.5 1347.07 393.224 1343.5 394.5C1343.15 394.624 1342.81 394.743 1342.48 394.858L1342.06 395.005L1342.05 395.008C1338.62 396.199 1336.61 397.571 1334 400.5C1331.8 402.967 1330.65 404.454 1329.67 407.473L1329.5 408C1328.27 411.753 1327.63 414.069 1328 418C1328.35 421.688 1329.17 423.781 1331 427C1332.78 430.128 1334.12 431.84 1337 434C1340.22 436.415 1342.52 437.384 1346.5 438C1349.01 438.388 1353 438 1353 438V449.5C1353 449.5 1347.11 449.574 1343.5 450.5C1338.68 451.736 1336.28 453.258 1333 457C1329.86 460.574 1328.42 462.764 1328 467.5C1327.62 471.819 1328.15 474.381 1329.5 478.5C1330.59 481.818 1331.37 483.73 1333.5 486.5C1335.44 489.021 1336.76 490.384 1339.5 492C1342 493.476 1343.63 493.538 1346.5 494C1349.01 494.404 1353 494.5 1353 494.5V505.5C1353 505.5 1347.03 504.37 1343.5 505.5C1339.14 506.894 1336.54 508.583 1333.5 512C1330.4 515.478 1329.24 518.51 1328 523C1326.91 526.953 1327.41 529.547 1328.5 533.5C1329.74 537.99 1331.19 540.22 1334.5 543.5C1337.5 546.474 1339.55 548.014 1343.5 549.5C1347.02 550.821 1353 551 1353 551V562C1353 562 1345.64 562.504 1341.5 564.5C1338.47 565.959 1336.68 566.94 1334.5 569.5C1332.63 571.697 1331.98 573.289 1331 576C1329.99 578.796 1329.82 580.592 1329.56 583.403L1329.5 584C1329.19 587.305 1329.57 589.315 1330.5 592.5C1331.49 595.878 1332.04 597.482 1334.5 600C1336.85 602.403 1338.52 603.448 1341.5 605C1341.71 605.108 1341.91 605.214 1342.1 605.315C1344.16 606.396 1345.54 606.621 1348 607C1349.93 607.298 1353 607.5 1353 607.5V617.5C1353 617.5 1349.94 617.243 1348 617.5C1345.17 617.875 1343.52 618.717 1341.23 619.879C1340.84 620.077 1340.44 620.284 1340 620.5C1339.54 620.728 1339.11 620.935 1338.7 621.131C1336.73 622.073 1335.27 622.776 1333.5 624.5C1331.49 626.467 1330.66 627.936 1329.5 630.5C1328.01 633.778 1327.54 635.9 1327.5 639.5C1327.46 643.291 1328.07 645.487 1329.5 649C1330.89 652.414 1332.02 654.273 1334.5 657C1337.13 659.89 1339.31 661.235 1343 662.5C1346.88 663.828 1353 663 1353 663V676.268H447.5L447 669.5L442 657L432.5 642L404 634L365 642L348.5 676.268H317H64V665.5C64 665.5 68.3522 665.284 71 664.5C74.6014 663.434 76.602 662.389 79.5 660C82.0657 657.885 83.491 656.463 85 653.5C86.3757 650.799 86.6129 649.006 87 646C87.374 643.095 87.5844 641.37 87 638.5C86.4268 635.685 85.553 634.178 84.1504 631.759L84 631.5L83.951 631.415C82.5124 628.932 81.6489 627.442 79.5 625.5C76.7132 622.982 74.6014 622.066 71 621C68.3522 620.216 64 620 64 620V609C64 609 68.3285 609.58 71 609C73.3849 608.482 74.728 607.671 76.6293 606.523C76.906 606.356 77.1946 606.182 77.5 606C77.7388 605.858 77.9699 605.722 78.194 605.589L78.2073 605.582L78.2171 605.576C80.5633 604.191 82.1515 603.254 84 601C86.5526 597.887 87.3039 595.465 88 591.5C88.4968 588.671 88.3275 586.911 88.0695 584.227C88.0469 583.992 88.0236 583.75 88 583.5C87.9499 582.968 87.9172 582.483 87.8864 582.025C87.8097 580.887 87.4836 580.182 87.0459 579.235C86.8778 578.872 86.6932 578.473 86.5 578C85.4927 575.535 84.623 573.812 82.8744 572.251L82.8731 572.25C82.4389 571.862 81.9812 571.454 81.5 571C81.2776 570.79 81.0632 570.587 80.8551 570.39L80.8488 570.384C78.5869 568.239 77.0618 566.792 74 565.5C71.7748 564.561 70.4041 564.232 68 564C66.4451 563.85 64 564 64 564V552.5C64 552.5 68.3212 551.8 71 551C71.4243 550.873 71.8212 550.759 72.1984 550.65C74.1376 550.092 75.5554 549.684 77.5 548.5C80.566 546.633 82.0928 545.041 84 542C85.8702 539.018 86.4602 536.979 87 533.5C87.4491 530.606 87.5771 528.872 87 526C86.1218 521.63 84.8486 519.428 82 516C79.9684 513.555 78.2267 512.134 75.5 510.5C73.2995 509.182 71.7998 508.769 69.4366 508.12L69.4232 508.116L69.387 508.107L69 508C67.0804 507.471 64 507 64 507V496.5C64 496.5 67.3508 496.057 69.4366 495.5C71.6673 494.905 72.9489 494.56 75 493.5C77.3594 492.281 78.6515 491.407 80.5 489.5C81.859 488.098 82.4818 487.166 83.5 485.5C84.4107 484.01 84.8283 483.112 85.5 481.5L85.5969 481.268L85.6743 481.083C86.2866 479.621 86.6859 478.667 87 477C87.47 474.505 87.4635 472.996 87 470.5C86.6598 468.668 86.1559 467.558 85.4832 466.077C85.3308 465.741 85.1698 465.386 85 465C84.8429 464.642 84.7065 464.316 84.5782 464.009L84.5777 464.008C84.1324 462.941 83.7834 462.106 83 461C81.8827 459.423 81.4312 458.799 80 457.5C78.1486 455.819 76.7369 454.618 74.5 453.5C72.7807 452.641 71.637 452.418 69.8354 452.066L69.5 452C67.3837 451.584 64 451.5 64 451.5V440.5C64 440.5 67.0892 440.06 69 439.5C70.6009 439.031 71.47 438.665 73 438C73.2574 437.888 73.4978 437.786 73.7261 437.688C74.9184 437.179 75.7796 436.812 77 436C77.9964 435.337 78.5777 434.803 79.33 434.111C79.5364 433.921 79.7557 433.719 80 433.5C80.4211 433.122 80.8098 432.796 81.1753 432.49C82.2364 431.602 83.1024 430.876 84 429.5C85.0017 427.964 85.3253 426.839 85.7857 425.239L85.7866 425.236C85.854 425.001 85.9242 424.757 86 424.5C86.5626 422.59 86.8823 421.488 87 419.5C87.117 417.524 86.9083 416.332 86.5885 414.507C86.5599 414.344 86.5303 414.175 86.5 414C86.4459 413.688 86.3958 413.389 86.3475 413.102L86.3472 413.101C85.9623 410.81 85.6959 409.225 84.5 407C83.4459 405.039 82.5743 404.074 81 402.5C79.4257 400.926 78.3976 400.164 76.5 399C75.0114 398.087 74.1121 397.672 72.5 397C70.7901 396.288 69.8098 395.895 68 395.5C66.462 395.164 64 395 64 395V384C64 384 64.8977 384.364 65.5 384.5C66.6164 384.752 67.3631 384.672 68.3753 384.564C68.572 384.543 68.7786 384.521 69 384.5C70.7096 384.338 71.6832 384.046 73.2659 383.57L73.5 383.5L73.7312 383.431L73.8803 383.386L73.8823 383.386C75.2543 382.977 76.1445 382.711 77.5 382C78.6068 381.419 79.2232 380.957 80.1371 380.272L80.1558 380.258L80.3173 380.137L80.5 380C80.7254 379.832 80.9373 379.676 81.1388 379.528C82.2268 378.73 83.0119 378.154 84 377C84.2729 376.681 84.5358 376.39 84.791 376.108C85.3925 375.442 85.9517 374.823 86.5 374L86.5097 373.985C87.6745 372.238 88.2009 371.449 89 369.5C89.743 367.688 89.8204 366.396 89.9238 364.67C89.9458 364.303 89.969 363.916 90 363.5C90.0215 363.212 90.0437 362.941 90.0648 362.684C90.1864 361.202 90.2735 360.141 90 358.5C89.7326 356.896 89.3321 355.956 88.7521 354.594C88.6715 354.405 88.5876 354.208 88.5 354C87.5512 351.745 85.5 348.5 85.5 348.5C85.5 348.5 82.8269 344.987 80.5 343.5C78.8795 342.465 76 341.5 76 341.5L72 340L67.5 339.5H64V328.5C64 328.5 65.5299 328.61 66.5 328.5C67.4161 328.396 68.0412 328.17 68.7404 327.918C69.1192 327.782 69.5197 327.637 70 327.5C70.4803 327.363 70.8953 327.271 71.2878 327.184C72.0121 327.023 72.6597 326.879 73.5 326.5C74.3046 326.137 74.7912 325.809 75.4136 325.39C75.594 325.269 75.7858 325.14 76 325C77.635 323.933 78.5508 323.309 80 322C81.745 320.424 82.7369 319.483 84 317.5C85.3637 315.359 85.914 313.97 86.5 311.5C87.0428 309.212 87.0389 307.851 87 305.5C86.9676 303.538 86.9439 302.411 86.5 300.5C85.9257 298.027 85.3637 296.641 84 294.5C82.7369 292.517 81.7315 291.591 80 290C78.0442 288.203 76.8223 287.289 74.5 286C74.3759 285.931 74.2557 285.864 74.1388 285.799L74.1285 285.793C72.6676 284.979 71.7188 284.451 70 284C68.4844 283.602 67.5814 283.565 66.0221 283.501L66 283.5C65.2196 283.468 64 283.5 64 283.5V272C64 272 66.4503 272.197 68 272C69.4715 271.813 70.4272 271.452 71.5819 271.016C72.0142 270.853 72.4744 270.679 73 270.5C73.4199 270.357 73.795 270.239 74.1471 270.128C75.1192 269.822 75.9165 269.571 77 269C79.2122 267.834 80.3344 266.865 82 265C83.1808 263.678 83.7447 262.691 84.5234 261.329C84.6725 261.068 84.8294 260.793 85 260.5C85.2425 260.083 85.4713 259.709 85.6869 259.356C86.4471 258.113 87.0433 257.138 87.5 255.5C87.9787 253.783 87.9857 252.679 87.9962 251.02C87.9973 250.852 87.9984 250.68 88 250.5C88.0194 248.343 87.925 247.114 87.5 245C87.0133 242.579 86.6847 241.167 85.5 239C84.4321 237.047 83.58 236.068 82 234.5C80.1151 232.629 78.7927 231.841 76.5 230.5C74.9924 229.618 74.1291 229.129 72.5 228.5C70.0699 227.561 68.6016 227.136 66 227C65.22 226.959 64 227 64 227V216.5C64 216.5 66.757 215.95 68.5 215.5C68.9684 215.379 69.3913 215.278 69.7888 215.183C71.0659 214.877 72.0804 214.634 73.5 214C74.838 213.402 75.5727 212.926 76.7337 212.173L77 212C77.2049 211.867 77.3996 211.742 77.586 211.623C78.8904 210.786 79.7919 210.208 81 209C82.3807 207.619 83.0502 206.706 84 205C84.7233 203.701 85.0208 202.908 85.5 201.5C86.0189 199.976 86.2125 199.084 86.5 197.5C86.5445 197.255 86.5879 197.023 86.6294 196.8C86.9149 195.273 87.1137 194.209 87 192.5C86.9068 191.099 86.642 190.201 86.3025 189.05C86.2069 188.726 86.1053 188.381 86 188C85.8932 187.613 85.8021 187.26 85.7163 186.928C85.4058 185.725 85.1646 184.79 84.5 183.5C83.5072 181.573 82.6021 180.644 81.1208 179.124L81 179C79.7438 177.71 78.95 177.067 77.5 176L77.253 175.818C75.5676 174.576 74.5188 173.804 72.5 173C71.1793 172.474 70.3923 172.287 69 172C67.0781 171.604 64 171.5 64 171.5V160.5C64 160.5 65.8328 160.22 67 160C68.769 159.666 71.5 159 71.5 159L73.5 158C73.9117 157.794 74.2685 157.635 74.6059 157.485C75.2287 157.208 75.7855 156.96 76.5 156.5C77.4007 155.921 77.9044 155.473 78.62 154.837C78.7398 154.73 78.8655 154.619 79 154.5C80.2431 153.405 80.9283 152.764 82 151.5C83.0864 150.219 83.6565 149.453 84.5 148C85.4657 146.337 86.0121 145.36 86.5 143.5C86.838 142.212 86.8881 141.364 86.958 140.183C86.9707 139.968 86.9841 139.742 87 139.5C87.0143 139.282 87.0288 139.075 87.0426 138.877C87.1398 137.485 87.2069 136.525 87 135C86.7259 132.98 86.287 131.881 85.5 130C84.9943 128.792 84.6647 128.129 84 127C83.1476 125.553 82.5864 124.781 81.5 123.5C80.4283 122.236 79.7897 121.54 78.5 120.5C77.404 119.616 75.5 118.5 75.5 118.5C75.5 118.5 73.7112 117.499 72.5 117C71.3581 116.53 70.7005 116.29 69.5 116C68.1578 115.676 67.3789 115.571 66 115.5C65.22 115.46 64 115.5 64 115.5V104C64 104 66.7369 104.633 68.5 104.5C69.594 104.417 70.3324 104.177 71.1837 103.9C71.5818 103.771 72.0046 103.633 72.5 103.5C72.9221 103.387 73.2913 103.3 73.6384 103.218C74.4204 103.034 75.0904 102.877 76 102.5C77.4545 101.898 78.2027 101.392 79.5 100.5C81.4056 99.1899 82.3367 98.2245 83.9199 96.5831L84 96.5C84.2484 96.2425 84.4794 96.0097 84.6975 95.7899C85.5765 94.9039 86.2457 94.2295 87 93C88.0171 91.3421 88.328 90.1228 88.7585 88.4345C88.8339 88.139 88.9129 87.8291 89 87.5C89.0583 87.2798 89.1149 87.0686 89.1696 86.8644C89.6854 84.9393 90.0316 83.6475 90 81.5C89.9688 79.3766 89.6213 78.1656 89.0486 76.1695L89 76C88.3004 73.5599 87.8766 72.1327 86.5 70C85.5767 68.5696 84.7931 67.7898 83.7376 66.7395C83.5063 66.5092 83.2618 66.266 83 66C82.6668 65.6616 82.3668 65.3464 82.0835 65.0487C80.9639 63.8725 80.1057 62.9709 78.5 62C76.7004 60.9118 75.5451 60.4901 73.5 60C71.9533 59.6294 70.9169 59.5918 69.5361 59.5416C69.2132 59.5299 68.8715 59.5175 68.5 59.5C66.7446 59.4173 64 59.5 64 59.5V40.2676Z" fill="#F4F4F4"/>
<rect x="167" y="482.268" width="190" height="12" fill="black"/>
<rect x="167" y="396.268" width="190" height="12" fill="black"/>
<rect x="167" y="420.268" width="190" height="12" fill="black"/>
<rect x="167" y="283.268" width="190" height="12" fill="black"/>
<rect x="167" y="300.268" width="190" height="12" fill="black"/>
<rect x="167" y="318.268" width="190" height="12" fill="black"/>
<rect x="167" y="471.268" width="190" height="4" fill="black"/>
<rect x="167" y="500.268" width="190" height="4" fill="black"/>
<rect x="167" y="355.268" width="190" height="4" fill="black"/>
<rect x="167" y="460.268" width="190" height="4" fill="black"/>
<rect width="190" height="11" transform="matrix(1 0 0 -1 167 526.268)" fill="black"/>
<rect width="190" height="11" transform="matrix(1 0 0 -1 167 448.268)" fill="black"/>
<rect x="167" y="270.268" width="190" height="3" fill="black"/>
<rect x="167" y="339.268" width="190" height="3" fill="black"/>
<rect x="167" y="197.268" width="190" height="3" fill="black"/>
<rect x="167" y="189.268" width="190" height="3" fill="black"/>
<rect x="167" y="542.268" width="190" height="3" fill="black"/>
<rect x="167" y="235.268" width="190" height="17" fill="black"/>
<rect x="167" y="229.268" width="190" height="4" fill="black"/>
<rect x="167" y="257.268" width="190" height="8" fill="black"/>
<rect x="167" y="215.268" width="190" height="8" fill="black"/>
<rect x="167" y="202.268" width="190" height="8" fill="black"/>
<rect x="167" y="530.268" width="190" height="8" fill="black"/>
<path fill-rule="evenodd" clip-rule="evenodd" d="M347.27 667.265C347.613 638.548 370.499 615.538 398.387 615.871C426.276 616.204 448.606 639.753 448.263 668.47C448.228 671.365 447.968 673.898 447.5 676.11C447.5 676.11 445.487 669.752 443.5 666C441.979 663.128 440.932 661.614 439 659C438.874 658.83 438.752 658.664 438.633 658.502C436.715 655.904 435.513 654.274 433 652C430.613 649.839 428.852 648.793 426.386 647.328C425.949 647.068 425.489 646.795 425 646.5L424.791 646.374C422.077 644.738 420.476 643.773 417.5 642.5C412.839 640.506 410.026 639.663 405 639C400.354 638.387 397.65 638.421 393 639C387.783 639.65 384.866 640.508 380 642.5C374.328 644.821 371.12 646.474 366.5 650.5C363.407 653.195 361.908 655.17 359.571 658.249C359.386 658.492 359.196 658.742 359 659C358.804 659.258 358.614 659.506 358.431 659.747C356.416 662.385 355.109 664.097 353.5 667.265C352.597 669.042 351.786 671.317 351.128 673.45C350.873 674.051 350.735 674.391 350.5 675C349.87 676.631 349.074 679.244 349.074 679.244C347.843 676.162 347.211 672.241 347.27 667.265Z" fill="#E0AC86"/>
<rect x="151" y="368.268" width="206" height="5" fill="black"/>
<rect x="151" y="375.268" width="206" height="5" fill="black"/>
<rect x="151" y="560.268" width="206" height="8" fill="black"/>
<path d="M138.09 227.411C136.778 227.411 135.507 227.11 134.277 226.509C133.047 225.935 132.008 225.224 131.161 224.377C130.314 223.529 129.562 222.682 128.906 221.835C128.277 220.987 127.813 220.263 127.512 219.662L127.02 218.801V227.001H118V204.861H126.2C126.391 205.161 126.651 205.571 126.979 206.091C127.307 206.61 127.936 207.526 128.865 208.838C129.794 210.177 130.683 211.339 131.53 212.323C132.377 213.334 133.307 214.25 134.318 215.07C135.329 215.917 136.177 216.341 136.86 216.341C137.489 216.341 137.981 216.136 138.336 215.726C138.719 215.343 138.91 214.796 138.91 214.086C138.91 213.047 138.719 212.036 138.336 211.052C137.953 210.068 137.571 209.33 137.188 208.838L136.655 208.141L142.805 204.246C142.914 204.355 143.065 204.505 143.256 204.697C143.475 204.888 143.844 205.339 144.363 206.05C144.882 206.76 145.333 207.512 145.716 208.305C146.126 209.125 146.495 210.204 146.823 211.544C147.151 212.883 147.315 214.277 147.315 215.726C147.315 219.17 146.386 221.971 144.527 224.131C142.696 226.317 140.55 227.411 138.09 227.411ZM130.3 252.432V254.892H122.51V252.432H118V241.772H122.51V229.882H130.3L146.7 240.132V252.432H130.3ZM130.3 239.312V241.772H135.63L130.3 239.312ZM136.655 280.162C137.612 279.534 138.09 278.768 138.09 277.866C138.09 276.964 137.612 276.185 136.655 275.529C135.698 274.901 134.263 274.586 132.35 274.586C130.437 274.586 129.002 274.901 128.045 275.529C127.088 276.185 126.61 276.964 126.61 277.866C126.61 278.768 127.088 279.534 128.045 280.162C129.002 280.818 130.437 281.146 132.35 281.146C134.263 281.146 135.698 280.818 136.655 280.162ZM121.608 287.788C118.793 285.11 117.385 281.802 117.385 277.866C117.385 273.93 118.793 270.623 121.608 267.944C124.423 265.266 128.004 263.926 132.35 263.926C136.696 263.926 140.277 265.266 143.092 267.944C145.907 270.623 147.315 273.93 147.315 277.866C147.315 281.802 145.907 285.11 143.092 287.788C140.277 290.467 136.696 291.806 132.35 291.806C128.004 291.806 124.423 290.467 121.608 287.788ZM146.7 300.407V310.247H118V299.587H136.86L134.81 293.437H143.83L146.7 300.407ZM146.7 327.074V336.914H118V326.254H136.86L134.81 320.104H143.83L146.7 327.074ZM146.7 361.934H138.09L118 352.094V341.024L137.68 350.659V340.204H146.7V361.934ZM130.3 400.484V402.944H122.51V400.484H118V389.824H122.51V377.934H130.3L146.7 388.184V400.484H130.3ZM130.3 387.364V389.824H135.63L130.3 387.364ZM135.22 414.84C135.384 414.949 135.575 415.127 135.794 415.373C136.013 415.619 136.313 416.166 136.696 417.013C137.079 417.86 137.27 418.776 137.27 419.76C137.27 422.63 136.409 424.912 134.687 426.607C132.992 428.329 130.71 429.19 127.84 429.19C124.806 429.19 122.305 428.138 120.337 426.033C118.369 423.928 117.385 421.154 117.385 417.71C117.385 413.747 118.697 410.562 121.321 408.157C123.945 405.779 127.621 404.59 132.35 404.59C136.696 404.59 140.277 405.902 143.092 408.526C145.907 411.15 147.315 414.348 147.315 418.12C147.315 419.815 147.083 421.441 146.618 422.999C146.181 424.584 145.743 425.746 145.306 426.484L144.65 427.55L138.09 424.68C138.91 423.313 139.32 421.81 139.32 420.17C139.32 418.612 138.91 417.327 138.09 416.316C137.27 415.332 136.313 414.84 135.22 414.84ZM125.749 419.145C126.268 419.555 126.965 419.76 127.84 419.76C128.715 419.76 129.412 419.555 129.931 419.145C130.45 418.735 130.71 418.257 130.71 417.71C130.71 417.163 130.45 416.685 129.931 416.275C129.412 415.865 128.715 415.66 127.84 415.66C126.965 415.66 126.268 415.865 125.749 416.275C125.23 416.685 124.97 417.163 124.97 417.71C124.97 418.257 125.23 418.735 125.749 419.145ZM146.7 444.775V454.615H118V443.955H136.86L134.81 437.805H143.83L146.7 444.775ZM138.09 481.069C136.778 481.069 135.507 480.769 134.277 480.167C133.047 479.593 132.008 478.883 131.161 478.035C130.314 477.188 129.562 476.341 128.906 475.493C128.277 474.646 127.813 473.922 127.512 473.32L127.02 472.459V480.659H118V458.519H126.2C126.391 458.82 126.651 459.23 126.979 459.749C127.307 460.269 127.936 461.184 128.865 462.496C129.794 463.836 130.683 464.997 131.53 465.981C132.377 466.993 133.307 467.908 134.318 468.728C135.329 469.576 136.177 469.999 136.86 469.999C137.489 469.999 137.981 469.794 138.336 469.384C138.719 469.002 138.91 468.455 138.91 467.744C138.91 466.706 138.719 465.694 138.336 464.71C137.953 463.726 137.571 462.988 137.188 462.496L136.655 461.799L142.805 457.904C142.914 458.014 143.065 458.164 143.256 458.355C143.475 458.547 143.844 458.998 144.363 459.708C144.882 460.419 145.333 461.171 145.716 461.963C146.126 462.783 146.495 463.863 146.823 465.202C147.151 466.542 147.315 467.936 147.315 469.384C147.315 472.828 146.386 475.63 144.527 477.789C142.696 479.976 140.55 481.069 138.09 481.069ZM138.09 512.864L134.4 507.124C134.373 507.315 134.318 507.561 134.236 507.862C134.154 508.19 133.922 508.75 133.539 509.543C133.156 510.335 132.692 511.032 132.145 511.634C131.626 512.262 130.847 512.823 129.808 513.315C128.797 513.834 127.662 514.094 126.405 514.094C124.027 514.094 121.922 513 120.091 510.814C118.287 508.654 117.385 505.853 117.385 502.409C117.385 500.96 117.549 499.566 117.877 498.227C118.178 496.915 118.547 495.835 118.984 494.988C119.421 494.14 119.859 493.389 120.296 492.733C120.733 492.104 121.116 491.639 121.444 491.339L121.895 490.929L128.045 494.824C127.881 495.015 127.676 495.275 127.43 495.603C127.184 495.931 126.842 496.614 126.405 497.653C125.995 498.691 125.79 499.73 125.79 500.769C125.79 501.452 125.968 501.999 126.323 502.409C126.678 502.819 127.116 503.024 127.635 503.024C128.154 503.024 128.592 502.819 128.947 502.409C129.302 501.999 129.48 501.452 129.48 500.769V497.284H134.81L138.09 502.204V492.774H146.7V512.864H138.09ZM138.09 538.069L134.4 532.329C134.373 532.52 134.318 532.766 134.236 533.067C134.154 533.395 133.922 533.955 133.539 534.748C133.156 535.541 132.692 536.238 132.145 536.839C131.626 537.468 130.847 538.028 129.808 538.52C128.797 539.039 127.662 539.299 126.405 539.299C124.027 539.299 121.922 538.206 120.091 536.019C118.287 533.86 117.385 531.058 117.385 527.614C117.385 526.165 117.549 524.771 117.877 523.432C118.178 522.12 118.547 521.04 118.984 520.193C119.421 519.346 119.859 518.594 120.296 517.938C120.733 517.309 121.116 516.845 121.444 516.544L121.895 516.134L128.045 520.029C127.881 520.22 127.676 520.48 127.43 520.808C127.184 521.136 126.842 521.819 126.405 522.858C125.995 523.897 125.79 524.935 125.79 525.974C125.79 526.657 125.968 527.204 126.323 527.614C126.678 528.024 127.116 528.229 127.635 528.229C128.154 528.229 128.592 528.024 128.947 527.614C129.302 527.204 129.48 526.657 129.48 525.974V522.489H134.81L138.09 527.409V517.979H146.7L146.7 538.069H138.09Z" fill="black"/>
<rect x="151" y="171.268" width="206" height="8" fill="black"/>
<path d="M400 97.7676V118.768" stroke="#E0AC86" stroke-width="4"/>
<path d="M400 130.268V151.268" stroke="#E0AC86" stroke-width="4"/>
<path d="M400 164.268V185.268" stroke="#E0AC86" stroke-width="4"/>
<path d="M400 198.268V219.268" stroke="#E0AC86" stroke-width="4"/>
<path d="M400 231.268V252.268" stroke="#E0AC86" stroke-width="4"/>
<path d="M400 265.268V286.268" stroke="#E0AC86" stroke-width="4"/>
<path d="M400 297.268V318.268" stroke="#E0AC86" stroke-width="4"/>
<path d="M400 330.268V351.268" stroke="#E0AC86" stroke-width="4"/>
<path d="M400 364.268V385.268" stroke="#E0AC86" stroke-width="4"/>
<path d="M400 397.268V418.268" stroke="#E0AC86" stroke-width="4"/>
<path d="M400 430.268V451.268" stroke="#E0AC86" stroke-width="4"/>
<path d="M400 464.268V485.268" stroke="#E0AC86" stroke-width="4"/>
<path d="M400 498.268V519.268" stroke="#E0AC86" stroke-width="4"/>
<path d="M400 533.268V554.268" stroke="#E0AC86" stroke-width="4"/>
<path d="M400 568.268V589.268" stroke="#E0AC86" stroke-width="4"/>
<path d="M400 601.268V622.268" stroke="#E0AC86" stroke-width="4"/>
<path d="M810 364.268L814.172 454.409L869 461.268L814.172 468.127L810 558.268L805.828 468.127L751 461.268L805.828 454.409L810 364.268Z" fill="#F6E9A5"/>
<path d="M488.695 99.3176C488.695 101.078 488.292 102.783 487.485 104.433C486.715 106.083 485.762 107.476 484.625 108.613C483.489 109.749 482.352 110.758 481.215 111.638C480.079 112.481 479.107 113.104 478.3 113.508L477.145 114.168H488.145V126.268H458.445V115.268C458.849 115.011 459.399 114.663 460.095 114.223C460.792 113.783 462.02 112.939 463.78 111.693C465.577 110.446 467.135 109.254 468.455 108.118C469.812 106.981 471.04 105.734 472.14 104.378C473.277 103.021 473.845 101.884 473.845 100.968C473.845 100.124 473.57 99.4642 473.02 98.9876C472.507 98.4742 471.774 98.2176 470.82 98.2176C469.427 98.2176 468.07 98.4742 466.75 98.9876C465.43 99.5009 464.44 100.014 463.78 100.528L462.845 101.243L457.62 92.9926C457.767 92.8459 457.969 92.6442 458.225 92.3876C458.482 92.0942 459.087 91.5992 460.04 90.9026C460.994 90.2059 462.002 89.6009 463.065 89.0876C464.165 88.5376 465.614 88.0426 467.41 87.6026C469.207 87.1626 471.077 86.9426 473.02 86.9426C477.64 86.9426 481.399 88.1892 484.295 90.6826C487.229 93.1392 488.695 96.0176 488.695 99.3176ZM522.26 109.768H525.56V120.218H522.26V126.268H507.96V120.218H492.01V109.768L505.76 87.7676H522.26V109.768ZM504.66 109.768H507.96V102.618L504.66 109.768ZM553.08 106.468L561.88 87.7676H577.28V126.268H562.98V107.568L554.18 126.268H538.78V87.7676H553.08V106.468ZM620.197 86.9426C625.99 86.9426 630.739 88.8126 634.442 92.5526C638.145 96.2926 639.997 101.114 639.997 107.018C639.997 112.921 638.145 117.743 634.442 121.483C630.739 125.223 625.99 127.093 620.197 127.093C617.227 127.093 614.532 126.616 612.112 125.663C609.729 124.673 607.877 123.499 606.557 122.143C605.274 120.786 604.192 119.429 603.312 118.073C602.469 116.679 601.9 115.488 601.607 114.498L601.222 113.068H597.097V126.268H582.797V87.7676H597.097V100.968H601.222C601.259 100.784 601.314 100.528 601.387 100.198C601.497 99.8309 601.754 99.1709 602.157 98.2176C602.597 97.2276 603.092 96.2926 603.642 95.4126C604.192 94.5326 604.98 93.5609 606.007 92.4976C607.07 91.3976 608.225 90.4626 609.472 89.6926C610.719 88.9226 612.277 88.2809 614.147 87.7676C616.017 87.2176 618.034 86.9426 620.197 86.9426ZM617.117 111.913C617.997 113.049 619.024 113.618 620.197 113.618C621.37 113.618 622.397 113.049 623.277 111.913C624.157 110.739 624.597 109.108 624.597 107.018C624.597 104.928 624.157 103.314 623.277 102.178C622.397 101.004 621.37 100.418 620.197 100.418C619.024 100.418 617.997 101.004 617.117 102.178C616.237 103.314 615.797 104.928 615.797 107.018C615.797 109.108 616.237 110.739 617.117 111.913ZM658.678 87.7676V100.968H667.478V87.7676H681.778V126.268H667.478V113.068H658.678V126.268H644.378V87.7676H658.678ZM699.917 126.268H683.417L692.767 111.418C692.62 111.344 692.437 111.234 692.217 111.088C691.997 110.904 691.593 110.519 691.007 109.933C690.457 109.346 689.962 108.686 689.522 107.953C689.082 107.183 688.678 106.156 688.312 104.873C687.982 103.589 687.817 102.196 687.817 100.693C687.817 96.5492 689.283 93.2676 692.217 90.8476C695.15 88.4276 699.55 87.2176 705.417 87.2176C707.873 87.2176 710.422 87.2726 713.062 87.3826C715.738 87.4559 717.792 87.5476 719.222 87.6576L721.367 87.7676V126.268H707.067V113.618H706.517L699.917 126.268ZM705.417 103.718H707.067V97.6676H705.417C704.463 97.6676 703.675 97.9609 703.052 98.5476C702.428 99.1342 702.117 99.8492 702.117 100.693C702.117 101.536 702.428 102.251 703.052 102.838C703.675 103.424 704.463 103.718 705.417 103.718Z" fill="#552562"/>
<path d="M1136.48 364.88L1136.39 365.595L1137.07 365.424C1161.87 359.184 1180.71 356.495 1194.44 356.661C1208.19 356.828 1216.72 359.857 1221.04 364.919C1225.32 369.945 1225.59 377.126 1222.44 385.96C1219.29 394.794 1212.77 405.166 1203.67 416.403C1167.28 461.357 1090.22 519.62 1026.87 547.742C963.488 575.876 900.885 591.611 850.235 590.059C799.585 588.507 760.999 569.681 745.402 528.813C741.522 518.646 741.034 506.021 743.438 491.564C745.841 477.11 751.129 460.859 758.762 443.468C774.029 408.684 798.653 369.399 828.232 330.908C886.951 254.496 965.106 181.329 1028.16 152.757C1014.61 174.614 1006.51 190.402 1002.68 201.757C998.789 213.321 999.269 220.475 1003.21 224.699C1005.16 226.795 1007.92 228.111 1011.26 228.906C1014.61 229.702 1018.57 229.985 1022.99 229.986C1028.25 229.988 1034.2 229.588 1040.54 229.162C1044.81 228.875 1049.27 228.575 1053.8 228.38C1076.4 227.405 1101.26 228.983 1118.38 246.976C1135.49 264.966 1145 299.515 1136.48 364.88Z" fill="#EF592A" stroke="black"/>
<path d="M1086.94 387.979C1240.48 349.014 1099.61 485.142 1001.47 528.707C903.324 572.272 807.622 577.886 783.631 515.024C759.64 452.163 906.391 268.62 1004.53 225.055C917.075 363.691 1114.09 187.523 1086.94 387.979Z" fill="#FF9A50"/>
<path d="M1053.18 406.285C1170.03 375.779 1061.8 477.685 986.922 510.924C912.042 544.164 839.396 549.428 821.838 503.421C804.28 457.415 917.451 320.524 992.332 287.285C924.589 390.407 1075.81 258.353 1053.18 406.285Z" fill="#FFEF5D"/>
<path d="M850.026 503.661C833.001 480.526 846.227 438.196 861.162 425.413C876.096 412.63 902.004 421.022 919.029 444.157C936.054 467.291 937.749 496.409 922.814 509.192C907.88 521.975 867.051 526.796 850.026 503.661Z" fill="#3E3935"/>
<path d="M435.426 308.268H517.026V392.268H485.826V334.668H466.626V392.268H435.426V308.268ZM610.602 308.268V392.268H579.402V333.468H568.602C568.602 354.668 565.402 370.068 559.002 379.668C552.682 389.268 544.282 394.068 533.802 394.068C532.042 394.068 530.162 393.908 528.162 393.588C526.162 393.348 524.602 393.068 523.482 392.748L521.802 392.268V369.468H524.202C526.602 369.468 528.602 368.788 530.202 367.428C531.882 365.988 533.482 363.268 535.002 359.268C536.602 355.268 537.802 349.028 538.602 340.548C539.402 331.988 539.802 321.228 539.802 308.268H610.602ZM681.979 308.268L706.579 392.268H671.779L669.379 380.268H653.779L651.379 392.268H616.579L641.179 308.268H681.979ZM657.379 361.068H665.779L661.579 339.468L657.379 361.068ZM743.723 308.268V337.068H762.923V308.268H794.123V392.268H762.923V363.468H743.723V392.268H712.523V308.268H743.723ZM837.299 362.268V368.268H873.299V392.268H806.099V308.268H870.899V332.268H837.299V338.268H868.499V362.268H837.299ZM876.946 308.268H953.746V335.868H930.946V392.268H899.746V335.868H876.946V308.268ZM1013.16 308.268L1037.76 392.268H1002.96L1000.56 380.268H984.96L982.56 392.268H947.76L972.36 308.268H1013.16ZM988.56 361.068H996.96L992.76 339.468L988.56 361.068ZM1043.7 308.268C1054.9 307.468 1066.9 307.068 1079.7 307.068C1092.5 307.068 1102.1 309.708 1108.5 314.988C1114.9 320.268 1118.1 327.428 1118.1 336.468C1118.1 345.268 1115.22 352.388 1109.46 357.828C1103.7 363.188 1095.78 365.868 1085.7 365.868L1074.9 365.268V392.268H1043.7V308.268ZM1074.9 343.068H1079.7C1081.78 343.068 1083.5 342.428 1084.86 341.148C1086.22 339.868 1086.9 338.308 1086.9 336.468C1086.9 334.628 1086.22 333.068 1084.86 331.788C1083.5 330.508 1081.78 329.868 1079.7 329.868H1074.9V343.068ZM1157.7 349.068L1176.9 308.268H1210.5V392.268H1179.3V351.468L1160.1 392.268H1126.5V308.268H1157.7V349.068ZM1253.74 349.068L1272.94 308.268H1306.54V392.268H1275.34V351.468L1256.14 392.268H1222.54V308.268H1253.74V349.068ZM1260.22 280.188C1261.34 281.308 1262.78 281.868 1264.54 281.868C1266.3 281.868 1267.74 281.308 1268.86 280.188C1269.98 279.068 1270.54 277.628 1270.54 275.868H1288.54C1288.54 283.068 1286.34 288.868 1281.94 293.268C1277.54 297.668 1271.74 299.868 1264.54 299.868C1257.34 299.868 1251.54 297.668 1247.14 293.268C1242.74 288.868 1240.54 283.068 1240.54 275.868H1258.54C1258.54 277.628 1259.1 279.068 1260.22 280.188Z" fill="#552562"/>
<path d="M772.329 161.34L772.347 161.758L772.762 161.813L806.212 166.268L772.762 170.722L772.347 170.777L772.329 171.196L770 224.757L767.671 171.196L767.653 170.777L767.238 170.722L733.788 166.268L767.238 161.813L767.653 161.758L767.671 161.34L770 107.778L772.329 161.34Z" fill="#F6E9A5" stroke="#552562"/>
<path d="M646.672 492.432L646.692 492.852L647.11 492.905L697.972 499.268L647.11 505.63L646.692 505.683L646.672 506.103L643 585.453L639.328 506.103L639.308 505.683L638.89 505.63L588.028 499.268L638.89 492.905L639.308 492.852L639.328 492.432L643 413.082L646.672 492.432Z" fill="#F6E9A5" stroke="#552562"/>
<path d="M1225.98 523.189L1225.99 523.61L1226.41 523.662L1255 527.268L1226.41 530.873L1225.99 530.925L1225.98 531.346L1224 574.367L1222.02 531.346L1222.01 530.925L1221.59 530.873L1193 527.268L1221.59 523.662L1222.01 523.61L1222.02 523.189L1224 480.168L1225.98 523.189Z" fill="#F6E9A5" stroke="#552562"/>
<path d="M499.424 608.318C499.424 610.078 499.021 611.783 498.214 613.433C497.444 615.083 496.491 616.476 495.354 617.613C494.218 618.749 493.081 619.758 491.944 620.638C490.808 621.481 489.836 622.104 489.029 622.508L487.874 623.168H498.874V635.268H469.174V624.268C469.578 624.011 470.128 623.663 470.824 623.223C471.521 622.783 472.749 621.939 474.509 620.693C476.306 619.446 477.864 618.254 479.184 617.118C480.541 615.981 481.769 614.734 482.869 613.378C484.006 612.021 484.574 610.884 484.574 609.968C484.574 609.124 484.299 608.464 483.749 607.988C483.236 607.474 482.503 607.218 481.549 607.218C480.156 607.218 478.799 607.474 477.479 607.988C476.159 608.501 475.169 609.014 474.509 609.528L473.574 610.243L468.349 601.993C468.496 601.846 468.698 601.644 468.954 601.388C469.211 601.094 469.816 600.599 470.769 599.903C471.723 599.206 472.731 598.601 473.794 598.088C474.894 597.538 476.343 597.043 478.139 596.603C479.936 596.163 481.806 595.943 483.749 595.943C488.369 595.943 492.128 597.189 495.024 599.683C497.958 602.139 499.424 605.018 499.424 608.318ZM525.069 610.243C524.226 608.959 523.199 608.318 521.989 608.318C520.779 608.318 519.734 608.959 518.854 610.243C518.011 611.526 517.589 613.451 517.589 616.018C517.589 618.584 518.011 620.509 518.854 621.793C519.734 623.076 520.779 623.718 521.989 623.718C523.199 623.718 524.226 623.076 525.069 621.793C525.949 620.509 526.389 618.584 526.389 616.018C526.389 613.451 525.949 611.526 525.069 610.243ZM535.299 630.428C531.706 634.204 527.269 636.093 521.989 636.093C516.709 636.093 512.273 634.204 508.679 630.428C505.086 626.651 503.289 621.848 503.289 616.018C503.289 610.188 505.086 605.384 508.679 601.608C512.273 597.831 516.709 595.943 521.989 595.943C527.269 595.943 531.706 597.831 535.299 601.608C538.893 605.384 540.689 610.188 540.689 616.018C540.689 621.848 538.893 626.651 535.299 630.428ZM573.977 608.318C573.977 610.078 573.574 611.783 572.767 613.433C571.997 615.083 571.044 616.476 569.907 617.613C568.77 618.749 567.634 619.758 566.497 620.638C565.36 621.481 564.389 622.104 563.582 622.508L562.427 623.168H573.427V635.268H543.727V624.268C544.13 624.011 544.68 623.663 545.377 623.223C546.074 622.783 547.302 621.939 549.062 620.693C550.859 619.446 552.417 618.254 553.737 617.118C555.094 615.981 556.322 614.734 557.422 613.378C558.559 612.021 559.127 610.884 559.127 609.968C559.127 609.124 558.852 608.464 558.302 607.988C557.789 607.474 557.055 607.218 556.102 607.218C554.709 607.218 553.352 607.474 552.032 607.988C550.712 608.501 549.722 609.014 549.062 609.528L548.127 610.243L542.902 601.993C543.049 601.846 543.25 601.644 543.507 601.388C543.764 601.094 544.369 600.599 545.322 599.903C546.275 599.206 547.284 598.601 548.347 598.088C549.447 597.538 550.895 597.043 552.692 596.603C554.489 596.163 556.359 595.943 558.302 595.943C562.922 595.943 566.68 597.189 569.577 599.683C572.51 602.139 573.977 605.018 573.977 608.318ZM607.542 618.768H610.842V629.218H607.542V635.268H593.242V629.218H577.292V618.768L591.042 596.768H607.542V618.768ZM589.942 618.768H593.242V611.618L589.942 618.768Z" fill="#552562"/>
</svg>
