<svg width="289" height="378" viewBox="0 0 289 378" fill="none" xmlns="http://www.w3.org/2000/svg">
<path d="M255.998 306.721L288.134 342.376L275.321 353.925L265.78 343.34L239.596 366.94L226.541 352.455L252.725 328.855L243.185 318.27L255.998 306.721Z" fill="white"/>
<path d="M207.112 290.278L234.087 282.119L248.147 297.718L209.149 332.867L196.094 318.383L215.036 301.31L188.06 309.469L174.001 293.87L212.998 258.721L226.053 273.206L207.112 290.278Z" fill="white"/>
<path d="M180.273 260.534L179.994 260.785C180.191 261.079 180.402 261.462 180.625 261.933C180.919 262.409 181.276 263.366 181.697 264.804C182.189 266.245 182.452 267.657 182.487 269.04C182.558 270.389 182.247 271.948 181.553 273.718C180.93 275.491 179.839 277.08 178.279 278.486C174.936 281.499 170.871 282.403 166.083 281.199C161.329 280.032 155.989 276.161 150.064 269.587C147.688 266.95 145.3 264.189 142.9 261.303C140.464 258.45 138.649 256.25 137.455 254.701L135.558 252.372L174.555 217.223C179.613 222.088 184.736 227.399 189.925 233.156C195.248 239.061 198.193 244.383 198.761 249.121C199.33 253.859 198.035 257.651 194.878 260.496C193.616 261.634 192.249 262.395 190.777 262.779C189.339 263.2 188.024 263.309 186.83 263.105C185.637 262.902 184.537 262.614 183.53 262.243C182.522 261.873 181.745 261.496 181.199 261.114L180.273 260.534ZM178.14 240.244L173.126 244.763L174.883 246.713C175.72 247.642 176.631 248.167 177.616 248.289C178.601 248.411 179.446 248.154 180.152 247.518C180.858 246.882 181.201 246.067 181.181 245.075C181.162 244.083 180.734 243.122 179.897 242.194L178.14 240.244ZM160.092 260.549C162.101 262.777 164.034 263.055 165.891 261.381C167.748 259.707 167.672 257.756 165.663 255.528L163.655 253.299L158.084 258.321L160.092 260.549Z" fill="white"/>
<path d="M158.364 195.083L129.66 241.653L115.098 225.497L119.665 219.361L113.138 212.119L106.562 216.026L92.0005 199.87L141.292 176.142L158.364 195.083ZM123.558 205.756L127.073 209.656L135.343 198.668L123.558 205.756Z" fill="white"/>
<path d="M76.8753 173.769L71.9322 177.17L60.8792 161.105L65.8223 157.704C61.1177 150.866 59.027 144.475 59.5502 138.532C60.0735 132.588 62.7654 127.944 67.6261 124.6C72.4868 121.256 77.7861 120.401 83.524 122.037C89.262 123.673 94.4833 127.91 99.1879 134.748L104.131 131.347L115.184 147.412L110.241 150.813C114.945 157.65 117.036 164.041 116.513 169.985C115.99 175.928 113.298 180.572 108.437 183.916C103.576 187.261 98.2771 188.115 92.5391 186.479C86.8012 184.843 81.5799 180.607 76.8753 173.769ZM76.3263 150.477L88.6839 141.975C87.607 140.409 86.1234 139.488 84.2331 139.21C82.3429 138.933 80.4915 139.418 78.6791 140.665C76.8666 141.912 75.7521 143.468 75.3356 145.332C74.9191 147.197 75.2493 148.912 76.3263 150.477ZM99.7369 158.039L87.3793 166.542C88.4562 168.107 89.9398 169.028 91.8301 169.306C93.7203 169.583 95.5717 169.099 97.3841 167.852C99.1966 166.605 100.311 165.049 100.728 163.184C101.144 161.32 100.814 159.605 99.7369 158.039Z" fill="white"/>
<path d="M85.8076 104.227L38.0309 125.99L29.9474 108.245L63.3911 93.0106L60.593 86.8679C48.5351 92.3605 38.9469 94.5303 31.8286 93.3774C24.731 92.27 19.8246 88.736 17.1093 82.7753C16.6533 81.7742 16.2573 80.6635 15.9211 79.443C15.5394 78.2433 15.2945 77.2835 15.1863 76.5636L15.0241 75.4837L27.992 69.5765L28.6139 70.9416C29.2357 72.3066 30.1406 73.268 31.3287 73.8257C32.583 74.4081 34.5445 74.6134 37.2134 74.4416C39.9031 74.3153 43.7631 73.3811 48.7935 71.6391C53.8695 69.8763 60.0931 67.3161 67.4643 63.9583L85.8076 104.227Z" fill="white"/>
<path d="M59.9419 40.3918L11.175 65.1796L7.1663 43.8022L14.2613 40.9456L12.4643 31.3627L4.81635 31.2707L0.807619 9.89329L55.242 15.3286L59.9419 40.3918ZM24.6734 31.3624L25.6411 36.5225L38.426 31.4542L24.6734 31.3624Z" fill="white"/>
</svg>
