<svg width="155" height="191" viewBox="0 0 155 191" fill="none" xmlns="http://www.w3.org/2000/svg">
<path d="M62.5238 116.633L67.2311 51.7805L111.699 34.4333L154.324 147.545L113.031 163.653L92.3284 108.713L87.621 173.566L43.1527 190.913L0.528613 77.8014L41.8206 61.6932L62.5238 116.633ZM36.1481 20.5362C38.1987 21.4661 40.3886 21.4767 42.7179 20.568C45.0472 19.6594 46.6687 18.1619 47.5827 16.0755C48.4967 13.9891 48.5071 11.7609 47.6141 9.39093L71.4364 0.0977521C75.0899 9.79301 75.1213 18.7389 71.5308 26.9355C67.9403 35.132 61.3805 41.0889 51.8516 44.8062C42.3227 48.5235 33.5303 48.5555 25.4743 44.9023C17.4184 41.2491 11.5637 34.5748 7.9102 24.8796L31.7325 15.5864C32.6256 17.9563 34.0975 19.6062 36.1481 20.5362Z" fill="white"/>
</svg>
