<svg width="126" height="125" viewBox="0 0 126 125" fill="none" xmlns="http://www.w3.org/2000/svg">
<path d="M125.877 0.540771V121.681H81.6542V36.8829H66.3463C66.3463 67.4564 61.8106 89.6655 52.7392 103.51C43.7812 117.355 31.875 124.277 17.0206 124.277C14.5259 124.277 11.8612 124.046 9.02642 123.585C6.19161 123.239 3.98045 122.835 2.39296 122.373L0.0117188 121.681V88.8002H3.41349C6.81526 88.8002 9.65007 87.8195 11.9179 85.8582C14.2992 83.7815 16.567 79.8589 18.7215 74.0903C20.9893 68.3217 22.6902 59.3227 23.8241 47.0933C24.958 34.7485 25.525 19.231 25.525 0.540771H125.877Z" fill="white"/>
</svg>
