<svg width="140" height="147" viewBox="0 0 140 147" fill="none" xmlns="http://www.w3.org/2000/svg">
<path d="M36.168 117.254C36.0458 115.547 35.2834 114.047 33.8809 112.756C32.4783 111.464 30.9211 110.827 29.2092 110.846C27.4973 110.865 26.0701 111.494 24.9275 112.735C23.785 113.976 23.2748 115.45 23.397 117.158C23.5193 118.865 24.2817 120.365 25.6842 121.656C27.0868 122.948 28.644 123.584 30.3559 123.566C32.0678 123.547 33.495 122.918 34.6375 121.677C35.7801 120.436 36.2903 118.962 36.168 117.254ZM29.6954 96.1907C35.2328 95.8069 40.1053 97.5524 44.3129 101.427C48.5206 105.302 50.6744 110.027 50.7743 115.602C50.872 121.125 48.7972 126.193 44.5499 130.805C40.3025 135.417 35.4102 137.915 29.8728 138.299C24.3334 138.631 19.4598 136.86 15.2521 132.985C11.0445 129.11 8.89174 124.411 8.794 118.888C8.69413 113.313 10.7679 108.219 15.0152 103.607C19.2626 98.9947 24.156 96.5226 29.6954 96.1907ZM65.1262 77.2019L65.3285 77.3882C65.5293 77.2243 65.7944 77.0447 66.1237 76.8495C66.4509 76.6025 67.1251 76.2763 68.1464 75.8709C69.1655 75.4138 70.1786 75.1255 71.1857 75.0062C72.1659 74.862 73.3256 74.9829 74.6649 75.3689C76.0021 75.703 77.2371 76.3917 78.3699 77.4349C80.7974 79.6704 81.7345 82.577 81.1813 86.1549C80.6528 89.7057 78.1904 93.8682 73.794 98.6423C72.0305 100.557 70.1769 102.489 68.2331 104.437C66.3163 106.411 64.8331 107.886 63.7834 108.863L62.2122 110.407L33.8913 84.327C37.099 80.3025 40.6278 76.1999 44.4777 72.0192C48.427 67.7306 52.1121 65.2175 55.5329 64.4797C58.9538 63.742 61.8105 64.4288 64.1032 66.54C65.0202 67.3845 65.669 68.3309 66.0496 69.3791C66.4549 70.4004 66.6239 71.3536 66.5566 72.2386C66.4892 73.1237 66.3544 73.9466 66.1522 74.7075C65.95 75.4683 65.7279 76.0613 65.486 76.4865L65.1262 77.2019ZM50.4562 80.1416L54.0975 83.4948L55.4015 82.0787C56.0224 81.4044 56.3439 80.7035 56.3658 79.976C56.3877 79.2486 56.1425 78.6489 55.63 78.1769C55.1175 77.705 54.4997 77.5099 53.7765 77.5916C53.0533 77.6733 52.3812 78.0513 51.7602 78.7256L50.4562 80.1416ZM66.5115 91.936C68.0018 90.3176 68.0727 88.8875 66.7241 87.6456C65.3754 86.4037 63.956 86.5919 62.4657 88.2102L60.9754 89.8285L65.0212 93.5543L66.5115 91.936ZM89 61.0201L91.0229 62.883L102.2 50.7454L110.292 58.1969L89.4276 80.8536L61.1067 54.7734L81.2258 32.9259L89.3175 40.3774L78.8854 51.7057L80.9083 53.5686L90.5952 43.0494L98.6869 50.5009L89 61.0201ZM95.0256 17.9405L104.736 26.8823L110.697 20.4089L100.987 11.4671L110.674 0.947942L138.995 27.0282L129.308 37.5473L119.598 28.6056L113.636 35.0789L123.346 44.0207L113.66 54.5399L85.3386 28.4597L95.0256 17.9405Z" fill="white"/>
</svg>
