<svg width="116" height="140" viewBox="0 0 116 140" fill="none" xmlns="http://www.w3.org/2000/svg">
<path d="M0.395698 24.4257C15.0436 18.093 30.948 11.9315 48.1089 5.94133C65.2699 -0.0488927 79.3549 -0.940327 90.3639 3.26703C101.373 7.47439 108.957 15.7438 113.115 28.0753C117.162 40.0794 116.576 51.1396 111.356 61.256C106.098 71.2632 96.7129 78.6254 83.1986 83.3427L68.4431 87.5785L80.8619 124.409L39.0321 139.01L0.395698 24.4257ZM58.232 57.2954L64.6674 55.049C67.456 54.0756 69.4676 52.3977 70.7023 50.0152C71.9369 47.6327 72.131 45.1864 71.2847 42.6765C70.4384 40.1665 68.8092 38.3567 66.3971 37.2472C63.985 36.1376 61.3846 36.0695 58.596 37.0429L52.1606 39.2892L58.232 57.2954Z" fill="white"/>
</svg>
