<svg width="89" height="122" viewBox="0 0 89 122" fill="none" xmlns="http://www.w3.org/2000/svg">
<path d="M34.8925 0.476972C37.5649 4.87508 40.242 9.68312 42.9235 14.9011C45.6051 20.119 46.54 24.5856 45.7284 28.3007C44.9168 32.0158 42.6684 34.8203 38.9832 36.7141C35.3958 38.5577 31.89 38.8753 28.4657 37.6669C25.074 36.4417 22.3222 33.7745 20.2105 29.6654L18.1925 25.137L7.18592 30.7934L0.64963 18.0747L34.8925 0.476972ZM27.2424 20.4862L28.248 22.4429C28.6838 23.2909 29.305 23.8579 30.1117 24.1442C30.9184 24.4305 31.6968 24.3808 32.4469 23.9954C33.197 23.6099 33.6905 23.0059 33.9273 22.1833C34.1642 21.3607 34.0648 20.5255 33.629 19.6776L32.6234 17.7209L27.2424 20.4862ZM63.6871 56.5076L34.5979 84.1335L27.3074 69.9472L31.6964 66.4549L28.4283 60.0955L23.0337 61.6311L15.7432 47.4448L55.1396 39.8753L63.6871 56.5076ZM37.0094 57.5407L38.7692 60.965L46.6946 54.7277L37.0094 57.5407ZM87.6836 103.202L65.7857 102.706L53.9436 121.778L46.4017 107.102L56.5793 93.2145L42.8822 100.254L36.3459 87.5349L70.5887 69.9372L77.125 82.6559L63.4279 89.695L80.1417 88.5261L87.6836 103.202Z" fill="white"/>
</svg>
